<svg version="1.1" id="fire-icon" class="element-svg" xmlns="http://www.w3.org/2000/svg" xmlns:xlink="http://www.w3.org/1999/xlink" x="0px" y="0px" viewBox="0 0 92.9 92.9" enable-background="new 0 0 92.9 92.9" xml:space="preserve">
	<g>
		<path d="M92.9,46.4c0-5.4-0.9-10.5-2.6-15.3c-1.4-2.1-2.9-4.1-2.9-6.6c-3-5.5-7.1-10.4-11.9-14.3
			c-0.7,0.1-1.5,0.2-2.4,0c-2.3-0.6-5.3-3-6-3.8c-0.1-0.5-0.1-1,0-1.5C63.9,3.2,60.5,2,56.9,1.2C56.9,1.6,57,2,56.4,2.1
			c-1.6,0.4-2.1-0.4-2.4-1.5C51.9,0.2,49.6,0,47.3,0c-1.3,0.8-2.6,1.6-4,1.8c-1.7,0.4-6.6,0.7-9.1-0.2C29.3,3,24.7,5.1,20.6,7.9
			c-0.4,0.9-1,1.7-2.1,2.6c-1.4,1.1-2.5,1.6-3.7,2c-3.8,3.6-7,7.7-9.5,12.4c-0.1,1.3,0.1,2.7-0.9,4c-0.4,0.5-0.8,0.8-1.3,0.9
			C1.1,35,0,40.6,0,46.4c0,1.5,0.1,3,0.2,4.5c0.5,0.2,0.9,0.7,0.8,2.1c-0.2,0-0.4,0-0.6,0c0.3,2.2,0.8,4.4,1.4,6.4
			c1.2,1,2.6,1.7,1.5,3.7c0.6,0.7,0.8,1.6,0.8,2.5c1.5,3.2,3.2,6.2,5.3,8.9c0.3,0.1,0.6,0.2,1,0.4c1.9,0.9,2.9,2.7,3.4,4.7
			c4.9,4.8,11,8.6,17.7,10.9c3.2-0.6,9.2,0.4,11.3,0.7c1.8,0.2,2.8,1.1,3.9,1.8c9.7-0.1,18.6-3.1,26-8.3c0-0.3,0.1-0.7,0.2-1
			c0.8-2.3,1.4-0.9,2.7-2.6c1.7-2.2,2.4-3.7,4.8-5.3c2.3-1.6,4-3,5.7-5.3c0.1-0.1,0.2-0.2,0.3-0.3c1.8-3,3.2-6.2,4.3-9.6
			c-0.3-0.6-0.6-1.2-0.7-2.1c-0.3-2.6,1.2-3.2,2.3-4.8C92.7,51.2,92.9,48.9,92.9,46.4z M46.5,88.9C23,88.9,4,69.9,4,46.4
			C4,23,23,4,46.5,4C69.9,4,88.9,23,88.9,46.4C88.9,69.9,69.9,88.9,46.5,88.9z M64.8,30.2c3.4,5.7,8.9,21.5-2.7,23.7
			c-0.4,0.1-0.8,0.1-1.2,0.1c-2.6,0-5.1-1.5-4.7-4c0.4-2.6,3.6-4.7,4.4-7.4c1.9-6.6-6.3-10.4-8.8-15.5c-1.4-2.8-2.4-7.3-0.1-9.8
			c1.4-1.5,4.9-2.9,9.6-3.1c0,0-4.3-1.7-9.1-1.7c-4.4,0-9.3,1.4-12,6.8c0,0-2,4,0.3,9.8c0,0,3.1,10.3-6.3,10.3c-0.4,0-0.8,0-1.2-0.1
			c0,0-10.6-1.1-0.5-15.5c0,0-19.1,7.8-11,18.2c0,0,2.5,3.1,7,6.9c0,0,5,5.8,0.3,8.4c0,0-1.6,0.9-3.5,0.9c-2.4,0-5.3-1.5-6-8
			c-0.4,0.1-3.6,2.2-4,5.6C13.2,69.5,26.8,78,39.3,79.9c2,0.3,4.1,0.4,6.2,0.4c3.2,0,6.4-0.3,9.3-0.9c4.2-0.8,8.4-2.9,11.7-5.3
			C74.3,68.6,77.9,59,78,50.3c0.1-3.8-0.9-7.4-3.1-10.6C72.7,36.6,68.6,31.9,64.8,30.2z M55.2,73c-1.6,1.4-5.4,2.3-7.7,2.4
			c-0.2,0-0.5,0-0.8,0c-1.9,0-5.3-0.4-6.2-1.4c0,0,1.2,0.2,2.9,0.2c3.8,0,10-0.9,11.4-6.5c0,0,0.6-5.9-3-8.4c0,0-2.1,3.1-5.4,3.1
			c-1.2,0-2.6-0.4-4.1-1.6c-4.1-3.1-0.7-8.6,3.1-11c3.8-2.4,7.2-5.2,6.8-10.1c0-0.2,0-0.3,0-0.3c0.2,0,1,2.5,0.9,3.8
			c-0.2,1.7-0.9,2.8-2,4.2c-1.8,2.2-4.8,3.4-6.6,5.6c-1.5,1.9-2.4,5.7,0.5,6.8c0.7,0.2,1.4,0.4,2.2,0.4c1.7,0,3.4-0.9,3.7-4
			c2.5,1.4,4.8,3.2,5.9,5.8C58.3,65.5,58.6,69.9,55.2,73z"></path>
	</g>
</svg>