<svg xmlns="http://www.w3.org/2000/svg" xmlns:xlink="http://www.w3.org/1999/xlink" version="1.1" id="vehicles-icon" class="series-icon" x="0px" y="0px" viewBox="0 0 63.3 35.9" enable-background="new 0 0 63.3 35.9" xml:space="preserve"><path d="M63.1 22.1c-0.4-2.8-1.9-5.1-3.7-5.9l-0.2 1.1c0 0 0 0 0 0v0c-1.3 5.2-0.8 6.7-0.6 7.1l0.9 0.1c0 0 0 0 0 0 0.1 0 0.1 0 0.2 0.1 0 0 0 0 0 0 0 0 0 0 0 0 0 0 0 0 0 0 0 0 0.1 0.1 0.1 0.1l0.4 1c0 0.1 0 0.2 0 0.3l-1.8 3.2c-0.1 0.1-0.1 0.2-0.2 0.2l-5.2 1.1c0.4 0.4 0.9 0.6 1.5 0.5 4.5-0.3 5.9-1.2 5.9-1.2 0 0 0 0 0 0C62.7 28.6 63.7 25.8 63.1 22.1zM44.6 18.5c-0.1 0-0.2 0-0.3-0.1l-0.8-0.6 -1.7 0.4c-0.2 0-0.3 0-0.4-0.2l-0.5-0.9 -1.3 0.3c1.8 1.3 3.2 3.7 3.9 6.5 0.3-2.8 1.2-4.6 1.9-5.6L44.6 18.5zM59.5 25.8l-0.1-0.3 -1.9 2.1c-0.1 0.1-0.1 0.1-0.2 0.1l-1.8 0.3 -0.5 0.1 -0.1 0 -0.5 0.1 -2.5 0.5 -0.4 0.1L51 29l-1.2 0.2c0 0 0 0-0.1 0 -0.1 0-0.1 0-0.2-0.1l-2.3-1.6 -3.4-0.8c0 0.9 0 1.8-0.2 2.6l5.2 1.2 2.6-0.5 0.4-0.1 0.4-0.1 5.5-1.1L59.5 25.8zM52.5 19.9c0-0.1 0.1-0.2 0.1-0.3 0-0.1 0.1-0.3 0.1-0.4 0.1-0.4 0.3-0.7 0.5-1.1L50.8 18 50 17.9l-1-0.1 -2.7 0.4c-0.6 0.7-2.2 3.2-2.3 7.8l3.4 0.8c0 0 0.1 0 0.1 0.1l2.2 1.5 0.9-0.2 0.7-0.1 3.2-0.6 0.4-0.1 0.3-0.1 0.5-0.1 1.1-0.2 1.8-2 -0.4 0c-0.1 0-0.1 0-0.2-0.1 -0.2-0.2-1.1-1.3 0.2-7.1 -0.2 0.1-0.5 0.2-0.7 0.3 -1.1 4.2-0.2 6.7-0.2 6.7L56.2 26l0 0 -0.3 0.2c0-0.1-0.1-0.2-0.1-0.4 0 0 0 0 0 0 -0.1-0.2-0.1-0.4-0.1-0.6 0-0.1 0-0.2-0.1-0.3 0-0.2-0.1-0.4-0.1-0.5 -0.1-0.4-0.1-0.7-0.1-1.1 0-0.5-0.1-1-0.1-1.4 0-0.3 0-0.5 0-0.7 0.1-1.4 0.5-2.4 0.7-2.8 -0.1 0-0.1 0-0.2 0h0c-0.3 0-0.6 0-0.8-0.1 -0.1 0.3-0.4 0.9-0.6 1.7 0 0 0 0 0 0 0 0.1-0.1 0.3-0.1 0.4 0 0 0 0 0 0 0 0.1-0.1 0.3-0.1 0.4 0 0 0 0.1 0 0.1 0 0.1 0 0.3-0.1 0.4 -0.1 0.8-0.2 1.7-0.2 2.7 0 0.3 0 0.5 0.1 0.8 0 0.2 0.1 0.4 0.1 0.7 0.1 0.3 0.1 0.7 0.2 1l-1.9 0.4c0 0-1-3.2-0.1-6.6C52.4 20.2 52.4 20.1 52.5 19.9zM51.3 19.7c-0.1 0.2-0.1 0.4-0.2 0.6 0 0 0 0 0 0 0 0.1-0.1 0.3-0.1 0.4 -0.1 0.3-0.2 0.7-0.3 1 -0.1 0.6-0.2 1.2-0.3 1.7 -0.3 2.1 0 3.2 0 3.2l0 0L50 27.5 47.7 26c-0.7-3.1 1.6-5.9 2.3-6.7 0.1-0.1 0.2-0.2 0.2-0.2h1.4C51.4 19.3 51.4 19.5 51.3 19.7zM27.6 8.9C27.6 8.9 27.6 8.9 27.6 8.9L28 9.4c0.1 0.1 0.1 0.2 0.1 0.3L28 10.3l1.2 0.4c0 0 0.1 0 0.1 0 0 0 0 0 0 0l1.3-1.3L31 8.4c0.1-0.2 0.2-0.3 0.4-0.2l2 0.3c0.1 0 0.2 0.1 0.2 0.1l1.3 1.7 3 2.6c0 0 0.1 0.1 0.1 0.1l3.6-0.1 0.1-0.8c0-0.2 0.2-0.3 0.3-0.3l2.9-0.4L41.7 9h-4c-0.1 0-0.2-0.1-0.3-0.2L33.2 3 32 2.4l0.4 1.7c0 0.2-0.1 0.4-0.2 0.4 -0.2 0.1-0.4 0.4-0.5 1.2 0 0.1-0.1 0.3-0.3 0.3 -0.1 0-0.3 0-0.4-0.1L29.2 4l-6.2-4 1.4 2c0.1 0.1 0.1 0.3 0 0.5 -0.1 0.1-0.3 0.2-0.5 0.1L21.2 1l-0.7 1.7 5.1 4.7L27.6 8.9zM17.9 13.5c0 0.1 1.9 4.3 4.5 5.3l2.2-2.4c0.1-0.1 0.3-0.2 0.5-0.1l0.6 0.4 1.8-0.6 0.9-1c0.1-0.1 0.1-0.1 0.2-0.1l1.6-0.3L29 13.4c-0.4-0.1-0.9-0.2-1.1-0.2 -0.1 0-0.2 0-0.3-0.1l-3.3-3.2H22c-0.1 0-0.2-0.1-0.3-0.2l-4.5-6.3 -1.4-0.7 0.4 1.9c0 0.2-0.1 0.4-0.2 0.4 -0.1 0-0.4 0.2-0.6 1.3 0 0.1-0.1 0.3-0.3 0.3 -0.1 0-0.3 0-0.4-0.1l-1.9-2.1L6 0l1.6 2.3c0.1 0.1 0.1 0.3 0 0.5C7.5 2.9 7.3 2.9 7.1 2.8L4 1.1 3.7 2l10.3 6.6C14.4 8.7 15.9 9.3 17.9 13.5zM42.3 13.1l0 0.1c0 0.2-0.1 0.3-0.3 0.3 0 0-0.1 0-0.1 0l-0.1 0 -2.5 0 -0.6 0 -1.2 0 -0.8 0 -0.1 0 2.4 0.6 0.5 0.1 0.3 0 1.6-0.1c0 0 0.1 0 0.1 0l1.6 0.2 1.9 0.4 1.9 0.3 0.6-0.6c0.1-0.1 0.2-0.1 0.3-0.1h0.1l0.5-1.9 5.2-0.5 -0.3-0.8 -6.3 0.4 -0.3 0 -0.5 0.1 -0.5 0.1 -3.3 0.5L42.3 13.1zM10.2 14.5c0.6-0.1 1.3-0.3 2.1-0.3 0.4 0 0.7-0.1 1.1-0.1 0.2 0 0.5 0 0.7 0 0.1 0 0.2 0 0.4 0 0.1 0 0.2 0 0.3 0h0.1c0.1 0 0.1 0 0.2 0 0 0 0.1 0 0.1 0 -0.3-0.5-0.6-0.9-0.9-1.2 -0.5-0.6-0.9-0.8-1-0.9 0 0 0 0 0 0 0 0-0.1 0-0.1 0L11 11.5l-0.4-0.1 -4.5-1.1 -0.2 0c0 0-0.1 0-0.1 0.1l-5.5 0.6c-0.4 0.3-0.4 1.4-0.3 2.3l7.7 1.5L10.2 14.5zM20.6 20.8c0 0.3 0.1 0.6 0.1 0.8l0-0.1c0.1-0.1 0.1-0.1 0.2-0.2l0.5-0.1 0.3-0.5c-0.4-0.2-0.8-0.4-1.2-0.6C20.6 20.4 20.6 20.6 20.6 20.8zM10.8 10.7l0.4 0.1 0.4 0.1 1.8 0.4h0c0.4 0 1.3 0.4 2.9 3 0.7 0.3 1.4 0.8 2.1 1.4 -0.6-1-1-1.9-1-2 -2.1-4.3-3.5-4.5-3.5-4.5 -0.1 0-0.1 0-0.2-0.1L3.4 2.7 3 2.5 2.7 2.3 2.4 2.1 0.8 3.1l5.1 6.4L10.8 10.7zM22 20.2C22 20.2 22.1 20.2 22 20.2l0.1-0.1v-0.6c-0.4-0.1-0.7-0.3-1-0.5 -0.5-0.3-1-0.8-1.4-1.2 -0.1-0.1-0.2-0.2-0.3-0.4 0 0.1 0.1 0.1 0.1 0.2 0.1 0.3 0.3 0.5 0.4 0.8 0.1 0.2 0.2 0.5 0.3 0.7h0c0 0 0 0 0 0.1 0.1 0.1 0.2 0.2 0.3 0.2C21 19.7 21.4 20 22 20.2 22 20.2 22 20.2 22 20.2zM19.5 23.7c0-0.1 0-0.2 0.1-0.3l0.4-0.7 0.1-0.1c0-0.1 0-0.2 0-0.3 0-0.2 0-0.4 0-0.6 0-0.3 0-0.6-0.1-0.9 -0.1-0.4-0.2-0.9-0.3-1.3 -0.1-0.2-0.2-0.5-0.2-0.7 -0.1-0.2-0.1-0.3-0.2-0.5C19.1 18.3 19 18.2 19 18c0 0 0-0.1 0-0.1 -0.2-0.4-0.4-0.8-0.7-1.1 -0.4-0.5-0.8-0.9-1.2-1.3 -0.2-0.2-0.5-0.3-0.7-0.4l0 0c-0.2-0.1-0.4-0.2-0.6-0.2 -0.1 0-0.2-0.1-0.3-0.1 -0.2 0-0.3-0.1-0.5-0.1h-0.1c-0.1 0-0.2 0-0.3 0 -0.1 0-0.3 0-0.4 0 0 0-0.1 0-0.1 0 -0.1 0-0.2 0-0.3 0 -0.1 0-0.2 0-0.4 0 -0.8 0-1.5 0.1-2.2 0.2 -0.3 0.1-0.6 0.1-0.9 0.2 -0.1 0-0.2 0-0.3 0.1 2.5 0.3 4.7 3.1 5.3 6.7 0.5 3.1-0.3 5.9-2 7.4 2.8-0.4 3.8-1 3.8-1 0 0 0 0 0 0 0.2-0.1 0.5-0.3 0.7-0.4 0 0 0 0 0 0l1.8-3.2L19.5 23.7zM14.6 22.1c-0.6-3.4-2.7-6.1-5-6.1 -0.1 0-0.3 0-0.4 0 -0.5 0.1-0.9 0.3-1.3 0.5 -0.1 0.1-0.3 0.2-0.4 0.3 -0.1 0.1-0.3 0.3-0.4 0.5C6.1 18.8 5.6 21 6 23.5c0.4 2.2 1.4 4.1 2.7 5.1 0.3 0.3 0.7 0.5 1 0.6 0.4 0.2 0.9 0.3 1.3 0.3 0.1 0 0.3 0 0.4 0 0 0 0 0 0 0C13.7 29.1 15.2 25.8 14.6 22.1zM13.2 24.6c0 0.7-0.3 1.7-1.4 3.1 -0.1 0.1-0.2 0.1-0.3 0.1 -0.1 0-0.1 0-0.2-0.1 -0.2-0.1-0.2-0.3-0.1-0.5 0 0 0.7-1.1 0.9-2.2 -2.7-1.9-2.4-4.5-2-5.7 -0.2-0.1-0.4-0.2-0.6-0.2 -0.6 0-1.1 0.4-1.1 0.4 -0.2 0.1-0.4 0.1-0.5 0 0 0 0 0 0 0 -0.1-0.1-0.1-0.3 0-0.4 0 0 0 0 0-0.1 0.7-0.6 1.3-0.9 1.9-0.9 0.4 0 0.7 0.1 0.9 0.3 0.1 0 0.1 0 0.2 0.1 0.1 0 0.1 0.1 0.1 0.1 0.1 0 0.1 0.1 0.2 0.1C13.4 20.6 13.3 23.4 13.2 24.6zM25.1 21.4c0.5-1 1.1-1.8 1.8-2.4 0 0 0-0.1 0-0.1 0-0.1 0.8-1.4 4.1-2.1 0.6-0.1 1.3-0.2 2.1-0.3 0.7-0.1 1.5-0.1 2.4-0.1 0.2 0 0.4 0 0.7 0 0.1 0 0.2 0 0.3 0l0.1 0c0.1 0 0.3 0 0.4 0 0.1 0 0.2 0 0.4 0 0.1 0 0.3 0 0.4 0.1 0.2 0 0.3 0.1 0.5 0.2 0.3 0.1 0.5 0.2 0.8 0.3 0-0.1 0.1-0.2 0.3-0.2l0.8-0.2 0.7-0.1 0.4-0.1c0.1 0 0.2 0 0.3 0.1 0 0 0 0 0.1 0.1 0 0 0 0 0 0l0.5 0.9 1.6-0.4c0.1 0 0.2 0 0.3 0.1l0.9 0.6 1.3-0.2 0.6-0.1 2.4-0.3c0 0 0.1 0 0.1 0l1.1 0.1 0.4 0 0.5 0 3.9 0.3c0 0 0 0 0.1 0 0.2 0.1 0.5 0.1 0.8 0.1 0.6 0 1.2-0.1 1.7-0.3 0.3-0.1 0.5-0.2 0.7-0.3 0.1-0.1 0.2-0.1 0.3-0.1l0-0.2 0.2-0.8 0.1-0.4 0.1-0.4 0-0.3 -0.8 0c-0.2 0-0.3-0.1-0.4-0.3l-0.2-0.8L56 14.1c-0.1 0-0.1 0-0.2 0L55 13.8l-0.5-0.2 -0.1 0 -0.1 0.3c0 0 0 0.1-0.1 0.1 -0.1 0.1-0.1 0.1-0.2 0.1 -0.1 0-0.2 0-0.2 0l-0.4 0.1 -0.6 0.1 -3 0.7L49 15.2c0 0-0.1 0-0.1 0h-1l-0.2 0.2 -0.3 0.3 -0.1 0.1c0 0-0.1 0-0.1 0C47.2 16 47.1 16 47 16l0 0 -1-0.2 -0.1 0 -0.9-0.2 -0.2 0L43 15.3 41.5 15l-1.6 0.1c0 0-0.1 0-0.1 0L39 15l-3.1-0.7h-1.4L31.7 15c-0.1 0.1-0.1 0.1-0.2 0.1l-0.1 0L31 15.2l-0.3 0.1 -0.8 0.2 -0.9 0.2 -0.9 1c0 0-0.1 0.1-0.2 0.1l-2.1 0.7c-0.1 0-0.2 0-0.3 0l-0.5-0.3L23.2 19l-0.3 0.3 0 0v0.8c0 0.1 0 0.1 0 0.2l0 0 0 0 -0.1 0.2 -0.1 0.1 0 0 -0.2 0.3 0 0.1L22 21.8c-0.1 0.1-0.1 0.2-0.2 0.2l-0.5 0.1 -0.3 0.5 -0.2 0.2 0 0.1 -0.2 0.3 -0.1 0.2 -0.2 0.3 0.1 0.4 0.1 0.5c0 0.1 0 0.2 0 0.3l-0.5 0.9 -0.7 1.3 -0.3 0.5 0.4-0.1 3.8-0.5c0 0 0.1 0 0.1 0l1.1 0.1C24.1 25.1 24.4 23.1 25.1 21.4zM42.9 24.8c-0.5-3-1.9-5.5-3.6-6.8 -0.2-0.2-0.5-0.3-0.7-0.4 -0.3-0.2-0.6-0.3-0.9-0.4 -0.1 0-0.2-0.1-0.4-0.1 -0.1 0-0.2 0-0.4-0.1 -0.1 0-0.3 0-0.4 0l-0.1 0c-0.4 0-0.7 0-1 0 -1.4 0-2.6 0.1-3.5 0.3 -0.8 0.1-1.5 0.3-2.1 0.5 0 0 0 0 0 0 0.4 0 0.8 0.1 1.2 0.2 0.1 0 0.3 0.1 0.4 0.1 0.1 0 0.3 0.1 0.4 0.2 2.4 1.1 4.5 4.1 5.1 7.9 0.6 4-0.5 7.7-2.7 9.4 3.9-0.5 5.2-1.3 5.2-1.3 0 0 0 0 0 0 1.7-0.8 2.8-2.3 3.3-4.3 0-0.1 0.1-0.2 0.1-0.4 0-0.1 0-0.2 0.1-0.4 0.1-0.8 0.2-1.7 0.1-2.7 0-0.2 0-0.4-0.1-0.6C43 25.6 43 25.2 42.9 24.8zM36.2 26.3c-0.6-3.7-2.6-6.7-5-7.5 -0.1-0.1-0.3-0.1-0.4-0.1 -0.2 0-0.3-0.1-0.5-0.1 -0.1 0-0.3 0-0.4 0 -0.2 0-0.4 0-0.6 0 -0.6 0.1-1.2 0.4-1.7 0.7 -0.1 0.1-0.3 0.2-0.4 0.3 -0.1 0.1-0.3 0.3-0.4 0.4 -0.4 0.4-0.7 1-1 1.6 -0.6 1.4-0.9 3.1-0.8 4.9 0 0.3 0.1 0.7 0.1 1.1 0 0.1 0 0.2 0 0.4 0 0 0 0 0 0 0.5 3.1 2 5.7 3.9 7 0.3 0.2 0.7 0.4 1.1 0.5 0.5 0.2 0.9 0.3 1.4 0.3 0.2 0 0.4 0 0.6 0 0 0 0 0 0 0C35.1 35.3 37 31 36.2 26.3zM34.2 29.3c0 0.8-0.3 2.2-1.8 4 -0.1 0.1-0.2 0.1-0.3 0.1 -0.1 0-0.1 0-0.2-0.1 -0.2-0.1-0.2-0.3-0.1-0.5 0 0 0.9-1.5 1.2-2.9 -3.2-2.2-3.2-5.3-2.5-7.2 -0.3-0.1-0.6-0.2-0.8-0.2 -0.8 0-1.4 0.5-1.4 0.5 -0.2 0.1-0.4 0.1-0.5 0 -0.1-0.1-0.1-0.2-0.1-0.3 0-0.1 0-0.2 0.1-0.2 0 0 0.1-0.1 0.1-0.1 0.8-0.7 1.5-1 2.3-1 0.4 0 0.8 0.1 1.2 0.3 0.1 0 0.1 0 0.2 0.1 0.1 0 0.1 0.1 0.2 0.1 0.1 0.1 0.2 0.2 0.3 0.3C34.4 24.5 34.4 27.8 34.2 29.3z"></path></svg>