<svg xmlns="http://www.w3.org/2000/svg" xmlns:xlink="http://www.w3.org/1999/xlink" version="1.1" id="lightcore-icon" class="series-icon" x="0" y="0" viewBox="0 0 175.4 202.7" enable-background="new 0 0 175.4 202.7" xml:space="preserve">
  <path class="white-fill" fill="#FFFFFF" d="M165.2 74c-2.8-6.4-3.8-12.2 2.6-20.6 8.1-8.7 5-16.3-1.6-22.4C142 8.8 111.9-1.6 80.9 0.2c-26.6 1.6-51.1 12.3-71 30.6 -4 3.7-10.6 11.5-2.8 21.3C12 60.4 13.2 66.9 8 78.2c0 0 0.1-0.1 0.1-0.1C2.9 89.3 0 101.8 0 115c0 48.4 39.3 87.7 87.7 87.7 48.4 0 87.7-39.3 87.7-87.7C175.4 100.2 171.7 86.2 165.2 74z"></path>
  <path d="M11.9 40.2l3.9-3.4 9.3 10.5 6.7-6 3 3.4 -10.6 9.4L11.9 40.2z"></path>
  <path d="M26 28.5l4.3-2.9L40.7 41l-4.3 2.9L26 28.5z"></path>
  <path d="M37.4 31.8L37.4 31.8C35 26.9 37 21.2 42.2 18.7c2.9-1.4 5.5-1.5 8-0.8L49 22.5c-1.7-0.4-3.1-0.4-4.8 0.4 -2.4 1.2-3.3 4.1-2.1 6.6l0 0c1.3 2.7 4.1 3.7 6.8 2.5 1.1-0.5 1.9-1.2 2.4-2l-1-2L47 29.6l-1.6-3.4 7.7-3.7 3.6 7.5c-1.1 2.3-3 4.6-6 6.1C45.4 38.6 39.8 36.9 37.4 31.8z"></path>
  <path d="M54.3 14l5-1.2 1.6 6.7 6.4-1.5 -1.6-6.8 5-1.2 4.3 18 -5 1.2 -1.7-6.9L62 23.9l1.7 6.9 -5 1.2L54.3 14z"></path>
  <path d="M79.2 13.8l-5.6 0.3 -0.3-4.5 16.2-0.9 0.3 4.5 -5.6 0.3 0.8 14L80 27.9 79.2 13.8z"></path>
  <path d="M89.7 18L89.7 18c0.6-5.4 5.2-9.2 10.8-8.6 3.8 0.4 6 2.3 7.4 4.7l-4.2 2.6c-0.9-1.4-2-2.4-3.8-2.6 -2.6-0.3-4.7 1.7-4.9 4.4l0 0.1c-0.3 2.8 1.3 5.1 3.9 5.4 1.9 0.2 3.2-0.6 4.4-1.8l3.6 3.2c-2 2.2-4.6 3.7-8.6 3.3C92.9 28 89.1 23.5 89.7 18z"></path>
  <path d="M108.4 20.1L108.4 20.1c1.7-5.1 7.1-7.9 12.6-6.1 5.4 1.8 8.1 7.2 6.5 12.2l0 0.1c-1.7 5.1-7.1 7.8-12.5 6C109.5 30.5 106.8 25.1 108.4 20.1zM122.5 24.7L122.5 24.7c0.9-2.6-0.3-5.4-3-6.3 -2.7-0.9-5.2 0.7-6 3.3l0 0.1c-0.8 2.5 0.3 5.4 2.9 6.2C119.1 28.8 121.6 27.2 122.5 24.7z"></path>
  <path d="M134 19.3l7.6 4.4c2.5 1.4 3.8 3 4.2 4.8 0.4 1.5 0.2 3-0.7 4.6l0 0c-1.4 2.5-3.7 3.3-6.2 3l0.6 7.8 -5.1-3 -0.4-6.7 -0.1 0 -1.9-1.1 -2.8 4.9 -4.5-2.6L134 19.3zM136.9 31.3c1.5 0.9 2.8 0.6 3.5-0.5l0 0c0.7-1.3 0.2-2.4-1.3-3.3l-2.9-1.7 -2.2 3.9L136.9 31.3z"></path>
  <path d="M152.5 30.8l11.2 9.9 -2.9 3.3 -7.4-6.5 -1.9 2.1 6.7 5.9 -2.7 3 -6.7-5.9 -1.9 2.2 7.5 6.6 -2.9 3.3 -11.3-9.9L152.5 30.8z"></path>
  <path d="M87.9 34c-44.7 0-81 36.3-81 81 0 44.7 36.3 81 81 81 44.8 0 81-36.3 81-81C168.9 70.2 132.6 34 87.9 34zM88.1 187.1c-38.1 0-69.4-29.8-71.8-67.3l71.4 3.4L156.2 92c2.5 7.3 3.8 15 3.8 23.2C160.1 154.8 127.8 187.1 88.1 187.1z"></path>
  <path class="white-fill" fill="#FFFFFF" d="M163.8 98.5l-2.6-7.3 -0.6-4.6c0-0.4-0.2-0.7-0.5-1l-2.5-2.1c-0.2-0.1-0.5-0.3-0.7-0.3l-4.5-1.1 -0.9-1.3 0.6-1c0.4-0.7 0.2-1.7-0.4-2.1l-3.2-2.3c-0.3-0.2-0.5-0.2-0.8-0.2l-5.7 0 -0.7-0.7c0 0 0 0 0 0 -0.2-0.2-0.4-0.4-0.7-0.7l-1.8-1.9c-1.5-1.5-3.4-3.5-5.5-5.6 -4-4.1-8-8.1-8-8.1 -0.5-0.5-1.2-0.8-2-0.9l0 0 -12.4-1.4 5.5-13.9 -11.6 9.5 -3.6-15.3 -4 15.3L84.7 40.7l6.4 15.2 -16.5-1.4 14.1 8.6 -14.1 8.6 16.5-1.4 -6.4 15.2 12.5-10.8 2.1 7.6 0 0 0 0c0.2 0.7 0.6 1.3 1.1 1.8l0.8 0.6c1.8 1.3 21.5 15.8 21.5 15.8l-0.9 3.5 -0.6 0.8 -9.2-9.2c-0.2-0.2-0.5-0.4-0.8-0.4l-2.6-0.5c-0.5-0.1-1.1 0.1-1.4 0.3l-2 1.6 -4.7-1.6c-0.1 0-0.4 0-0.6 0l-7.7 1.5L79.9 96c-0.2 0-0.6 0.1-0.8 0.2l-9.3 5.5 -1.9-1.1c-0.2-0.1-0.5-0.2-0.7-0.2l-6.4-0.3c-0.4 0-0.8 0.2-1.1 0.5l-3.7 3.9c-0.1 0.1-0.3 0.4-0.4 0.6l-1.4 4.5c-0.6 0.1-1.2 0.2-1.6 0.3l5.6-25.6c0.1-0.4 0.1-0.9 0-1.3h0l0 0 0-0.1 -1.9-6.5 15.3 1.4 -14.6-7.7 13.6-9.4 -16.3 2.4 5.5-15.6L47.7 59.1 43 43.2l-2.8 16.3 -11.7-8.9 5.8 13.7L19.2 64l13.3 7.7L26 79.5c-0.7 0.5-1.1 1.2-1.2 2l-3.3 23.3 -3 3.9 -3 4.5c0 0.1-3.1 5.4 1.9 10l-0.3 1.3c0 0.1-0.1 0.4 0 0.6l1 8.2c0 0.4 0.2 0.7 0.5 0.9l1.4 1.3 0.6 1c0.2 0.3 0.4 0.5 0.7 0.6l5.9 2.7c0.2 0.1 0.4 0.1 0.8 0.1l3.8-0.5c0.4-0.1 0.7-0.2 0.9-0.5l1.8-2 2.4 0.1 3.9 1.1c0.3 0.1 0.7 0 0.9 0l7.1-2.5c0.5-0.1 0.8-0.5 1-1l1-3.1c0-0.1 0.1-0.5 0.1-0.6l-0.1-1.2 7.2-2.2 0.8 3.8 2 7.3c0 0.1 0.2 0.4 0.3 0.5l1.9 2.4 1.4 4.3c0.1 0.3 0.3 0.6 0.5 0.8l7.6 5.6c0.2 0.2 0.5 0.3 0.9 0.3l7 0.4 1.3 0.3 -1.1 1c-0.1 0.1-0.2 0.2-0.3 0.3l-0.9 1.3 -2.3 0c-0.3 0-0.5 0.1-0.7 0.2l-6.1 3.9c-0.4 0.2-0.6 0.6-0.7 1.1l-0.4 2.3 -2.7 8.5c0 0.1-0.1 0.4-0.1 0.5 0.1 3.7 0.4 5.5 2 5.7 0.2 0.3 0.6 0.7 1 1.4l-2 2.6c-0.3 0.4-0.4 0.9-0.3 1.3 0.1 0.5 0.4 0.9 0.9 1l6.2 2.9c0.3 0.1 0.6 0.1 0.9 0.1l3.7-0.7c0.2 0 0.5-0.2 0.6-0.3L84 183l2.6 0.7c0.5 0.1 1.1 0 1.5-0.4l4.6-4.5c0.5-0.5 0.6-1.3 0.3-1.9l-4.1-7.1 0.6-1.2c0.2-0.5 0.2-1-0.1-1.5l-1.3-2.1 7.4-5.3 0.6 0.3c0.2 0.1 0.5 0.2 0.7 0.2 0.1 0 0.4 0 0.5-0.1l6.3-2c0.1 0 0.2-0.1 0.3-0.2l0.9-0.6 -2.5 3.1c-0.2 0.3-0.3 0.6-0.3 0.9l-0.1 5.1c0 0.4 0.1 0.8 0.4 1.1l-1.5 1.8c-0.2 0.3-0.4 0.7-0.3 1.1l0.6 5.8c0 0.2 0.1 0.5 0.3 0.7l0.5 0.8 -0.3 1.6c-0.1 0.4 0 0.8 0.2 1.1l1.4 2.2 -0.1 2.5c0 0.7 0.4 1.3 1.1 1.5l8.2 2.8c0.1 0 0.2 0.1 0.3 0.1l3.1 0.6 5.6 2.9c0.2 0.1 0.6 0.2 0.8 0.2 0.2 0 0.5-0.1 0.7-0.1l2.6-1.2c0.5-0.3 0.9-0.8 0.9-1.4l0-1.8 1.8 0.2c0.6 0 1.1-0.3 1.4-0.9l0.7-1.5 0.9 0c0.7 0 1.4-0.5 1.5-1.2l0.4-2c0.1-0.6-0.1-1.2-0.6-1.6l-4.5-3.2 -0.2-3.1c0-0.3-0.1-0.7-0.4-0.9l-1.8-2.1c1.6-2.9 0.7-6-0.8-8.2l0.6-2.6c0.1-0.6-0.1-1.2-0.5-1.6l-4.3-3.7c-0.1-2.5-1.8-4.2-3.6-5l-1.5-4.1 -0.4-1.4 5.6-5.1c0.2-0.1 0.4-0.5 0.5-0.7l1.6-4.9 2-3.7c0-0.1 0.1-0.3 0.1-0.5l2.1-12.9 7.7-4.2c0.5 0.2 1 0.2 1.3-0.1 0.7 0.1 1.5 0.1 2.3 0.1 5.5 0 12.1-1.8 13.4-2.1 0.3-0.1 0.6-0.3 0.8-0.5l3.8-4.8 2.3-0.8c0.3-0.1 0.6-0.3 0.8-0.5l4.3-5.5C163.9 99.5 164 99 163.8 98.5z"></path>
  <path d="M93.7 157.9l-9.1-4.8 -3.2 2.9 -1.3 1.8c-0.1 0.2-0.3 0.3-0.5 0.3l-2.8-0.1 -5.8 3.7 -0.4 2.3 -2.7 8.5c0 1.3 0.2 2.9 0.3 3.4 0.7 0.1 1.7 1.2 3 3.3 0.1 0.2 0.1 0.4 0 0.6l-2.2 2.9 5.4 2.5 3.4-0.6 4.9-3.7c0.1-0.1 0.3-0.1 0.5-0.1l3 0.8 4-4 -4.3-7.4c-0.1-0.2-0.1-0.4 0-0.6l0.9-1.6 -1.9-3.1c-0.2-0.3-0.1-0.6 0.2-0.8L93.7 157.9z"></path>
  <path d="M118.5 139.4l1.6-4.9 1.9-3.7 2.2-13.6c0-0.2 0.1-0.3 0.3-0.4l8.3-4.5 -3.4-2.3c-0.1-0.1-0.2-0.2-0.2-0.3l-3-7.3 -2.1-1.3 -0.7 3.6c0 0.1-0.1 0.2-0.1 0.3 0 0-1.9 2.9-2.1 3 -0.2 0.1-0.4 0-0.5-0.1l-10.5-10.5 -2.2-0.4 -2.4 2c-0.1 0.1-0.3 0.1-0.5 0.1l-5.3-1.8L92 98.7l-12.6-0.5 -10 5.9c-0.2 0.1-0.4 0.1-0.6 0l-2.5-1.5 -5.9-0.3 -3.5 3.7 -1.6 4.9c-0.1 0.2-0.2 0.3-0.4 0.4 -2.6 0.5-4.3 0.9-5 1l1.7 8.2c0 0.1 0 0.2 0 0.2l-2.2 7.2 9-2.7c0.2 0 0.3 0 0.5 0 0.1 0.1 0.2 0.2 0.3 0.4l1.2 5.3 2 7.1 2 2.6c0 0 0.1 0.1 0.1 0.2l1.4 4.4 7.4 5.5 7 0.4 4.2 1c0 0 0 0 0 0h0l0 0c0.1 0 0.2 0.1 0.3 0.2l9.9 5.2c0.1 0 0.2 0 0.3 0.1l1.3 0.6 5.8-1.9 2.5-1.7c0.2-0.2 0.5-0.1 0.7 0.1l1.7 1.8c0.2 0.2 0.2 0.5 0 0.7l-3.7 4.6 -0.1 4.7 0.8 0.6c0.1 0.1 0.2 0.2 0.2 0.4 0 0.1 0 0.3-0.1 0.4l-2.3 2.9 0.6 5.4 0.8 1.2c0.1 0.1 0.1 0.3 0.1 0.4l-0.4 2 1.5 2.4c0.1 0.1 0.1 0.2 0.1 0.3l-0.1 2.5 7.9 2.6 3.2 0.6c0.1 0 0.1 0 0.2 0.1l5.6 2.9 2-1 0.1-3.2c0-0.2 0.1-0.3 0.2-0.4 0.1-0.1 0.3-0.2 0.4-0.1l2.9 0.4 1-2c0.1-0.2 0.3-0.3 0.5-0.3l1.4 0 0.2-1.2 -4.8-3.4c-0.1-0.1-0.2-0.3-0.2-0.4l-0.3-3.7 -2.4-2.9c-0.2-0.2-0.2-0.5 0-0.7 2.7-3.6-0.4-7.1-0.5-7.2 -0.1-0.1-0.2-0.3-0.1-0.5l0.7-3 -4.6-4c-0.1-0.1-0.2-0.3-0.2-0.5 0.2-3-2.7-3.9-2.8-3.9 -0.2 0-0.3-0.2-0.4-0.4l-1.8-4.8 -0.7-2.4c-0.1-0.2 0-0.4 0.2-0.6L118.5 139.4zM103.8 142.4l-5.8 1.3 -7.6-0.6 -3 1 -4.5 0.8 -4.5-0.9 -4.2 1.9L72 144l-3.6-1.3 -1.4-7.2 -2.9-3 -1-12.2c0 0 3.7-3.7 5.6-5.1l1-3.4 2.8-7.1 3.9 0.4 1.5 0c0 0 5.9-3.5 15-2.9l1.9-1.5c0 0 5.2-1.4 6.9 1l7.5 9.6 6.5 8.6c0 0 1.5 7.8 1.9 10.5l-0.8 3.4 -1.8 2 -2.4 4.1L103.8 142.4z"></path>
  <path d="M114.2 135.3l1.6-1.8 0.7-2.9c-0.3-2.5-1.5-8.6-1.8-10l-6.3-8.4 -7.4-9.6c-0.6-0.8-1.9-1-2.8-1 -1.1 0-2.2 0.2-2.6 0.3l-1.7 1.4c-0.2 0.2-0.5 0.2-0.7 0.2 0 0 0 0-0.1 0 -0.7 0-1.4-0.1-2-0.1 -7.5 0-12.3 2.8-12.3 2.8 -0.2 0.1-0.4 0.1-0.5 0.1l-1.5 0c0 0 0 0 0 0 0 0-0.1 0-0.1 0l-3-0.3 -2.5 6.3 -1 3.3c-0.1 0.2-0.2 0.5-0.4 0.6 -1.5 1-4.1 3.6-5.1 4.6l1 11.2 2.6 2.7c0.2 0.2 0.3 0.4 0.3 0.6l1.3 6.5 3 1.1c0.1 0 0.2 0.1 0.3 0.2l1.6 1.3 3.5-1.6c0.2-0.1 0.3-0.1 0.5-0.1 0.1 0 0.2 0 0.2 0l4.3 0.9 4.2-0.8 2.9-1c0.1 0 0.2 0 0.4 0 0 0 0.1 0 0.1 0l7.4 0.6 5.7-1.3 8.3-2.2 2.2-3.7C114.1 135.4 114.1 135.3 114.2 135.3zM99.8 107.3c0 0 4.5 6.1 1.3 9.6 0 0-2.2 3.9-9.6 1.7C91.5 118.6 97.3 112.2 99.8 107.3zM73.8 112.9c4.2 3.5 12.2 7 12.2 7 -6 5-9.5 2.3-9.5 2.3C72.2 120.3 73.8 112.9 73.8 112.9zM106.5 130.6l-1.7 1.8 -4 0.3 -4.5 0.7 -2.2-0.3 -1.9 0.9 -4.5 0.7 -5.4 1.4 -1.1 0.8 -6.3-1.1 -1.6-2.2 -0.8-5c0.3 0 4.3 1.7 4.3 1.7l4.3-2.3 16.7-3.3 5 0.7 1.5-1.4 0.3-2.2c0 0 1.2-2.4 1.1-2.1 -0.1 0.2 2.5 6.9 2.5 6.9L106.5 130.6z"></path>
  <path d="M48 128.6C48 128.6 48 128.5 48 128.6l2.5-8.1 -2-9.6 2.8-0.7 5.5-26c0.1-0.4 0-0.9-0.3-1.2 -0.1-0.1-0.2-0.2-0.2-0.2L43 73.4c-0.4-0.3-1-0.3-1.5-0.1l-11.4 6.1 -3.1 1.6c-0.4 0.2-0.7 0.6-0.7 1.1l-3.3 23.5 -3.5 4.3 -2.9 4.5c-0.1 0.1-2.4 4.3 2.2 7.8 0.2 0.1 0.3 0.4 0.2 0.6l-0.5 2.3 1 7.9 1.4 1.4c0 0 0.1 0.1 0.1 0.1l0.7 1 5.5 2.5 3.4-0.4 2.1-2.4c0.1-0.1 0.3-0.2 0.5-0.2l3.3 0.1 4 1.1 6.6-2.3 0.9-2.8 -0.2-2.3C48 128.7 48 128.6 48 128.6zM44.7 117.6l-0.7 0.2c-0.2 0-0.4 0-0.6-0.2l-4-5.5 -2.9 2.3c0 0-0.1 0.1-0.1 0.1l-2.8 1.2 -2.6 0.8c-0.2 0.1-0.5 0-0.6-0.2l-4.6-5.2 -0.5-0.5 -0.3-1.3 3.9-26.1 5.6-3 7.5-4 8.8 6.3 2.9 2 -5.3 26.2 0 0 -2.5 2.9 -0.8 3.6C45.1 117.4 45 117.6 44.7 117.6z"></path>
  <path d="M158.5 91.7l-0.6-4.6 -2.3-1.9 -5-1.2c-0.1 0-0.3-0.1-0.3-0.2l-1.8-2.7c-0.1-0.2-0.1-0.4 0-0.6l0.9-1.4 -2.6-1.8 -4.6 0 -2.3-2.5 0 0c-0.5-0.5-1.2-1.3-2.5-2.6 -1.5-1.5-3.5-3.5-5.4-5.4C128 62.9 124 59 124 59c-0.4-0.4-0.8-0.6-1.4-0.6 0 0-0.1 0-0.1 0l-1.4 0.1 -18.8 1.2c-1 0.1-1.8 0.9-1.8 1.8l-0.4 19.5c0 0 0 0.1 0 0.1 0 0.6 0.3 1.1 0.7 1.4 10.7 7.9 16.6 12.3 26.1 18.9 0.1 0.1 0.2 0.1 0.2 0.2l3 7.3 3.8 2.7c0 0 0.1 0 0.1 0 0.9 0.2 2.1 0.3 3.4 0.3 5.2 0 11.6-1.7 12.7-2l3.9-5c0.1-0.1 0.2-0.1 0.3-0.2l2.6-0.9 4-5.1L158.5 91.7zM142.6 82.6l-1.6 2.1 -0.4 3.1c0 0.1 0 0.2-0.1 0.2l-2.8 3.8c-0.1 0.2-0.4 0.3-0.6 0.2l-2.1-0.5 -2.2 3.9c-0.1 0.1-0.2 0.2-0.3 0.3l-3.9 1.8 -1.3 1.2c-0.1 0.1-0.1 0.4-0.2 0.8 -11.8-8.4-25.1-18.3-25.1-18.3l0.1-2.6 0.4-16.9 15-1 5.1-0.3c0 0 16.2 16.1 15.8 15.8 0 0 0.5 0.5 1.1 1.2h-0.1l-1 1 1.1 1.7 2.9 1.7c0.1 0.1 0.2 0.2 0.3 0.4C142.8 82.3 142.7 82.4 142.6 82.6z"></path>
</svg>