<svg xmlns="http://www.w3.org/2000/svg" xmlns:xlink="http://www.w3.org/1999/xlink" version="1.1" id="swapforce-icon" class="series-icon" x="0" y="0" viewBox="0 0 234 200.1" enable-background="new 0 0 234 200.1" xml:space="preserve"><path d="M230 111.5h-7.2c0.6-4.6 1-6.7 1-11.4C223.8 44.8 179 0 123.7 0 76.2 0 36.5 33.1 26.3 77.5L2 98c-1.8 1.6-2.5 4.1-1.7 6.4 0.8 2.3 3 3.8 5.4 3.8l18.3 0.1c4.1 51.4 47.2 91.9 99.7 91.9 47.8 0 87.7-33.5 97.7-78.3 0-0.2 6.2-5.9 9.2-8.7C231.3 112.5 230.9 111.5 230 111.5z"></path><path class="white-fill" fill="#FFFFFF" d="M120.7 34.7c0.5-1.2 1.2-2.2 2.2-2.9C95 32.1 71 49.2 60.7 73.5h3.2C73.7 51.5 95.3 35.8 120.7 34.7z"></path><path class="white-fill" fill="#FFFFFF" d="M115.6 44.2l2.3-1.1 0.5 0.5c0 0 1.4 1.4 3 1.4 0.3 0 0.4-0.1 0.5-0.2 0.3-0.3 0.3-1 0.3-1.3l-0.1-0.9 4.1-0.6 4.1 0.6 -0.1 0.9c0 0.3 0 1 0.3 1.3 0.1 0.1 0.2 0.2 0.5 0.2 0.3 0 0.8-0.6 1.1-1.1l0.4-0.9 1.9 0.9c-0.1-3-2.9-6.2-4.9-8 0.3 2.3-2.8 1.7-3.6 0.3 -0.9-1.4-0.1-2.9 0.6-4.2 -3.2 0.2-4.6 2.6-4.8 5.2 -0.1 1.2-0.2 2.5-2 2.6 -1.6 0.1-2.2-1-2.8-2 -1.3 0.9-1.9 3.6-1.7 4.9C115.2 43.2 115.4 43.7 115.6 44.2z"></path><path class="white-fill" fill="#FFFFFF" d="M117 68.5l0.3 0.1c4.8 1.6 12.2 1.1 15.5 0.3l3.6-0.9 1.1-1.2 2.9-2.1 -2.2-2.5 -0.2-2.1 -1.7-0.7c-0.7-2.9-2.7-5.4-5.5-6.8l2.3-2.2 1.6-4 -1.5-0.7c-0.5 0.6-1.3 1.4-2.4 1.4 -0.8 0-1.5-0.3-2-0.8 -0.5-0.6-0.7-1.3-0.8-1.8l-2-0.3 -2 0.3c-0.1 0.6-0.3 1.3-0.8 1.9 -0.5 0.5-1.2 0.8-2 0.8 -1.7 0-3.1-0.9-3.9-1.5l-1.7 0.8 1.5 4 2.5 2.3c-2.6 1.4-4.5 3.6-5.3 6.3l-2.4 1 -0.2 2.1 -2.6 2.7 2.7 1.6 0.6 3.6 4.8 0.8C117.2 70 117.1 69.2 117 68.5zM135.3 59.7c0 0 0.9 5.8-4.8 5.4C130.5 65.2 130.3 59.6 135.3 59.7zM124.7 65.4c0 0-6 2.2-6.8-5.3C117.8 60 123.4 59 124.7 65.4z"></path><path class="white-fill" fill="#FFFFFF" d="M58.3 94c-1.1-2.8-1.9-8.3 3.8-14.7H45.8V68.4L5.6 102.6h62.8C64 101.4 59.9 98.1 58.3 94z"></path><path class="white-fill" fill="#FFFFFF" d="M65.2 78.6l9.6 8c0 0-5.1 13.1 5.8 6.8C78.5 111 46.2 96.1 65.2 78.6z"></path><path class="white-fill" fill="#FFFFFF" d="M105.7 66.2L93.3 70C85.1 72.1 88 81.8 88 81.8l-2.7 0.7c-0.2-0.4-0.3-0.8-0.5-1.1 -1.4-2.6-3.7-4.4-6.5-5.3 -0.4-0.1-0.8-0.2-1.2-0.3 0.1-1.3 0.4-2.6 0.7-3.6l8.5 1.6 -3.7-4.7 4.5-4.8 -7.1 0.3 -0.5-6.6 -4.1 7.6 -4.9-0.3 5.5 5.3c-0.5 1.1-1.2 2.9-1.4 5 -2.6 0.1-5 1.2-6.8 2.9l1.4 1.1c1.5-1.3 3.4-2.2 5.4-2.3 0 1 0.1 2.1 0.4 3.2 1.2 1.6 2.6 0.4 2.5-0.3 -0.2-1-0.3-1.9-0.4-2.8 0.3 0.1 0.5 0.1 0.8 0.2 2.3 0.7 4.3 2.3 5.4 4.4 0.1 0.3 0.3 0.5 0.4 0.8 0.8 2 0.9 4.1 0.3 6.2 -0.4 1.3-1.1 2.4-1.9 3.4 0.2 0.3 0.3 0.7 0.3 1.1 -0.4 3.7-2.2 6.5-4.9 8C85 100 94.7 89.6 94.7 89.6 109.8 87.7 105.7 66.2 105.7 66.2z"></path><path class="white-fill" fill="#FFFFFF" d="M143.6 74.7l-11.4 16.9c-0.3 0.5-0.9 0.8-1.4 0.8 -0.3 0-0.7-0.1-1-0.3l-22.2-14.9c-0.4 3-1.4 6.2-3.2 8.8 -0.7 0.9-1.4 1.7-2.3 2.4 0.3 1 0.6 2 1.2 3.1 4.6 9.2 9.3 10.3 12.4 10.3 2.5 0 4.9-0.8 7.3-1.5 2.1-0.7 4-1.3 5.9-1.4 2.3 0.1 4.3 1 6 1.8 1.5 0.7 2.9 1.3 4.2 1.3 0 0 0 0 0 0 1.8 0 4.3-1.2 7.5-10.4C149.4 83.6 145.9 77.6 143.6 74.7z"></path><path fill="#FFFFFF" d="M107.8 75.2l22.9 15.4 11.5-17 0-3.3L130 74.6l-22.1-3.7C108 72.2 108 73.7 107.8 75.2z"></path><path class="white-fill" fill="#FFFFFF" d="M181.9 78.6l-9.6 8c0 0 4.9 13.3-6 7C168.3 111.3 200.8 96.1 181.9 78.6z"></path><path class="white-fill" fill="#FFFFFF" d="M164.5 93.9c-0.1-0.5 0.1-1 0.4-1.4 0 0 0 0 0 0 -0.8-1-1.5-2.1-1.9-3.4 -0.7-2.3-0.5-4.8 0.7-7 1.2-2.2 3.1-3.7 5.4-4.4 0.9-0.3 1.8-0.4 2.6-0.4 2.3 0 4.4 0.9 6.1 2.3l1.4-1.1c-2-1.8-4.6-3-7.4-3 0 0-0.1 0-0.1 0l0 0c0.3-1.8 0-3.3-0.4-4.4l6.3-4 -4.3-0.9L171 58l-1.9 6.3 -6.8-1.9 3.3 5.7 -4.6 3.8 8.3 0.3c0.3 1.1 0.3 2.4 0 3.8 -0.2 0-0.3 0.1-0.5 0.1 -2.8 0.8-5.1 2.7-6.5 5.3 -0.2 0.4-0.4 0.8-0.5 1.2l-2.7-0.7c0 0 3-9.7-5.2-11.8l-8.5-2.9c0 0-0.8 2.2-1.5 5.1 1.9 2 6.8 8 5.3 16.6 0.9 0.4 2 0.7 3.3 0.8 0 0 9 9.7 16.4 11.9C166.4 99.9 164.9 97.3 164.5 93.9z"></path><path class="white-fill" fill="#FFFFFF" d="M85 33.9l1.3-4.6c2.3 0.6 4.6 0.5 6.6-0.4 1.3-0.6 1.8-1.4 1.5-2.2l0-0.1c-0.3-0.7-1.1-0.9-3.7-0.4 -4.1 0.8-7.4 1.1-9-2.7l0-0.1c-1.4-3.4 0.1-7 4.3-8.9 3-1.4 5.6-1.6 8.2-0.9l-0.9 4.7c-2.1-0.4-4.1-0.2-5.6 0.5 -1.2 0.5-1.5 1.3-1.2 2l0 0.1c0.4 0.8 1.1 0.9 3.8 0.4 4.4-0.9 7.4-0.8 8.9 2.6l0 0.1c1.6 3.7-0.3 7.2-4.5 9.1C91.4 34.6 88 34.9 85 33.9z"></path><path class="white-fill" fill="#FFFFFF" d="M97.4 11.2l5.3-1.3 4.8 10.5 2.2-11.4 4.5-0.6 5.1 10.5L121 7.4l5.4-0.1 -3.7 19.4 -4.7 0.4 -5.2-10.3 -2.3 11.4 -4.4 0.9L97.4 11.2z"></path><path class="white-fill" fill="#FFFFFF" d="M138 8.5l5 0.8 4.5 20.7 -5.3-1.4 -0.8-3.6 -7.2-1.2 -1.9 3.1 -5.9-0.6L138 8.5zM140.6 20.8l-1.2-5.7 -3 5L140.6 20.8z"></path><path class="white-fill" fill="#FFFFFF" d="M157.8 13.4l7.4 3.4c4.4 2 6.1 5.6 4.3 9.4l0 0.1c-1.9 4.1-6 4.7-10.3 2.8l-2.4-1.1 -2.3 5.1 -4.8-2.2L157.8 13.4zM160.9 25.3c1.7 0.8 3.1 0.4 3.8-1l0-0.1c0.7-1.5 0-2.7-1.7-3.6l-2.2-1 -2.1 4.6L160.9 25.3z"></path><path class="white-fill" fill="#FFFFFF" d="M77 158.6l12.9 8.1 -2.4 3.9 -8.4-5.3 -1.7 2.7 7.6 4.8 -2.3 3.7 -7.6-4.8 -3.6 5.8 -4.5-2.8L77 158.6z"></path><path class="white-fill" fill="#FFFFFF" d="M87.9 176.4L87.9 176.4c1.6-5.3 7.1-8.2 12.7-6.5 5.6 1.7 8.5 7.2 6.9 12.4l0 0.1c-1.6 5.2-7.1 8.2-12.7 6.5C89.2 187.1 86.3 181.6 87.9 176.4zM102.4 180.8L102.4 180.8c0.8-2.7-0.4-5.5-3.2-6.4 -2.8-0.8-5.3 0.8-6.1 3.5l0 0.1c-0.8 2.6 0.4 5.5 3.2 6.3C99 185.1 101.6 183.4 102.4 180.8z"></path><path class="white-fill" fill="#FFFFFF" d="M112.2 173.2l9 0.2c2.9 0.1 4.9 0.9 6.1 2.2 1.1 1.1 1.6 2.6 1.6 4.5l0 0.1c-0.1 2.9-1.7 4.8-4.1 5.7l4.4 6.7 -6.1-0.2 -3.7-5.9h-0.1l-2.3-0.1 -0.1 5.8 -5.3-0.1L112.2 173.2zM120.7 182.6c1.8 0 2.8-0.8 2.9-2.2v-0.1c0-1.5-1-2.3-2.8-2.3l-3.4-0.1 -0.1 4.6L120.7 182.6z"></path><path class="white-fill" fill="#FFFFFF" d="M132.4 182.9L132.4 182.9c-1.2-5.5 2-10.6 7.6-11.9 3.8-0.9 6.6 0.2 8.7 2.1l-3.2 3.9c-1.4-1.1-2.8-1.7-4.5-1.2 -2.6 0.6-3.9 3.2-3.3 5.9l0 0.1c0.6 2.8 3 4.5 5.5 3.9 1.9-0.4 2.9-1.6 3.7-3.2l4.5 1.9c-1.2 2.8-3.2 5.1-7.3 6C138.8 191.5 133.6 188.4 132.4 182.9z"></path><path class="white-fill" fill="#FFFFFF" d="M149.9 168.6l13.7-6.9 2 4 -9 4.5 1.3 2.6 8.2-4.1 1.9 3.7 -8.2 4.1 1.4 2.7 9.1-4.6 2 4 -13.8 7L149.9 168.6z"></path><path class="white-fill" fill="#FFFFFF" d="M229.7 108.3L229.7 108.3l-38.4 0c0.3-2.7 0.5-5.5 0.5-8.3 0-36.2-28.3-65.9-64-68.1 0 0 0 0.1 0 0.1 0 0.3-0.1 0.6-0.2 0.8 -0.5 0.9-0.7 1.4-0.7 1.9 0.5 0 1.1 0.1 1.6 0.1 0.1-0.1 0.2-0.1 0.3-0.2 0.2-0.1 0.5-0.2 0.7-0.2 0.3 0 0.7 0.1 0.9 0.3 0.1 0.1 0.1 0.1 0.2 0.2 26.2 2.8 47.7 21.1 55.4 45.5 4.6 5.8 3.8 10.8 2.7 13.5 0 0 0 0 0 0 0.2 2 0.3 4 0.3 6 0 2.8-0.2 5.5-0.5 8.2l0.1 0 -45.9 0v-4.1c0-0.2-0.1-0.4-0.3-0.5 -0.2-0.1-0.4-0.1-0.6-0.1 -2.2 0.9-4.2 1.6-6.1 2.2 0-0.3-0.2-0.5-0.4-0.7 -0.2-0.2-0.6-0.2-0.9-0.1 -4.2 1.6-8.3 1.8-13.6 0.6 -0.3-0.1-0.6 0-0.8 0.2 -0.2 0.2-0.3 0.4-0.3 0.7v0.1c-2.7-0.6-5.6-1.6-8.9-3 -0.2-0.1-0.4-0.1-0.6 0.1 -0.2 0.1-0.3 0.3-0.3 0.5v4.1H55.9c4.1 33.8 32.9 60 67.8 60 22.7 0 42.9-11.2 55.3-28.3h6.2v6.6c0 1.7 1 3.2 2.5 3.9 0.6 0.3 1.2 0.4 1.8 0.4 1 0 2-0.3 2.8-1l40.1-33.9c1-0.8 1.6-2 1.6-3.4C234 110.2 232.1 108.3 229.7 108.3zM135.7 107.1c1.8-0.5 3.7-1.2 5.7-2v3.2 4.4c-2 0.8-3.9 1.5-5.7 2.1V107.1zM121.6 113.5l1.9 0.2c0.6 0.1 1.1-0.6 1.1-1.5 0-0.9-0.5-1.7-1.1-1.8l-1.9-0.2v-2.6c4.6 0.9 8.4 0.8 12.3-0.4v8.2c-3.8 1.3-7.6 1.5-12.3 0.5V113.5zM111.1 108.3v-3.2c3.2 1.3 6 2.2 8.6 2.7v2.2l-0.6-0.1c-0.6-0.1-1.1 0.6-1.1 1.5 0 0.9 0.5 1.7 1.1 1.8l0.6 0.1v2.2c-1.3-0.3-2.6-0.7-4-1.1 -1.4-0.5-3-1-4.6-1.7V108.3zM130 159.3c-17.4 8.9-34.1-1.5-21.1-13.1 3.5-3.1 9.6-4.8 7.6-1.1 -8.8 16.2 19.6 3.2 10.4-7.4 -3.9-4.5-20 4.6-25 7.2 -5 2.7-17.4 5.9-23.6-2.9 -6.2-8.7 4.2-14.8 11-17.1 7.4-2.5 7.2 1.1 1 5.9 -6.1 4.7-0.5 10.6 13.4 0.6 -3.2-3.6-2.5-4.8-3.5-9.6 -1.1-5.1-8.8-2.5-13.6-0.9 -3.4 1.1-8.5-0.4 1.7-5.5 17.4-8.8 23.6 5.6 23.6 5.6l2.6-5.7c1.8 0.6 3.5 1.1 5.1 1.5 0 0.4 0.3 0.8 0.7 0.8 2.4 0.5 4.6 0.8 6.7 0.8 2.8 0 5.4-0.5 8-1.4 0.4-0.1 0.6-0.5 0.6-0.9V116c1.2-0.4 2.5-0.8 3.9-1.3 0.4 2.8 1.7 9.7 5.7 13.5 5.6 5.3 22.7-0.8 6.6-10.6 -4.4-2.7 0.3-4.6 4.6-3.7 11.1 2.3 29.6 23.8-11.6 27.8C144.8 141.6 147.5 150.4 130 159.3zM189.5 146.6v-10.9h-10.4 -10.9c2.5-2.3 3.4-4.7 3.5-6.9 0.4-7.6-8-14.5-14.2-16.2h2.5 28.3 41.4L189.5 146.6z"></path></svg>