<svg version="1.1" id="earth-icon" class="element-svg" xmlns="http://www.w3.org/2000/svg" xmlns:xlink="http://www.w3.org/1999/xlink" x="0px" y="0px" viewBox="0 0 92.1 91.4" enable-background="new 0 0 92.1 91.4" xml:space="preserve">
	<g>
		<path d="M91.8,40.9c-0.6-0.4-1.2-0.9-1.6-1.7c-1.2-2-1.6-5.9-1.5-6.9c0.3-0.4,0.7-0.8,1-1.1
			c-1.1-3.4-2.7-6.6-4.6-9.7c-0.2,0.3-0.5,0.6-1,0.3c-1.4-0.9-1.2-1.8-0.6-2.7c-1.3-1.8-2.7-3.5-4.3-5.2c-1.5-0.4-2.9-0.8-4.1-1.5
			c-1.4-0.9-5.1-4.1-6.2-6.5c-4.4-2.5-9.1-4.3-14-5.2c-0.9,0.3-1.9,0.5-3.3,0.3c-1.8-0.2-2.9-0.6-4-1.2c-5.2-0.2-10.4,0.5-15.3,2.1
			c-1,0.9-1.8,2-3.4,2.1c-0.6,0.1-1.1-0.1-1.6-0.3c-5,2.2-9.7,5.4-13.8,9.5c-1.1,1.1-2.1,2.2-3,3.3c0.2,0.5,0.1,1.1-0.9,2
			c-0.1-0.1-0.3-0.3-0.4-0.4c-1.3,1.8-2.5,3.6-3.5,5.5c0.2,1.5,0.7,3.1-1.5,3.7c-0.1,0.9-0.5,1.7-1.2,2.3c-1.2,3.2-2,6.6-2.5,10
			c0.2,0.3,0.3,0.6,0.5,1c0.6,2,0.1,3.9-0.9,5.7c0.1,6.9,1.7,13.7,4.8,20c2.7,1.9,6.2,6.8,7.4,8.4c1.1,1.4,1.2,2.7,1.5,4
			c6.8,6.7,15.3,10.9,24.1,12.5c0.2-0.2,0.5-0.4,0.8-0.6c1.3-0.6,1.6-0.4,2.1-0.2c0.3,0.2,0.7,0.3,1.6,0.2c2.7-0.4,4.3-0.9,7.1-0.4
			c2.7,0.5,4.9,0.7,7.7,0.3c0.1,0,0.3,0,0.4-0.1c3.4-0.9,6.6-2.1,9.8-3.7c0.2-0.6,0.4-1.3,1-2c1.6-2,3.1-1.4,5-1.7
			c1.9-1.4,3.7-2.9,5.4-4.6c3.8-3.8,6.7-8,8.9-12.6c0.4-2.5,0.8-4.9,2.6-6.7C91.9,53.4,92.5,47.1,91.8,40.9z M75.8,75.8
			c-16.4,16.4-43.1,16.4-59.6,0c-16.4-16.4-16.4-43.1,0-59.6c16.4-16.4,43.1-16.4,59.6,0C92.3,32.7,92.3,59.4,75.8,75.8z M64.9,30.3
			l-2.4,3.4l-9.9-17.2l-2.4,1.9l-4.7-9l-6.4,12.1L28.3,40.6l-3.3-6.1l-8.8,14.5c0,0-5.4,13.3-6,15.1h0l0,0l0,0.1h0.2
			c1,0.8,5.9,4,5.9,4l8.8,4l3.3-1.7L39.1,76l6.4,3.3l4.7-2.5l2.4,0.5l9.9-4.7l2.4,0.9l8.1-4.9l8.9-4.4v0L73,48L64.9,30.3z M25,44.8
			l-0.8,4.5l-2.9-2.9l3.8-5.8L34,54.2L25,44.8z M51.1,28.4l-3.2,3.2l-3.2-6.4L31.3,42.9l14.2-28.1l1.1,3.5L45.8,19l3.7,6.1l2.4-2.6
			l5.8,9.7L51.1,28.4z"></path>
	</g>
</svg>