<svg version="1.1" id="giant-icon" class="series-icon" xmlns="http://www.w3.org/2000/svg" xmlns:xlink="http://www.w3.org/1999/xlink" x="0px" y="0px" viewBox="0 0 198.9 175.4" enable-background="new 0 0 198.9 175.4" xml:space="preserve">
<g>
	<path class="white-fill" fill="#FFFFFF" d="M97.2,175.4c-27.6,0-53.6-13-70.2-34.9c-4.4-1.7-7.3-5.1-7.9-9.7c-0.1-0.4-0.1-0.8-0.1-1.2
		c-0.6-0.3-1.1-0.6-1.6-1c-1.6-1.2-2.6-2.6-3.3-4c-1.6-0.4-3.2-1-4.7-2c-6.7-4.5-9.1-18.2-9.2-18.3c-1.1-6.6,2.6-12.7,9-15
		c0.1,0,0.1,0,0.2-0.1c0-0.5,0-1,0-1.5C9.3,39.3,48.7,0,97.2,0c18.9,0,37.3,6.1,52.3,17.3c2.2-1.6,4.7-2.4,7.5-2.4
		c2.4,0,4.9,0.6,7.4,1.9c12.9,6.4,19.4,21.6,14.6,34.6c-0.3,0.7-0.6,1.5-0.9,2.2c4.1,9.6,6.4,19.7,6.8,30.1c2.1,2.9,6,9.7,6,9.7
		l0.9,9.6c4.8,3.8,7.4,9.2,7.1,14.9c-0.4,7.3-3.1,14-7.5,18.7c-1.4,1.5-7.3,6.4-13.6,5.3c0,0-2.4,3.8-5.1,5.3
		c-5.1,2.9-12,1.3-12,1.3c-3.1,3.6-11.1,9.8-11.1,9.8C134.3,169.4,116.2,175.4,97.2,175.4z"></path>
	<path d="M178.4,87.8c0,44.9-36.4,81.2-81.2,81.2c-44.8,0-81.2-36.3-81.2-81.2c0-44.9,36.4-81.2,81.2-81.2
		C142,6.6,178.4,42.9,178.4,87.8z M169.5,87.9c0-39.8-32.4-72.1-72.1-72.1c-39.8,0-72.1,32.4-72.1,72.1c0,39.8,32.4,72.1,72.1,72.1
		C137.2,160,169.5,127.7,169.5,87.9z"></path>
	<g>
		<path class="white-fill" fill="#FFFFFF" d="M186.5,106.1l-0.9-10.5l0-0.3c0-0.2-0.1-0.3-0.1-0.5l-0.1-0.2c-6.3-11.7-18.2-23-19.6-24.2l-0.2-0.2
			c-0.1-0.1-0.3-0.2-0.4-0.2l-0.3-0.1c-1.9-0.6-3.6-0.1-4.7,1.1c-0.3,0.3-0.5,0.7-0.7,1.1c-1-0.8-1.9-1.5-2.4-2l3.3-4.9
			c0.1-0.2,0.2-0.4,0.2-0.6v-0.4c0-0.4,0-0.9-0.1-1.3c6.7-3.1,11.3-7.7,13.4-13.4c3.8-10.4-1.4-22.6-11.9-27.8
			c-4.4-2.2-8.3-1.5-10.7,1.6c-3.1,4-3.4,11.5-2,16.8c0.2,0.8,0.9,1.4,1.7,1.5c0.3,0.1,0.7,0.1,1,0.2l5,7.4
			c-1.1,0.7-4.5,2.7-11.7,4.7c-2-0.3-3.4-0.3-3.5-0.3l-0.4,0c-0.2,0-0.4,0-0.6,0.1l-2.3,1.2c-3.4-2.1-11.7-6.1-25.8-6.8
			c-1.5-0.7-8.3-4-9.6-7.8c-0.3-0.9-0.2-1.8,0.3-2.7c0,0,0.1-0.2,0.1-0.3c0.1-0.2,2.1-4.9,9.4-4.9c0.2,0,0.4,0,0.8,0
			c0.4,0,0.9-0.1,1.2-0.4c0.9-0.7,8.7-6.7,9.5-13.1c0.3-2.3-0.3-4.3-1.8-6.1c-0.3-0.3-0.6-0.5-1-0.7c-1.4-0.4-18.5-4.8-30.1,10.4
			c-0.8,0.7-4.6,4.5-4.8,11.2c0,2.6,0.4,5.2,1.5,7.9l-1.9-2.2c-0.4-0.4-1-0.5-1.4-0.2l-2.5,1.4l-1.1-2.5l1.2-9.8
			c0-0.4-0.1-0.7-0.3-1c-0.3-0.3-0.6-0.4-1-0.3L75.3,28c-1-0.4-2.9-1.2-5.3-1.8c-3.2-3.6-7-4.5-7.4-4.6c-0.5-0.1-1.1-0.1-1.6,0
			c-4.4,0.7-7.4,3.8-9.2,6.4c-0.9,0.6-1.7,1.2-2.5,1.9h-6.4c-0.3,0-0.6,0.1-0.8,0.4c-0.2,0.2-0.3,0.6-0.3,0.9l0.8,8.4l-3.4,6.1
			c-0.1,0.3-0.2,0.6-0.1,0.9l1.6,6.2l-1.8,3.2c-0.1,0.2-0.2,0.4-0.2,0.7l0.4,5.7c0,0.3,0.2,0.6,0.4,0.8l1.9,1.5l-0.4,1.2
			c-0.1,0.3-0.1,0.7,0.2,1l3.1,4.3v2.5c0,0.2,0.1,0.4,0.2,0.6l5,8.9c0.2,0.3,0.4,0.5,0.7,0.5l4.6,1.1c1.6,1.1,7.5,5.1,14.9,5.1
			c3.2,0,6.3-0.7,8.9-2.2c0.1,0,1.1-0.3,7-0.7l-3,7.5c-0.4-1-1.1-2-2-2.7c-3.7-3-7.7-3.2-10.9-0.7c-2.3,1.9-12.3,12.7-12.4,12.8
			l-0.6,0.6c-0.2,0.2-0.3,0.4-0.3,0.7c-0.1-1.4-0.4-2.6-1.1-3.8c-0.9-1.6-1.9-3.6-5.3-6.2c-2.2-1.7-3.3-2.3-4.6-2.3
			c-1.3,0-2.5,0.7-3.1,1.9c-0.9,1.9,0.1,3.6,1.1,4.9c0,0,0.1,0.2,0.2,0.2c0,0,0.2,0.3,0.6,1.4c-2.4-1.2-4.8-1.5-7.1-0.9l-1.4,0.3
			c-0.2-1.7-0.7-3.3-1.5-4.2c-0.7-0.8-1.7-1.2-2.7-1.2c-0.9,0-2.5,0.3-3.6,2.7l-0.1,0.4c-0.1,0.1-0.1,0.6-0.1,0.7
			c0,0-0.2,1.4-1.7,4.9c-0.3,0.8-0.7,1.9-1,3.1c-0.4-0.3-0.8-0.6-1.2-0.9c-1.8-5.4-3.4-8.7-4.6-9.9c-2.1-2.1-5.4-2.6-8.4-1.5
			c-3.2,1.2-6.1,4.3-5.4,8.9c0.3,1.9,2.8,12,6.8,14.7c1.7,1.2,3.9,1.5,5.7,1.6c0.3,1.7,0.9,3.4,2.4,4.5c0.7,0.5,1.8,1.1,4.4,1.2
			c0.4,0,0.7,0.7,0.5,0.9c-0.9,1.2-1.1,2.3-0.9,3.6c0.2,1.7,1.5,5.4,7.6,6c0.1,0.6,0.3,1.1,0.6,1.6c1.3,2.3,4.3,3.1,6.5,3.1
			c2.9,0,5-1.3,5.6-3.4c0-0.1,0.1-0.2,0.1-0.3c0.6,0.8,1.3,1.4,2.1,1.8c0.9,0.4,1.9,0.6,3,0.6c3,0,6.3-1.8,6.6-4.8
			c0.1-1-0.2-2.8-0.8-4.4c1-2.1,1.5-4.6,1.6-7.4c3.3-0.3,4.9-2.2,6.5-4.1c0.2-0.3,0.5-0.5,0.6-0.8c1.5,0,3-0.4,4.7-1.3l1.2-0.6
			c0.4-0.2,0.6-0.6,0.6-1V114l2.1-2.1c2.9-2.9,7.1-7.2,7.9-8c0.8-0.9,1.7-2.4,2.1-4.3c0.4,0.8,1,1.7,1.7,2.7
			c-6.4,6.6-19.7,22.7-20,42.3c0,1,0.4,1.9,1.2,2.5c0.2,0.2,5.5,3.9,13.6,3.9c5.7,0,11.3-1.8,16.8-5.3c1.2-0.8,1.7-2.3,1.2-3.7
			c-0.1-0.3-2.6-7,0.3-12.3c1.6-3,4.6-5.1,9-6.3c4.9,1.2,8.4,3.5,10.3,6.9c3.5,6.2,0.6,14.6,0.5,15c-0.5,1.4,0,2.9,1.3,3.7
			c6.1,3.4,12.3,5.2,18.5,5.2c8.8,0,14.4-3.4,15-3.8c0.4-0.3,0.8-0.6,1-1.1c0,0.1,0,0.2,0,0.2l5.4-6.3c1.1,0.5,2.3,0.7,3.7,0.7
			c3.8,0,7.8-1.8,7.8-1.8l0.3-0.1c0.2-0.1,0.4-0.2,0.5-0.4l4-5.7c0.3-0.4,0.5-0.4,0.5-0.4c0.2,0,0.7,0.2,1.1,0.3
			c0.7,0.3,1.5,0.6,2.6,0.7c3.5,0.3,6-1.7,7.9-3.7c3.5-3.7,5.7-9.2,6-15.2C193.7,111.3,188.8,107.5,186.5,106.1z"></path>
	</g>
	<g>
		<path d="M184.3,107.6l-1.1-11.8c-6.4-11.8-19.1-23.6-19.1-23.6c-0.2-0.1-0.3-0.1-0.5-0.1c0,0,0,0-0.1,0c-0.1,0-0.3,0-0.4,0
			c-0.3,0-0.6,0.1-0.8,0.2c-0.1,0.1-0.2,0.1-0.3,0.2c-0.1,0.1-0.2,0.2-0.3,0.3c0,0,0,0,0,0c-0.3,0.4-0.4,0.9-0.5,1.4
			c-0.2,1.1,0,2.1,0,2.1c-4.9-3-7.4-5.9-7.4-5.9l4-5.9l-3.3-0.5c-5,1.5-9.6,2-12.1,2.1l2.4,3.5c0.2,0.3,0.2,0.6,0.1,0.9
			c-0.1,0.3-0.3,0.6-0.6,0.7l-2.9,1.2l1.1,3.3c0.1,0.3,0.1,0.6-0.1,0.9l-3.7,6.2c-0.2,0.3-0.5,0.5-0.9,0.5c-5.6,0.3-7.4,3-7.5,3.1
			c-2.4,3.2-9.2,4-10,4.1c-0.7,0-1.3,0.1-2,0.1c-10.3,0-11.5-5.5-11.7-6.7c-1.6-3.2-5.1-3.5-5.3-3.5c-0.5,0-0.9-0.4-1-0.8l-2.2-9.2
			c-0.1-0.3,0-0.7,0.2-1l2-2.2l-2.3-2.6c-0.2-0.2-0.3-0.5-0.3-0.8c0-0.3,0.2-0.6,0.4-0.7l4.5-3.6c-1.3-1.2-2.5-2.4-3.6-3.5l-2.3-0.3
			L85.2,41.9l-3.9,2.2l-2.5-5.5l1.1-8.8L75,30.4c0,0-2.6-1.3-6.3-2.2c-2.8-3.5-6.4-4.3-6.5-4.3c-0.1,0-0.3,0-0.4,0
			c-0.1,0-0.2,0-0.3,0c-3.8,0.6-6.4,3.5-7.9,5.8c-1.1,0.7-2.2,1.5-3.2,2.6h-6L45,40l-3.5,6.3l1.8,6.6l-2.1,3.7l0.3,4.8l2.8,2.2
			l-0.7,2.2l3.2,4.4v2.9l4.6,8.1l4.6,1.1c0,0,6.1,4.9,13.8,4.9c2.5,0,5.3-0.5,8-2c0.8-0.4,6.6-0.8,11.5-1.1l-0.7,1.8l-4.2,10.7
			c0,0,0.9,2.5,3.6,5.8c-4.5,4.4-20.5,21.3-20.8,42.2c0,0.2,0.1,0.4,0.3,0.5c0.2,0.1,4.8,3.5,12.2,3.5c5.2,0,10.4-1.6,15.5-4.9
			c0.2-0.2,0.3-0.5,0.2-0.8c0-0.1-3-7.9,0.4-14.4c2-3.7,5.7-6.3,11.1-7.6c5.9,1.4,10.1,4.1,12.4,8.2c4.1,7.4,0.6,16.9,0.6,17
			c-0.1,0.3,0,0.6,0.3,0.8c5.7,3.2,11.5,4.9,17.3,4.9c8.2,0,13.4-3.3,13.7-3.4c0.2-0.1,0.3-0.3,0.3-0.5
			c-0.2-14.4-8.9-28.1-15.8-36.8c4.1-2.1,7.7-4.9,9.5-8.8l-1-8.2c2.3,0,3.5-0.1,3.5-0.1c-0.7,3.7,4.9,9.6,4.9,9.6l2.5,9.6
			c2.1,5.2-0.3,10.7-0.3,10.7c-4.9,7.4,4.6,16.9,4.6,16.9c1,0.6,2.2,0.8,3.4,0.8c3.3,0,6.8-1.6,6.8-1.6l3.9-5.5
			c0.9-1,1.6-1.3,2.4-1.3c1.2,0,2.5,0.9,3.9,1.1c0.2,0,0.4,0,0.5,0c2.2,0,3.9-1.4,5.4-3c3.4-3.6,5.1-8.7,5.4-13.7
			C191.3,110.9,184.3,107.6,184.3,107.6z M53.6,33.6c0,0,2.7-6.8,8.1-7.7c0,0,5.3,1.1,7.5,7.4C69.2,33.3,61.7,38,53.6,33.6z
			 M53.5,58c-1.2,3.7-2.2,5.4-4.4,4.6c-2.2-0.8-2.9-4.4-1.7-8.1c1.2-3.7,4-6,6.2-5.2C55.7,50,54.7,54.3,53.5,58z M62.2,55.5
			c-2.4,0-4.4-2.1-4.4-4.6c0-2.5,2-4.6,4.4-4.6c2.4,0,2.4,2.5,2.4,5C64.6,53.8,64.6,55.5,62.2,55.5z M69.1,49.7
			c1-2.9,3.5-4.7,5.7-3.9c2.2,0.8,3.2,3.8,2.2,6.7c-1,2.9-2.7,2.9-4.9,2.1C70,53.8,68.2,52.6,69.1,49.7z M82.4,76.9
			c-1.7,1.6-5.5,0.1-8.4-3.3c-2.9-3.4-2.3-6.1-0.6-7.7c1.7-1.6,3.9-1.6,6.8,1.9C83.1,71.2,84.1,75.3,82.4,76.9z M133.6,109.3
			c-0.1,0.1-0.2,0.2-0.4,0.2c-0.1,0-0.3-0.1-0.4-0.2c-7-7.2-19.4-14.4-38.7-8.4c-0.8,0.3-1.1,0.3-1.3,0.3c-0.3,0-0.5-0.2-0.5-0.5
			c0-0.3,0.2-0.5,0.5-0.5c0.1,0,0.6-0.2,1-0.3c19.8-6.2,32.6,1.3,39.8,8.6C133.8,108.7,133.8,109.1,133.6,109.3z M180.3,130.5
			c-1.9-0.9-1.9-5.2,0-9.5c1.9-4.3,5.1-7.1,7-6.2c1.9,0.9,1.9,5.2,0,9.5C185.4,128.7,182.2,131.4,180.3,130.5z"></path>
		<path d="M104.4,59.4l-5.5,4.4l3,3.3l-2.6,2.9l2.2,9.2c0,0,4.4,0.3,6.3,4.3c0,0,0.2,6.7,12.5,5.9c0,0,7-0.7,9.2-3.7
			c0,0,2-3.2,8.3-3.6l3.7-6.2l-1.4-4.3l3.8-1.6l-3.5-5.1c0,0,5.2,0,11.4-1.6c7.6-1.9,16.8-5.9,20.1-14.8c3.6-9.8-1.8-20.7-10.8-25.2
			c-0.9-0.5-1.8-0.8-2.6-0.9c-0.4-0.1-0.8-0.1-1.1-0.1c-0.1,0-0.3,0-0.4,0c0,0,0,0,0,0c-0.1,0-0.2,0-0.3,0c-0.3,0-0.5,0.1-0.8,0.1
			c-1.3,0.3-2.3,1-3.1,2c-0.7,0.9-1.2,2.1-1.6,3.4c-0.1,0.5-0.3,1.1-0.4,1.6c0,0.2-0.1,0.5-0.1,0.8c0,0.3-0.1,0.5-0.1,0.8
			c-0.1,0.6-0.1,1.2-0.1,1.7c0,0.7,0,1.4,0,2.1c0.1,1.6,0.3,3.1,0.7,4.4c0,0,12.5,2.2,7.4,11c0,0-4.8,4.1-19.9,7
			c0,0-8.5-6.6-26.5-7.4c0,0-14.7-6.3-10.7-13.6c0,0,0.1-0.2,0.3-0.6c0.1-0.1,0.2-0.3,0.3-0.5c0-0.1,0.1-0.2,0.2-0.2
			c0.1-0.1,0.1-0.2,0.2-0.2c0.5-0.7,1.3-1.5,2.3-2.3c0,0,0,0,0,0c0.3-0.2,0.5-0.4,0.8-0.5c0.3-0.2,0.7-0.4,1-0.6
			c1-0.5,2.3-0.9,3.8-1.1c0,0,0,0,0,0c0.5-0.1,1-0.1,1.5-0.2c0,0,0,0,0,0c0.5,0,1.1,0,1.7,0c0,0,12.9-9.5,7.4-16.2
			c0,0-0.2-0.1-0.6-0.2c-0.1,0-0.2,0-0.2-0.1c-0.2-0.1-0.5-0.1-0.8-0.2c-0.6-0.1-1.3-0.2-2.2-0.3c-0.5,0-1-0.1-1.5-0.1
			c-0.3,0-0.5,0-0.8,0c-0.4,0-0.9,0-1.3,0c-0.4,0-0.9,0-1.3,0.1c-0.3,0-0.6,0.1-1,0.1c-0.4,0-0.8,0.1-1.1,0.2
			c-0.6,0.1-1.2,0.2-1.8,0.3c-1.5,0.3-3.1,0.8-4.7,1.5c-0.2,0.1-0.5,0.2-0.7,0.3c-1.7,0.8-3.5,1.9-5.2,3.4c-0.7,0.6-1.4,1.2-2.1,1.9
			C94.7,22,93.8,23,93,24c0,0-13.3,11,7.9,32C102,57.2,103.2,58.3,104.4,59.4z M115,64.3c-1.1,1.9-6.3,1.9-6.3,1.9
			c-5.1-2-1.8-5.2-1.8-5.2l2,0.6l1.2,3.1l1.2-1.8L115,64.3z M129.2,77.8l-2.1-3.4l-2.8,2.3l-12-1.3l-2.4-3.5l-2.8,2.8l-2.3-5.4
			l28.8,5.3L129.2,77.8z M132.3,70.1c0,0-4.4,0.1-6.4-3.7l2.7-0.1l0.6,2.3l2.5-2.7l3.7,0.3C135.2,66.3,136.2,69.2,132.3,70.1z"></path>
	</g>
	<g>
		<path d="M79.3,93.4c-0.3-0.3-0.7-0.5-1-0.7c0,0-0.1,0-0.1-0.1c-0.3-0.2-0.6-0.4-0.9-0.5c-0.1,0-0.1,0-0.2-0.1
			c-0.3-0.1-0.6-0.2-0.9-0.3c-0.1,0-0.1,0-0.2,0c-0.3-0.1-0.6-0.1-0.9-0.2c-0.1,0-0.1,0-0.2,0c-0.2,0-0.4,0-0.6,0
			c-0.1,0-0.3,0-0.4,0c-0.2,0-0.4,0.1-0.6,0.1c-0.1,0-0.2,0.1-0.4,0.1c0,0,0,0,0,0c-0.2,0.1-0.4,0.2-0.6,0.3c-0.1,0-0.2,0.1-0.3,0.1
			c-0.3,0.2-0.6,0.4-0.9,0.6C69,94.5,59.4,105,59,105.4l-0.3,0.3l0,0.4c0,1.2,0.1,4.2,0.9,6.5c-0.7,1.4-1.6,2.8-2,3
			c0,0-0.3,0.1-1.6,0.1c-0.7,0-1.5,0-2.2-0.1c-0.3-0.7-0.6-1.4-1-2.1c0-0.1-0.1-0.2-0.1-0.2c-0.1,0.9-0.6,1.7-1.4,2.1
			c-1.4,0.7-3,0-3.7-1.5c-0.7-1.5-0.2-3.2,1.1-3.9c1.4-0.7,3,0,3.7,1.5c0.2,0.4,0.3,0.7,0.3,1.1c0-0.2,0-0.5-0.1-0.7
			c2-3.9,2.3-7,0.9-9.5c-0.8-1.6-1.7-3.2-4.7-5.5c-2.2-1.7-2.8-1.8-3.2-1.8c-0.5,0-0.9,0.3-1.1,0.6c-0.2,0.4-0.3,1.1,0.8,2.6
			l0.1,0.1c0.2,0.2,0.8,1,1.7,4.7c0.1,0.5-0.3,1.2-0.9,2c-2.1-1.8-4.4-2.9-6.8-2.9c-0.6,0-1.2,0.1-1.7,0.2l-1,0.2l0.2,1
			c0,0,0.6,2.8-2.8,5.7c-0.3-0.7-0.5-1.4-0.4-2.1c0.3-2.5,0.1-8-1.1-9.3c-0.3-0.3-0.6-0.5-1-0.5c-1,0-1.4,1-1.6,1.3L30,99l0,0.2
			c0,0-0.1,1.5-1.8,5.6c-1,2.4-2.4,7-0.6,10.6c0.5,1,1.3,1.9,2.2,2.5c0,0.3,0,0.7,0,1c-2.5-0.1-4.8-0.6-5.3-0.9
			c-0.2-0.2-0.4-0.7-0.5-1.4c0.2-0.1,0.3-0.3,0.4-0.5c0.6-0.9,1.5-3.1,0.8-5.3c-0.3-1-1.1-2.3-3-3.2c-0.7-2.1-2.9-8.5-4.3-9.9
			c-1-0.9-2.3-1.5-3.8-1.5c-0.8,0-1.6,0.1-2.4,0.4c-2.4,0.8-4.5,3.2-3.9,6.5c0.5,2.9,3,11.3,5.9,13.3c1.7,1.2,4.4,1.3,5.5,1.3
			c0.2,0,0.5,0,0.9,0c0,0.2,0.1,0.4,0.1,0.6c0.3,1.7,0.5,3.4,1.8,4.3c0.5,0.4,1.6,0.8,5.2,0.8c1.1,0,2.2,0,3.1-0.1
			c0.1,0.7,0.2,1.4,0.3,2c0.1,0,0.2-0.1,0.3-0.1c0.2,0,0.4,0,0.6,0c0.9,0,1.6,0.3,2.5,0.7c1,0.4,2.1,0.9,3.9,1.2
			c0.7,0.1,1.4,0.2,2,0.2c1.3,0,2.3-0.3,2.9-0.8c-3.1,0.1-5.9-0.7-7.5-1.8c-1.8-1.2-2.5-3.4-2.5-3.4c9.3-2.4,19-2.5,19-2.5
			s0.7,2.3-0.6,4.1c-0.6,0.7-1.3,1.4-2.2,2c0,0.9-0.1,1.9-0.5,2.9c-0.6,1.8-2.2,4.1-6.1,5.1c-3.2,0.8-6,1.2-8.3,1.3
			c0,0.9,0.1,1.8,0.5,2.5c0.9,1.5,3,2.1,4.6,2.1c1.9,0,3.2-0.7,3.5-1.9c0.2-0.7,0.3-1.5,0.4-2.2c0.9-0.1,1.8-0.2,2.7-0.4
			c0.4,1.1,1.1,2.2,2.2,2.7c0.6,0.3,1.3,0.4,2,0.4c2,0,4.3-1.1,4.4-2.8c0.1-0.7-0.3-2.7-1-4.4h0c1.3-2.2,2-5.7,1.7-9.4
			c0.4,0,0.8,0.1,1.2,0.1c3.1,0,4.3-1.3,6-3.4c0.5-0.6,0.9-1.2,1.2-1.7c0.3,0.1,0.7,0.1,1,0.1c1.1,0,2.4-0.3,3.7-1l0.6-0.3v-1.7
			c1.7-1.7,9.6-9.7,10.6-10.7c0.9-0.9,1.8-3,1.7-5.1C81,95.6,80.4,94.3,79.3,93.4z M13.1,102.3c-2.1,1-4.1,0.8-4.4-0.5
			c-0.3-1.3,1.1-3.1,3.2-4c2.1-1,4.1-0.8,4.4,0.5C16.7,99.5,15.3,101.3,13.1,102.3z M36.7,117.8c-1.3,0.7-3,0-3.7-1.5
			c-0.7-1.5-0.2-3.2,1.2-3.9c1.4-0.7,3,0,3.7,1.5C38.6,115.4,38,117.1,36.7,117.8z M78.2,99.2c-1.3,1.2-3.4,1.1-4.9-0.4
			c-1.4-1.5-1.6-3.6-0.3-4.9c1.3-1.2,3.4-1.1,4.9,0.4C79.3,95.8,79.4,97.9,78.2,99.2z"></path>
		<path d="M50.6,111.6c-0.7,0-1.3,0.5-1.3,1.2c0,0.7,0.6,1.2,1.3,1.2c0.7,0,1.3-0.5,1.3-1.2C51.9,112.1,51.3,111.6,50.6,111.6z"></path>
		<path d="M35.4,115.5c-0.7,0-1.3,0.5-1.3,1.2c0,0.7,0.6,1.2,1.3,1.2c0.7,0,1.3-0.5,1.3-1.2C36.7,116,36.1,115.5,35.4,115.5z"></path>
		<path d="M47.4,127.5c0.2-0.7,0.4-1.4,0.4-2c0.1-1.2-0.2-2.2-0.5-2.6c-0.7-0.9-1.5-1.5-2.2-1.5c-0.3,0-0.7,0.1-1,0.4
			c0,0-0.2,0.1-0.3,0.1h0c-0.7-0.2-1.2-0.2-1.7-0.2c-0.7,0-1.2,0.1-1.5,0.4c-0.1,0.1-0.2,0.2-0.3,0.4c0.3,0,0.6-0.1,0.9-0.1
			c1.3,0,2.8,0.4,2.9,2.6c0,0.5-0.1,1-0.3,1.5c-0.1,0.2-0.3,0.5-0.4,0.7c-0.8,0.8-2.1,1.2-3.8,1.2c-0.7,0-1.4-0.1-2.2-0.2
			c-1.8-0.3-3-0.9-4-1.3c-0.8-0.4-1.5-0.7-2.2-0.7c-0.1,0-0.3,0-0.4,0c-1,0.1-2.2,0.9-2.9,1.9c-0.2,0.3-0.6,0.9-0.5,1.5
			c0.3,2.3,2.5,3.5,6.3,3.5c2.2,0,5-0.4,8.2-1.2C45.4,131.1,46.8,129.1,47.4,127.5z"></path>
	</g>
</g>
</svg>