<svg version="1.1" id="dark-icon" class="element-svg" xmlns="http://www.w3.org/2000/svg" xmlns:xlink="http://www.w3.org/1999/xlink" x="0px" y="0px" viewBox="0 0 71.4 71.4" enable-background="new 0 0 71.4 71.4" xml:space="preserve">
<g>
	<path d="M70.2,26.3c-1-3.8-2.7-7.3-4.8-10.5c-0.7-0.3-1.3-0.8-2-1.6c-0.9-1.1-1.3-1.9-1.5-2.8
		c-2.7-2.9-6-5.4-9.5-7.3c-1-0.1-2.1,0.1-3-0.7c-0.4-0.3-0.6-0.7-0.7-1C44.5,0.8,40.2,0,35.7,0c-1.2,0-2.3,0.1-3.5,0.2
		c-0.2,0.4-0.6,0.7-1.6,0.6c0-0.1,0-0.3,0-0.4c-1.7,0.2-3.3,0.6-5,1.1c-0.8,0.9-1.3,2-2.8,1.2c-0.5,0.5-1.2,0.6-1.9,0.6
		c-2.4,1.1-4.7,2.5-6.9,4.1c-0.1,0.2-0.1,0.5-0.3,0.8c-0.7,1.4-2.1,2.2-3.6,2.6c-3.7,3.8-6.6,8.4-8.3,13.6c0.4,2.5-0.3,7.1-0.5,8.7
		c-0.2,1.4-0.9,2.1-1.3,3c0.1,7.4,2.4,14.3,6.4,20c0.2,0,0.5,0,0.8,0.1c1.8,0.6,0.7,1.1,2,2c1.7,1.3,2.8,1.9,4.1,3.7
		c1.2,1.8,2.3,3.1,4.1,4.3c0.1,0.1,0.2,0.1,0.3,0.2c2.3,1.4,4.8,2.5,7.4,3.3c0.4-0.2,0.9-0.5,1.6-0.6c2-0.3,2.4,0.9,3.7,1.8
		c1.8,0.3,3.6,0.4,5.5,0.4c4.1,0,8.1-0.7,11.8-2c1.6-1.1,3.2-2.2,5.1-2.2c4.3-2.3,8-5.4,11-9.2c-0.1-0.6-0.2-1.1,0-1.8
		c0.5-1.8,2.3-4.1,3-4.6c0.4-0.1,0.8-0.1,1.1,0c1.2-2.5,2.2-5.1,2.8-7.8c-0.3,0-0.6,0.1-0.7-0.4c-0.3-1.3,0.3-1.6,1.1-1.8
		c0.3-1.7,0.4-3.4,0.5-5.2c-0.6-1-1.2-2-1.4-3C69.7,32,69.5,28.2,70.2,26.3z M35.7,68.4c-18,0-32.6-14.6-32.6-32.6
		c0-18,14.6-32.6,32.6-32.6c18,0,32.6,14.6,32.6,32.6C68.4,53.7,53.7,68.4,35.7,68.4z"></path>
	<path d="M55.9,19.6l-0.1-0.1c-0.8-0.5-1.1-1.1-1.9-2c-0.1-0.1-0.7-0.6-0.8-1L53,16.3l-0.1-0.1
		c-1.7-1.6-3.6-3-5.6-4.2c-4-2.2-8.5-3.4-13.1-3.4c-0.6,0-1.2,0-1.8,0.1l-3.9,0.3l3.7,1.1c1.5,0.5,3,1.1,4.4,1.8
		c8.2,4.6,12.6,13.8,11,23.1l0,0v0c0,0.2-0.1,0.5-0.2,0.8l0,0l0,0l0,0.1v0l0,0c-0.1,0.7-0.3,1.3-0.5,1.9c-0.1,0.2-0.1,1.1-0.1,1.3
		c0,0.4,0.1,1.2-0.1,1.4c-0.8,0.8-1.6,1.6-1.7,1.7c0,0-0.3,0.4-0.3,0.5l0,0l0,0.1c-2.2,3.5-6.7,6.3-6.9,6.5l0,0c0,0,0,0,0,0
		c-0.1,0-0.2,0.2-0.8,0.7c-0.7,0.5-2,1.6-2.4,1.9c-1.2,0.5-2.5,0.9-3.2,1c-0.3,0.1-4.7,0.1-6.3,0.1c-3.2,0-6.4-0.9-9.6-2.7
		c-1.4-0.8-2.7-1.7-3.9-2.7l-2.9-2.6l1.8,3.4c2.5,4.6,6.2,8.4,10.7,10.9c4,2.2,8.5,3.4,13.1,3.4h0.2h0h0c0.2,0,1.1-0.2,2.3-0.4
		l2.3-0.1l0.1,0l0.1,0c7.9-1.5,14.7-6.4,18.6-13.5c1.3-2.3,2.2-4.8,2.8-7.3c0.2-0.8,0.3-1.1-0.3-1.3c-0.2-0.1-0.2-0.1-0.5-0.3
		c0.2-0.1,0.4-0.4,0.6-0.5c0.6-0.3,0.2-0.6,0.5-0.9l0.1-0.2l0-0.2c0.2-2.6,0.1-5.3-0.4-7.8l0-0.1l0-0.1c-0.2-0.5-0.2-0.6-0.2-0.7
		c0-0.2,0-0.4-0.2-0.6c-0.1-0.2-0.2-1.1-0.9-1.2c0.3-0.3,0.3-1.3,0.3-1.3l-0.2-0.4c-0.9-2.3-2-4.4-3.5-6.4L55.9,19.6z"></path>
</g>
</svg>