<svg xmlns="http://www.w3.org/2000/svg" xmlns:xlink="http://www.w3.org/1999/xlink" version="1" id="eons-elite-icon" class="series-icon" x="0" y="0" viewBox="0 0 71.1 78.3" enable-background="new 0 0 71.1 78.3" xml:space="preserve"><path fill="#000000" d="M35.5 78.3C23.8 72 12 66 0 60.1 0 47 0 34 0 20.9 11.7 13.8 23.6 6.8 35.5 0c12 6.5 23.8 13.2 35.5 20.1 0 13.1 0 26.1 0 39.2C59.1 65.4 47.3 71.8 35.5 78.3zM7.5 55.5c9.4 4.7 18.8 9.6 28.1 14.5 9.3-5.2 18.6-10.2 28.1-15.2 0-10.3 0-20.6 0-30.9C54.3 18.6 45 13.4 35.5 8.2 26.1 13.6 16.8 19 7.5 24.6 7.5 34.9 7.5 45.2 7.5 55.5z"></path><path fill-rule="evenodd" clip-rule="evenodd" fill="#000000" d="M58.1 28.3c0 0.3 0 0.5 0 0.8 -1.1 9.2-3.6 16.5-10.2 18.5 0.5 1.5 0.9 3.1 1.2 4.9 -1 1.3-2.8 2.3-4.6 2.8 -6.6 2.1-17.6 1.3-22.5-2.6 0.2-1.8 0.6-3.5 1.2-4.9 -6.4-2.5-9.3-9.4-10.2-18.8 0-0.3 0-0.5 0-0.8 0.1 0 0.1 0 0.2 0 -0.2-0.8 0.5-0.5 0.8-0.5 1.2 4.7 3.9 9.7 7.8 11.6 1.4 0.7 3.4 1.8 4.6 1.5 1.4-0.3 1.8-2.5 3.6-2.6 0.5 4.5 1.2 8.7 2 12.9 0-5.4 0-10.8 0-16.2 1.9-0.6 5.4-1 7 0.3 0.1 5.2-0.3 11.1 0.2 15.9 0.6-4.4 1.1-8.9 2-12.9 2.1 0.5 1.8 2.3 3.4 2.6 0.4 0.1 1.6-0.5 2.6-0.8 4.8-1.3 6.6-4.2 8.4-8.8C56.4 29.8 57.2 26.9 58.1 28.3z"></path></svg>