<svg version="1.1" id="undead-icon" class="element-svg" xmlns="http://www.w3.org/2000/svg" xmlns:xlink="http://www.w3.org/1999/xlink" x="0px" y="0px" viewBox="0 0 92.1 92.2" enable-background="new 0 0 92.1 92.2" xml:space="preserve">
<g>
	<path d="M82.1,72.5c0.6-2.3,3-5.3,3.8-5.9c0.5-0.1,1-0.1,1.5,0c1.6-3.2,2.8-6.6,3.6-10.1c-0.4,0.1-0.8,0.1-0.9-0.5
		c-0.4-1.6,0.4-2.1,1.5-2.3c0.4-2.2,0.6-4.4,0.6-6.7c-0.8-1.3-1.5-2.6-1.8-3.9c-0.4-1.7-0.7-6.5,0.2-9c-1.3-4.9-3.4-9.5-6.2-13.6
		c-0.9-0.4-1.7-1-2.6-2.1c-1.1-1.4-1.6-2.5-2-3.6c-3.5-3.8-7.7-7-12.3-9.4c-1.3-0.1-2.7,0.1-3.9-0.9C63,4,62.7,3.5,62.6,3.1
		C57.4,1.1,51.9,0,46.1,0c-1.5,0-3,0.1-4.5,0.2c-0.2,0.5-0.7,0.9-2.1,0.8c0-0.2,0-0.4,0-0.6c-2.2,0.3-4.3,0.8-6.4,1.4
		c-1,1.2-1.7,2.6-3.6,1.5C28.8,4,27.9,4.2,27,4.1c-3.2,1.4-6.1,3.2-8.8,5.3c-0.1,0.3-0.2,0.6-0.4,1c-0.9,1.8-2.7,2.8-4.6,3.4
		C8.4,18.8,4.6,24.7,2.4,31.4C3,34.6,2,40.5,1.7,42.6c-0.2,1.8-1.1,2.8-1.7,3.9C0.1,56.1,3.1,65,8.2,72.3c0.3,0,0.6,0.1,1,0.2
		c2.3,0.8,0.9,1.4,2.6,2.6c2.2,1.6,3.7,2.4,5.3,4.7c1.6,2.3,3,4,5.2,5.6c0.1,0.1,0.2,0.2,0.3,0.3c3,1.8,6.2,3.2,9.5,4.3
		c0.6-0.3,1.2-0.6,2.1-0.7c2.5-0.3,3.2,1.2,4.8,2.3c2.3,0.4,4.6,0.5,7,0.5c5.3,0,10.5-0.9,15.2-2.6c2.1-1.4,4.1-2.9,6.6-2.9
		c5.5-3,10.3-7,14.2-11.8C81.9,74.1,81.9,73.4,82.1,72.5z M46.1,88.2c-23.2,0-42.1-18.9-42.1-42.1C3.9,22.9,22.8,4,46.1,4
		c23.2,0,42.1,18.9,42.1,42.1C88.2,69.3,69.3,88.2,46.1,88.2z"></path>
	<path d="M47.6,66.3l1.3,14l4.6,0.1l0.3-13.2h2.5L56.7,81h7.1l-2.1-17.2c2.6,1.9,10.2,3.1,15.2-8.5
		c5-11.5,3.9-21.6-4.6-33.6c-1.2-1.7-2.5-3.2-4-4.6l0,0l0,0c0,0,0,0,0,0c0,0,0,0,0,0c-9.1-8.7-23.5-11.6-38.6-3.6
		C14.4,21.7,9.9,42.8,16,54.8c1,1.9,3.3,4.7,3.3,4.7c0.2,0.2,0.7,0.7,0.6,0.6c3.6,3.5,9.7,5.4,9.6,5.3c0.1,0,1.7,0.3,1.7,0.3
		l-5,13.8l7.8,0.8l4.4-11.7l1.9-0.1l-3.5,12.9l7.4,1l1.5-15.6L47.6,66.3z M35.6,56.6c-3.3,0-6.2-1.4-8.2-3.7c0,0,0,0,0,0
		c-1.7-1.9-2.7-4.4-2.7-7.1c0-6,4.9-10.8,10.8-10.8c2.7,0,5.2,1,7.1,2.7l0,0c2.3,2,3.7,4.9,3.7,8.2C46.4,51.7,41.6,56.6,35.6,56.6z
		 M67.6,45c1.4,1.1,2.2,2.7,2.2,4.5c0,3.2-2.6,5.8-5.8,5.8c-1.9,0-3.5-0.9-4.5-2.2v0c-0.8-1-1.2-2.2-1.2-3.5c0-3.2,2.6-5.8,5.8-5.8
		C65.4,43.8,66.6,44.2,67.6,45"></path>
</g>
</svg>