<svg xmlns="http://www.w3.org/2000/svg" xmlns:xlink="http://www.w3.org/1999/xlink" version="1.1" id="trap-team-icon" class="series-icon" x="0" y="0" viewBox="0 0 213 250" enable-background="new 0 0 213 250" xml:space="preserve"><path d="M59 201.7h-3v4H59c1.6 0 2.5-0.8 2.5-2v0C61.5 202.3 60.5 201.7 59 201.7z"></path><path d="M95.1 201.5h-2.2v4.4h2.2c1.7 0 2.7-0.9 2.7-2.2v0C97.8 202.3 96.8 201.5 95.1 201.5z"></path><polygon points="75.3 207.8 79.1 207.8 77.2 203 "></polygon><polygon points="147.6 207.8 151.4 207.8 149.5 203 "></polygon><path d="M173.6 155.4l-5.2 19.2h-1.3c0.3 0.7 0.7 1.3 1 2.1l0.2 0.5c0.2 0.3 0.3 0.7 0.3 1 0 1-0.8 1.8-1.8 1.8 0 0 0 0 0 0 -0.1 0-0.2 0-0.3 0l-6.2-1c0 1.2-0.1 2.6-0.4 4l-0.1 0.4c-0.2 0.8-0.9 1.3-1.8 1.3l-0.4 0c-0.5 0-4.6-0.4-8-3.2l-1.9 0.1c-0.4 1.1-1.1 2.4-2.5 3.6l-0.2 0.2c-0.3 0.3-0.8 0.4-1.2 0.4 -0.1 0-0.2 0-0.4 0l-0.2 0c0 0-3.9-0.8-6.7-3.4 -2.3 0-7.7-0.9-12.2-7.5 0-0.1-0.1-0.1-0.1-0.2 0 0 0-0.1 0-0.1h-12.6c-0.7 0.4-1.3 0.8-2 1.2 -1.6 1.1-11.9 7.7-33.5 7.7 0 0 0 0 0 0 -1.2 0-2.4 0-3.7-0.1 0 0-13.6 0.4-22.5 6.6 -0.2 0.2-0.5 0.4-0.8 0.5l-0.4 0.3c-0.7 0.6-1.7 1-2.8 1 -1 0-2.1-0.4-2.9-1 -1.6-1.3-2.1-3.6-1.1-5.5l5.7-10.6h-4.6L20.7 92l27.7-23.8c-0.1-0.4-0.3-0.8-0.3-1.2l-0.4-1.6c-0.2-0.8 0.2-1.6 0.9-2 0.7-0.4 1.6-0.3 2.2 0.3l1.2 1.2c0 0 0.1 0.1 0.2 0.2l0.4-0.4 -1.8-4.1c-0.2-0.4-0.2-0.9 0-1.4l2.5-6.2 -0.5-1.7L8.9 89.2l21.2 131.4 77.4 23.1 76.4-23.1 9.5-67.2L173.6 155.4zM49.2 201.7h-5v12.7h-4.7v-12.7h-5v-4.1h14.7V201.7zM61.3 214.4l-3.4-5.1h0 -2v5.1h-4.7v-16.8h7.9c2.6 0 4.3 0.7 5.5 1.8 1 1 1.5 2.3 1.5 3.9v0c0 2.6-1.4 4.3-3.5 5.2l4 5.9H61.3zM81.7 214.4l-1.2-3h-6.5l-1.2 3h-4.9l7.1-16.9h4.5l7.1 16.9H81.7zM102.5 203.6c0 4-3 6-7.2 6h-2.3v4.8h-4.7v-16.8h7.2C99.7 197.6 102.5 199.8 102.5 203.6L102.5 203.6zM123.4 201.7h-5v12.7h-4.7v-12.7h-5v-4.1h14.7V201.7zM139.1 214.4h-13.6v-16.8H139v4h-8.9v2.5h8.1v3.7h-8.1v2.7h9V214.4zM153.9 214.4l-1.2-3h-6.5l-1.2 3h-4.9l7.1-16.9h4.5l7.1 16.9H153.9zM178.4 214.4h-4.6v-9.6l-4.3 6.6h-0.1l-4.3-6.5v9.6h-4.6v-16.8h4.9l4 6.5 4-6.5h4.9V214.4z"></path><path d="M188.6 88.2l-1 2.5 2.8 2.3 -11 40.9c5.5 2.6 10.5 5.1 14.5 7l1.1 0.5 7.3-51.4 -7.3-6C192.5 84.9 190 86.1 188.6 88.2z"></path><path d="M63.5 52.4c0.1 0.3 0.1 0.8-0.1 1.1 -0.1 0.2-0.1 0.5-0.1 0.6 0-0.1 0.3 0 1 0 0.1 0 0.3 0 0.4 0l38.3-32.9 6.7 5.5c0.2-0.2 0.3-0.4 0.5-0.7l0.4-0.6c0.3-0.5 0.9-0.8 1.4-0.8 0.6 0 1.2 0.2 1.5 0.7l0.4 0.5c0.3 0.4 1.4 2.1 1.4 5.4l44.2 36.4 1.2-1.2c0.7-0.7 1.6-1.2 2.6-1.3 0.1 0 3.1-0.4 7-1.6L103 7.9 57.6 47.1C60.4 47.7 62.9 49.3 63.5 52.4z"></path><path d="M109 52.3c-0.3 0.3-0.7 0.5-1 0.8C108.3 52.8 108.6 52.6 109 52.3z"></path><path d="M99.9 69.2c-0.1 0.5-0.1 0.9-0.2 1.4C99.7 70.1 99.8 69.7 99.9 69.2z"></path><path d="M110.9 51.1c-0.4 0.2-0.8 0.5-1.2 0.7C110.1 51.6 110.5 51.3 110.9 51.1z"></path><path d="M99.2 80.2c0.2 6.6 1.3 12 1.6 13.4C100.5 92.2 99.4 86.8 99.2 80.2z"></path><path d="M106.4 54.6c0.3-0.3 0.6-0.6 0.9-0.9C107 54 106.7 54.3 106.4 54.6z"></path><path d="M105.9 55.2c-0.3 0.3-0.6 0.7-0.8 1C105.3 55.9 105.6 55.5 105.9 55.2z"></path><path d="M104.6 56.8c-0.3 0.4-0.5 0.8-0.8 1.2C104.1 57.6 104.3 57.2 104.6 56.8z"></path><path d="M100.8 65c-0.1 0.4-0.2 0.9-0.3 1.3C100.6 65.9 100.7 65.5 100.8 65z"></path><path d="M99.6 71.3c-0.1 0.5-0.1 1-0.2 1.5C99.5 72.3 99.5 71.8 99.6 71.3z"></path><path d="M102.5 60.5c-0.3 0.6-0.5 1.2-0.7 1.8C101.9 61.7 102.2 61.1 102.5 60.5z"></path><path d="M101.5 62.9c-0.2 0.5-0.3 0.9-0.5 1.4C101.2 63.8 101.3 63.4 101.5 62.9z"></path><path d="M103.5 58.5c-0.3 0.6-0.7 1.2-1 1.8C102.8 59.7 103.1 59.1 103.5 58.5z"></path><path d="M100.3 67.1c-0.1 0.4-0.2 0.9-0.3 1.3C100.1 68 100.2 67.6 100.3 67.1z"></path><polygon points="56.8 68.3 56.8 68.3 53.1 59.7 "></polygon><path d="M113 50.1c-0.5 0.2-1 0.4-1.4 0.6C112.1 50.5 112.5 50.3 113 50.1z"></path><path d="M99.4 73.4c-0.1 0.6-0.1 1.3-0.1 1.9C99.3 74.7 99.3 74 99.4 73.4z"></path><path d="M116 49c-0.8 0.2-1.6 0.5-2.3 0.7C114.4 49.5 115.2 49.2 116 49z"></path><path d="M100.8 93.6c0 0.2 0.1 0.3 0.1 0.3C100.9 93.9 100.9 93.8 100.8 93.6z"></path><path d="M50.4 66.4c0 0 2 2 6.3 2.6C52.5 68.4 50.4 66.4 50.4 66.4z"></path><path d="M99.2 77.6C99.2 77.6 99.2 77.6 99.2 77.6c0-0.7 0-1.4 0.1-2.1C99.2 76.2 99.2 76.9 99.2 77.6z"></path><path d="M209.5 57.5c-2-14.3-15.8-24-16.4-24.4 -0.9-0.7-1.4-3.1-1.4-4.6 0-0.5-0.3-0.9-0.8-1.1 -0.5-0.2-1-0.1-1.3 0.3l-4.6 4.8c-0.2 0.2-0.3 0.5-0.3 0.8v4.8c0 0.4 0.2 0.7 0.5 0.9 4.8 3.9 4.9 9.7 4.9 9.8 0.7 16.1-26 19.6-26.3 19.7 -0.3 0-0.5 0.2-0.7 0.3L157 75l2.3 1.2 5.3-5.3c3.7-0.5 28.8-4.8 28-22.1 0-0.3-0.1-6.7-5.4-11.3v-3.8l2.4-2.6c0.3 1.4 0.9 3 2.1 3.9 0.1 0.1 13.5 9.4 15.3 22.7 0.9 6.7-1.2 13.3-6.4 19.6 -2.6 0.1-12.8 1-17.1 8.1 0 0.1-0.1 0.1-0.1 0.2l-4.1 10.3c0.3 1.1 0.6 2.3 0.7 3.4 0.4-0.1 0.7-0.3 0.8-0.7l4.8-12c4.2-6.7 15.4-6.8 15.5-6.8 0.4 0 0.7-0.2 0.9-0.4C208.1 72.4 210.5 65 209.5 57.5z"></path><path d="M62.5 60.8c0.5-0.2 1 0 1.2 0.5 0.2 0.5 0 1-0.5 1.2 -4.8 1.9-4.7 6.9-4.7 7.1 0.5 6 9.1 6.5 9.2 6.5 0.5 0 0.9 0.4 0.9 0.9 0 0.5-0.4 0.9-0.9 0.9 0 0 0 0 0 0 -1.6-0.1-3.8-0.5-5.8-1.4 0.1 1.5 0.6 4 3 5.7 0 0-2.2 0.5-3.8-2.1 -0.6 1.4-1.8 4.9-0.8 7.7 0.5 1.3 1.4 2.3 2.8 2.9 0.3 0.1 0.5 0.4 0.5 0.7 0 0 0.3 1.7 1.8 2.7 1.1 0.7 2.5 0.9 4.4 0.5 0.2 0 17.1-3.6 29.5-17 0-0.7 0-1.4 0.1-2.1 0-0.1 0-0.1 0-0.2 0-0.6 0.1-1.3 0.1-1.9 0-0.2 0-0.4 0.1-0.6 0-0.5 0.1-1 0.2-1.5 0-0.2 0.1-0.5 0.1-0.7 0.1-0.5 0.1-0.9 0.2-1.4 0-0.3 0.1-0.5 0.1-0.8 0.1-0.4 0.2-0.9 0.3-1.3 0.1-0.3 0.1-0.5 0.2-0.8 0.1-0.4 0.2-0.9 0.3-1.3 0.1-0.2 0.1-0.5 0.2-0.7 0.1-0.5 0.3-0.9 0.5-1.4 0.1-0.2 0.1-0.4 0.2-0.6 0.2-0.6 0.5-1.2 0.7-1.8 0-0.1 0-0.1 0.1-0.2 0.3-0.6 0.6-1.2 1-1.8 0.1-0.2 0.2-0.3 0.3-0.5 0.3-0.4 0.5-0.8 0.8-1.2 0.1-0.2 0.3-0.4 0.5-0.6 0.3-0.3 0.5-0.7 0.8-1 0.2-0.2 0.4-0.4 0.6-0.6 0.3-0.3 0.6-0.6 0.9-0.9 0.2-0.2 0.4-0.4 0.6-0.6 0.3-0.3 0.7-0.5 1-0.8 0.2-0.2 0.5-0.3 0.7-0.5 0.4-0.2 0.8-0.5 1.2-0.7 0.2-0.1 0.5-0.3 0.7-0.4 0.4-0.2 0.9-0.4 1.4-0.6 0.2-0.1 0.5-0.2 0.7-0.3 0.7-0.3 1.5-0.5 2.3-0.7l0.2 0c0 0 0.2 0 0.4 0 1.2-4.1-0.5-8.8-0.5-8.8 -3 6.7-10.7 10.5-10.7 10.5l-0.5-1.5c12.3-15.8 7.5-22 7.5-22 -3 4.6-7 8-7 8 -9.7 1.6-16.6 13.1-16.6 13.1 -12.9 1.9-21.2 7.5-21.2 7.5 -8 1.9-6.2-3.2-6.2-3.2 -0.8-4-6.7-3.8-6.7-3.8l1.1 4 -2.7 6.7 3.7 8.7C57.1 66.3 58.3 62.6 62.5 60.8zM79 73.3c0.3-0.4 0.8-0.6 1.2-0.3 0.1 0 0.8 0.5 1.9 0 1.3-0.5 3.1-2.4 4.5-8 0.1-0.3 1.8-5.8 5.9-8 1.9-1 4.1-1.1 6.3-0.3 0.5 0.2 0.7 0.7 0.6 1.2 -0.2 0.5-0.7 0.7-1.2 0.6 -1.8-0.6-3.4-0.6-4.9 0.2 -1 0.5-1.8 1.2-2.4 2 2.1-0.7 3.1 0 3.1 0 7.3 3 4.1 9.4 4.1 9.4 -1.2 0-2.6 0.9-2.6 0.9 -0.4-7.4-4.5-8.4-5.7-8.6 -1 1.6-1.4 3.1-1.4 3.1 -0.2 0.6-0.3 1.2-0.5 1.7 0.6 2.2 2 5.4 5.3 6.2 0 0-0.7 0.7-0.9 1.3 0 0-3.9 1.5-6.3-2.9 -0.9 1.5-2 2.6-3.2 3.1 -0.6 0.2-1.1 0.3-1.6 0.3 -0.8 0-1.5-0.2-1.9-0.5C78.9 74.3 78.7 73.7 79 73.3zM81.6 85.2c0 0 0.7 2-4.5 2.3C77.1 87.5 79.6 83.5 81.6 85.2zM68.8 89.2c1.2-1.4 3.3 0.7 3.3 0.7C68.1 90.3 68.8 89.2 68.8 89.2z"></path><path d="M102.6 93.4c1.7 4.8 4.2 5.5 5.6 5.5 0.4 0 0.7-0.1 0.7-0.1l0.2 0 10.6-0.4c1.5-0.2 2.6-0.9 3.3-1.9 1.4-2.4 0-6.2 0-6.2l-0.1-0.2 0-0.2c1.4-23.5 10.3-25.2 10.7-25.3 0 0 0 0 0 0 4.1 0 5.4 4.4 5.7 6.1l3.4 0.9 2.3-0.9c-3.5-18.5-26.8-19.7-28.6-19.7C94 56.8 102.6 93 102.6 93.4z"></path><path d="M111.6 50.7c-0.3 0.1-0.5 0.3-0.7 0.4C111.1 51 111.3 50.8 111.6 50.7z"></path><path d="M99.3 75.3c0 0.1 0 0.1 0 0.2C99.2 75.4 99.3 75.4 99.3 75.3z"></path><path d="M113.7 49.8c-0.2 0.1-0.5 0.2-0.7 0.3C113.2 50 113.5 49.8 113.7 49.8z"></path><path d="M101 64.3c-0.1 0.2-0.1 0.5-0.2 0.7C100.9 64.8 101 64.5 101 64.3z"></path><path d="M99.4 72.8c0 0.2 0 0.4-0.1 0.6C99.4 73.2 99.4 73 99.4 72.8z"></path><path d="M100.5 66.3c-0.1 0.3-0.1 0.5-0.2 0.8C100.3 66.9 100.4 66.6 100.5 66.3z"></path><path d="M102.5 60.4c0 0.1 0 0.1-0.1 0.2C102.5 60.5 102.5 60.4 102.5 60.4z"></path><path d="M101.7 62.3c-0.1 0.2-0.1 0.4-0.2 0.6C101.6 62.7 101.6 62.5 101.7 62.3z"></path><path d="M100 68.4c0 0.3-0.1 0.5-0.1 0.8C99.9 69 100 68.7 100 68.4z"></path><path d="M109.7 51.8c-0.2 0.2-0.5 0.3-0.7 0.5C109.2 52.2 109.5 52 109.7 51.8z"></path><path d="M99.7 70.6c0 0.2-0.1 0.5-0.1 0.7C99.6 71.1 99.6 70.8 99.7 70.6z"></path><path d="M108 53.1c-0.2 0.2-0.4 0.4-0.6 0.6C107.6 53.5 107.8 53.3 108 53.1z"></path><path d="M103.8 58c-0.1 0.2-0.2 0.3-0.3 0.5C103.6 58.4 103.7 58.2 103.8 58z"></path><path d="M105.1 56.2c-0.2 0.2-0.3 0.4-0.5 0.6C104.8 56.6 104.9 56.4 105.1 56.2z"></path><path d="M105.9 55.2c0.2-0.2 0.4-0.4 0.6-0.6C106.3 54.8 106.1 55 105.9 55.2z"></path><path d="M100.8 93.6C100.8 93.6 100.8 93.6 100.8 93.6 100.8 93.6 100.8 93.6 100.8 93.6z"></path><path d="M122.1 116.1c0.1 0 0.2 0 0.3 0l-0.1-0.2L122.1 116.1z"></path><path d="M199.5 147.2c-8.7-4.2-28.9-14-44.2-21.4 0.1-0.1 0.2-0.2 0.3-0.3 0.1-0.1 0.1-0.3 0.1-0.4 0-0.3 0-0.5-0.1-0.8l-1.1-1.8c9.3 1.5 11.2-8.6 11.2-8.6 5.1 2.7 7.2-7 7.2-7 4.6-0.9 5.7-4 5.3-7.5 0-0.4-0.2-1.2-0.5-2.4 -1.4-5.1-4.9-10.2-5-10.7 -4.3-7.8-11.8-7-11.8-7l-2.9-1.5 -2.3-1.2 -1-0.5C145.9 73.1 143 75 143 75s-1.6-1.2-2.9-2.3l-2.4-0.6 -0.1-0.6c0-0.1-0.8-5.1-3.9-5.1 0.1 0-7.7 1.7-9 23.4 0 0.1 0 0.2 0.1 0.2 1.5 0.6 2.7 2.2 2.7 2.2l3.8 11.5 1.3 2.1 -3.3-0.5 -2-0.3c-0.5-0.1-0.9 0.1-1.2 0.5l-3.7 5.8L120 115l0.9-15.1c-0.3 0.1-0.7 0.2-1 0.2l-10.6 0.5c-0.2 0-0.6 0.1-1.1 0.1 -1.8 0-5.2-0.9-7.3-6.8 0 0 0-0.1-0.1-0.3 0 0 0 0 0 0 -0.3-1.4-1.4-6.7-1.6-13.4 0 0 0 0 0-0.1l-0.1 0.1c-0.7 0.7-1.4 1.3-2.1 2l-2.5 2.4L92.2 89l-3-0.7c-0.4 0.3-0.9 0.6-1.3 0.8l-1.7 6.4 -5.1-2.2 -6.2 2.4 -0.8 3.5 -4.5-2.7c-0.6 0.1-1.2 0.2-1.8 0.2 -1.4 0-2.5-0.3-3.5-1 -1.6-1-2.2-2.6-2.4-3.4 -1.6-0.8-2.8-2.1-3.4-3.7 -1.5-4.2 1-9.5 1.1-9.7 0.1-0.2 0.3-0.4 0.6-0.5 -0.2-0.7-0.3-1.8-0.2-2.8 -1.8-1.3-3.1-3.1-3.3-5.7 0 0 0-0.3 0-0.8 0 0 0 0 0 0 -4.3-0.6-6.3-2.6-6.3-2.6 1.6 7 9.1 12.1 9.1 12.1 -12.7 5.2-7.9 19.8-6.5 23.4 0.3 0 0.6-0.1 1-0.1 2.8 0 5.7 1 8.6 2.8 0.3 0.2 3.8 2 4 4.7 0.1 0.8-0.2 1.5-0.7 2.2 2.2 0.3 5.6 1.1 7.9 3.5l-0.3 2.5c-2.4-4.2-8.8-4.3-9.6-4.3H61l2.3-1.7c1-0.7 1.5-1.4 1.5-2.1 -0.1-1.4-2.3-2.8-3.1-3.2 -2.7-1.7-5.3-2.6-7.7-2.6 -7.8 0-11.9 9-11.9 9.1 -3.7 10.9 2.9 16.1 3.2 16.3 9.1 8.5 16.1 7.6 18.5 6.9l-3 2.6c-0.1 0.1-0.2 0.2-0.3 0.4l-0.7 1.5 -3.7 7.4c-0.2 0.5-0.1 1 0.2 1.4 0.4 0.4 0.9 0.4 1.4 0.2l5.7-3 2.3-1.2 -0.8 3.1c-2.9 2.9-3.8 5.4-3.8 5.4 -3.2 1.3-4.8 6.8-4.8 6.8h5.4l26.8-0.5c0.5-2.7-0.4-8.3-1.2-12.2l2.4 1.1 10 4.5c-2.8 2.6-5.8 4.8-9 6.8 -1.3 0.8-2.6 1.6-3.9 2.3 -16.3 9-33.8 11.4-34.1 11.4 -0.4 0.1-0.7 0.3-0.9 0.6l-6.4 12.1c-0.3 0.5-0.1 1.1 0.3 1.5 0.2 0.2 0.5 0.3 0.8 0.3 0.3 0 0.5-0.1 0.8-0.3 9.7-7.7 25.7-8.1 25.8-8.1 24.3 0.8 35-6.9 35.3-7.1 4.4-2.6 9.3-5.4 13.6-7.8 0.8-0.4 1.5-0.8 2.2-1.2l2.7 9.5c5.1 7.5 11.3 6.4 11.3 6.4 2.1 2.7 6.2 3.5 6.2 3.5 2.1-1.9 2.1-4 2.1-4l4.6-0.3c2.9 3 7.2 3.2 7.2 3.2 0.8-3 0-6.2 0-6.2l8.3 1.3c-1.9-4.3-4-6.7-4-6.7 -2.7-6.7-6.2-8-6.2-8 -1.5-3.1-3-6-4.6-8.4l2.3-0.2 45.2-4.5c0.5-0.1 1-0.5 1.1-1C200.2 148 199.9 147.4 199.5 147.2zM122.3 115.9l5.4-8.4 3.2 0.5 3.3 0.5 9.6 1.5 7.1 11.5 1.6 2.7c-0.1 0-0.2 0.1-0.3 0.1 -3.5-1.7-6.7-3.2-9.3-4.5 -4.1-2-6.7-3.2-6.8-3.3 -0.4-0.1-4.9-0.3-13.6-0.4 -0.1 0-0.2 0-0.3 0L122.3 115.9zM121.4 118.5c0.8 0 1.7 0 2.4 0 6.1 0.1 10.6 0.2 11.4 0.3 2.3 1 32.8 15.8 54.4 26.3l-55.6-11.7 -3.5-0.7 -21.3-4.5 -17.1-9.3 1.4-0.8C102.1 118.2 112.9 118.4 121.4 118.5zM91.8 116.3l-3.2 1.8 -12.7-0.3 1-8 4.4-2.7 2.5 5.5c0.3 0.6 0.9 0.9 1.5 0.6l7.4-2.6L91.8 116.3zM77.8 99.6l3.1 1.5 2.8-3 4.2 0.3 2-5.9 4.3-2.2 1.9-4.2 2.2-1.7c-1.1 3.2-2.6 6.1-4.3 9.3 -1.9 3.5-5.6 8.1-9.6 9.3 -3.4 1-6.3 0.5-8.6-0.7L77.8 99.6zM89.3 120.6l0.9 0 16 8.8 -19.3 4.6 -8.1-1.9 -2.4-0.6 -3.2-0.8 -1.4-0.3 -5.4-7.2 9.6-2.8 8.6 0.2L89.3 120.6zM68.6 142.6c-0.1-0.4-0.4-0.6-0.7-0.8 -0.3-0.1-0.7-0.1-1 0l-0.3 0.2 -2.4 1.3 -4.3 2.3 2.5-5.2 0.1-0.2 5.8-5 2.9-2.5 4.9 1.2 -0.3 7.5 -5.8 6.2L68.6 142.6zM131.8 156.9c-1.3 0.7-4.5 2.4-8.6 4.7 -0.7 0.4-1.5 0.8-2.2 1.2 -4.5 2.5-9.6 5.4-14.2 8.1 -0.1 0.1-9.4 6.8-30.4 6.8 -1.1 0-2.3 0-3.5-0.1 -0.6 0-13.1 0.3-23.2 5.9l3.9-7.3c4.4-0.7 31.3-5.4 48.5-21.8l8.4 3.8c0.2 0.1 0.3 0.1 0.5 0.1 0 0 0.1 0 0.1 0l8.4-0.8 2.5-0.3 9.9-1C131.8 156.5 131.8 156.7 131.8 156.9zM152.4 151.7L150 152l-28.8 2.9 -2.5 0.3 -7.6 0.8 -22.1-10 -2.4-1.1 -8.3-3.8 0.3-6.6 8 1.9c0.1 0 0.2 0 0.3 0 0.1 0 0.2 0 0.3 0l22.7-5.4c0.1 0 0.1-0.1 0.1-0.1l23.5 4.9 3.5 0.7 53.9 11.3L152.4 151.7z"></path></svg>