<svg version="1.1" id="air-icon" class="element-svg" xmlns="http://www.w3.org/2000/svg" xmlns:xlink="http://www.w3.org/1999/xlink" x="0px" y="0px" viewBox="0 0 92.1 92.2" enable-background="new 0 0 92.1 92.2" xml:space="preserve">
	<g>
		<path d="M70.4,18.2C57.4,5.8,40.5,10,30.3,16.2C21.5,21.4,16,28.4,13.7,36.8c-3.8,13.8,0.7,31.9,10.4,41.9
			c0.5,0.5,1,1,1.6,1.4c-0.5-0.4-1.1-0.9-1.6-1.4c0.8,0.9,1.7,1.7,2.6,2.4c3.1,2.6,4.8,2.1,8-0.7c3.6-3.2,3-3.7,0.3-6.3
			c0.1,0.1,0.2,0.2,0.3,0.3c-0.4-0.4-0.9-0.9-1.4-1.4c-2-1.9-5-5-8.4-11.1c3.4,6.1,6.4,9.1,8.4,11.1c-1.9-2-4.6-5-7.4-10.1
			c-7.2-13-3.3-30.8,10.1-39.3c8.9-5.7,20.4-4.4,27.7,2.5l0,0c1.4,1.3,2.7,2.8,3.7,4.5c6.8,11.1,5,24-4.9,27.5
			c-6.7,2.4-12.6-0.3-15.9-4c0,0,0,0,0,0c-1.7-1.9-2.8-4.1-3-6.1c-0.3-4.1,1.9-7.9,4.8-7.7c0.5,0,1,0.2,1.3,0.4
			c2.1,1.1,1.5,4.7,2.8,6.8c0.5,0.8,1.3,1.4,2.7,1.5c4.9,0.3,5.6-8.5,2.3-14c-0.4-0.7-1-1.3-1.6-1.9C52.7,29.9,45,29.4,39.6,34
			c-7.3,6.3-5.9,19.8,0.4,27.4c0.2,0.2,0.4,0.4,0.6,0.6c0,0-0.1-0.1-0.1-0.1c6.4,6.9,20.7,10.6,31.5,3.4c14.3-9.5,11.6-31,1.4-43.7
			C72.5,20.3,71.4,19.2,70.4,18.2z M91.5,53.6c0.4-2.2,0.6-4.4,0.6-6.7c-0.8-1.3-1.5-2.6-1.8-3.9c-0.4-1.7-0.7-6.5,0.2-9
			c-1.3-4.9-3.4-9.5-6.2-13.6c-0.9-0.4-1.7-1-2.6-2.1c-1.1-1.4-1.6-2.5-2-3.6c-3.5-3.8-7.7-7-12.3-9.4c-1.3-0.1-2.7,0.1-3.9-0.9
			C63,4,62.7,3.5,62.6,3.1C57.4,1.1,51.9,0,46.1,0c-1.5,0-3,0.1-4.5,0.2c-0.2,0.5-0.7,0.9-2.1,0.8c0-0.2,0-0.4,0-0.6
			c-2.2,0.3-4.3,0.8-6.4,1.4c-1,1.2-1.7,2.6-3.6,1.5C28.8,4,27.9,4.2,27,4.1c-3.2,1.4-6.1,3.2-8.8,5.3c-0.1,0.3-0.2,0.6-0.4,1
			c-0.9,1.8-2.7,2.8-4.6,3.4C8.4,18.8,4.6,24.7,2.4,31.4C3,34.6,2,40.5,1.7,42.6c-0.2,1.8-1.1,2.8-1.7,3.9C0.1,56.1,3.1,65,8.2,72.3
			c0.3,0,0.6,0.1,1,0.2c2.3,0.8,0.9,1.4,2.6,2.6c2.2,1.6,3.7,2.4,5.3,4.7c1.6,2.3,3,4,5.2,5.6c0.1,0.1,0.2,0.2,0.3,0.3
			c3,1.8,6.2,3.2,9.5,4.3c0.6-0.3,1.2-0.6,2.1-0.7c2.5-0.3,3.2,1.2,4.8,2.3c2.3,0.4,4.6,0.5,7,0.5c5.3,0,10.5-0.9,15.2-2.6
			c2.1-1.4,4.1-2.9,6.6-2.9c5.5-3,10.3-7,14.2-11.8c-0.1-0.7-0.2-1.5,0-2.3c0.6-2.3,3-5.3,3.8-5.9c0.5-0.1,1-0.1,1.5,0
			c1.6-3.2,2.8-6.6,3.6-10.1c-0.4,0.1-0.8,0.1-0.9-0.5C89.7,54.3,90.5,53.9,91.5,53.6z M46.1,88.2c-23.2,0-42.1-18.9-42.1-42.1
			C3.9,22.9,22.8,4,46.1,4c23.2,0,42.1,18.9,42.1,42.1C88.2,69.3,69.3,88.2,46.1,88.2z"></path>
	</g>
</svg>