<svg version="1.1" id="life-icon" class="element-svg" xmlns="http://www.w3.org/2000/svg" xmlns:xlink="http://www.w3.org/1999/xlink" x="0px" y="0px" viewBox="0 0 92.3 91.6" enable-background="new 0 0 92.3 91.6" xml:space="preserve">
	<g>
		<path d="M92.1,41.1c-0.6-0.4-1.2-0.9-1.6-1.7c-1.2-2-1.6-5.9-1.5-6.9c0.3-0.4,0.7-0.8,1-1.1
			c-1.1-3.4-2.7-6.6-4.6-9.7c-0.2,0.3-0.5,0.6-1,0.3c-1.4-0.9-1.2-1.8-0.6-2.7c-1.3-1.8-2.8-3.6-4.3-5.2c-1.5-0.4-3-0.8-4.1-1.5
			c-1.4-0.9-5.1-4.2-6.2-6.5c-4.4-2.5-9.1-4.3-14-5.2c-0.9,0.3-1.9,0.5-3.4,0.3C50,1,48.8,0.6,47.7,0c-5.2-0.2-10.4,0.5-15.4,2.1
			c-1,0.9-1.8,2-3.4,2.2c-0.6,0.1-1.1-0.1-1.6-0.3c-5,2.2-9.7,5.4-13.9,9.5c-1.1,1.1-2.1,2.2-3,3.3c0.2,0.5,0.1,1.1-0.9,2
			c-0.1-0.1-0.3-0.3-0.4-0.4c-1.3,1.8-2.5,3.6-3.5,5.5c0.2,1.5,0.7,3.1-1.5,3.7c-0.1,0.9-0.5,1.7-1.2,2.3c-1.2,3.3-2.1,6.6-2.5,10
			c0.2,0.3,0.3,0.6,0.5,1c0.6,2,0.1,3.9-0.9,5.7c0.1,6.9,1.7,13.8,4.8,20.1c2.7,1.9,6.2,6.8,7.5,8.4c1.1,1.4,1.2,2.7,1.5,4
			c6.9,6.7,15.3,10.9,24.1,12.5c0.2-0.2,0.5-0.4,0.8-0.6c1.3-0.6,1.6-0.4,2.1-0.2c0.3,0.2,0.7,0.3,1.6,0.2c2.7-0.4,4.3-0.9,7.1-0.4
			c2.7,0.5,4.9,0.7,7.7,0.3c0.1,0,0.3,0,0.4-0.1c3.4-0.9,6.7-2.1,9.8-3.7c0.2-0.6,0.4-1.3,1-2c1.6-2,3.1-1.4,5-1.7
			c1.9-1.4,3.7-2.9,5.4-4.6c3.8-3.8,6.8-8.1,8.9-12.6c0.4-2.5,0.9-5,2.6-6.7C92.2,53.5,92.7,47.2,92.1,41.1z M76,76
			c-16.5,16.5-43.3,16.5-59.7,0c-16.5-16.5-16.5-43.3,0-59.7s43.3-16.5,59.7,0C92.5,32.8,92.5,59.6,76,76z M44.7,63.5
			c1.8,0.7,3.7,1.7,5.3,3c-0.6-4.5-3-9.2-5.7-12.1c-4.5-4.8-10.6-7.5-16.9-9.6c-6.8-2.2-7.9-8.3-5-14.5c-8,5.6-11.3,18.4-9.3,28.1
			c0.9,4.6,3,9.4,6.5,13.7c3.3,4.1,10.1,7.4,17.1,7.4c2.8,0,5.7-0.5,8.3-1.7c1.6-0.7,2.7-1.7,3.5-2.9c2-3.6-4.9-7.4-7.5-8.5
			c-4.1-1.8-10.6-4.8-11.2-9.8C32.4,61,40.1,61.8,44.7,63.5z M72.1,31.5c2.2,4.9,1.4,9.8-4,11.5c-5,1.6-9.9,3.8-13.4,7.6
			c-2.2,2.3-4,6-4.5,9.6c1.3-1,2.8-1.8,4.2-2.3c3.6-1.4,9.7-2,11.8-5.6c-0.5,4-5.6,6.4-8.9,7.8c-2.1,0.9-7.5,3.9-6,6.7
			c0.7,0.9,1.6,1.7,2.8,2.3c2.1,1,4.4,1.4,6.6,1.4c5.5,0,10.9-2.6,13.5-5.8c2.7-3.4,4.4-7.2,5.1-10.9C81,46.1,78.4,36,72.1,31.5z
			 M45.4,51.1c0.6,0.2,1.2,0.2,1.8,0.2c0.6,0,1.2-0.1,1.8-0.3c2.9-1.2,0.3-7-0.8-9c-1.8-3.2-4.4-8.2-2.5-11.6
			c-0.4,4.1,4.1,8.4,6.1,11.8c0.8,1.3,1.5,2.9,2,4.5c1.7-3.1,2.4-7.2,2-10.3c-0.6-5.1-3.1-9.9-6.2-14.3c-3.2-4.7-1.1-9.1,3.6-11.5
			c-0.3,0-0.5,0-0.8,0c-7.4,0-14.8,6.1-18,12.8c-1.6,3.3-2.5,7.3-2.3,11.7C32.4,41,37.7,49.1,45.4,51.1z"></path>
	</g>
</svg>