<svg version="1.1" id="light-icon" class="element-svg" xmlns="http://www.w3.org/2000/svg" xmlns:xlink="http://www.w3.org/1999/xlink" x="0px" y="0px" viewBox="0 0 71.4 71.4" enable-background="new 0 0 71.4 71.4" xml:space="preserve">
<g>
	<path d="M63.6,56.2c0.5-1.8,2.3-4.1,3-4.6c0.4-0.1,0.8-0.1,1.1,0c1.2-2.5,2.2-5.1,2.8-7.8c-0.3,0-0.6,0.1-0.7-0.3
		c-0.3-1.3,0.3-1.6,1.1-1.8c0.3-1.7,0.4-3.5,0.5-5.2c-0.6-1-1.2-2-1.4-3c-0.3-1.3-0.5-5,0.2-7c-1-3.8-2.7-7.3-4.8-10.5
		c-0.7-0.3-1.3-0.8-2-1.6c-0.9-1.1-1.3-1.9-1.5-2.8c-2.7-2.9-6-5.4-9.5-7.3c-1-0.1-2.1,0.1-3-0.7c-0.4-0.3-0.6-0.7-0.7-1
		C44.5,0.8,40.2,0,35.7,0c-1.2,0-2.3,0.1-3.5,0.2c-0.2,0.4-0.6,0.7-1.6,0.6c0-0.1,0-0.3,0-0.5c-1.7,0.2-3.3,0.6-5,1.1
		c-0.8,0.9-1.3,2-2.8,1.2c-0.5,0.5-1.2,0.6-1.9,0.6c-2.4,1.1-4.7,2.5-6.9,4.1c-0.1,0.2-0.1,0.5-0.3,0.8c-0.7,1.4-2.1,2.2-3.6,2.6
		c-3.7,3.8-6.6,8.4-8.3,13.6c0.4,2.5-0.3,7.1-0.5,8.7c-0.2,1.4-0.9,2.1-1.3,3c0.1,7.4,2.4,14.3,6.4,20c0.2,0,0.5,0,0.8,0.1
		c1.8,0.6,0.7,1.1,2,2.1c1.7,1.3,2.8,1.9,4.1,3.7c1.2,1.8,2.3,3.1,4.1,4.4c0.1,0.1,0.2,0.1,0.3,0.2c2.3,1.4,4.8,2.5,7.4,3.3
		c0.4-0.2,0.9-0.5,1.6-0.6c2-0.3,2.4,0.9,3.7,1.8c1.8,0.3,3.6,0.4,5.5,0.4c4.1,0,8.1-0.7,11.8-2c1.6-1.1,3.2-2.2,5.1-2.2
		c4.3-2.3,8-5.4,11-9.2C63.5,57.4,63.4,56.9,63.6,56.2z M35.7,68.4c-18,0-32.6-14.6-32.6-32.6c0-18,14.6-32.6,32.6-32.6
		c18,0,32.6,14.6,32.6,32.6C68.4,53.7,53.7,68.4,35.7,68.4z"></path>
	<path d="M54.4,41.3l10.9-5.6l-10.9-5l6.2-8.8l-10.3,0.6l0.9-12.4l-9.7,7.4L35.6,6l-4.4,11.2l-10.3-6.5l1.5,11.5
		L10,21.3l6.8,10L6.1,36l10.3,5.3l-5.6,9.1l10.3-0.3l-0.6,11.5l9.1-6.8l6.2,10.6l4.7-10l10.3,6.2l-2.1-11.5l12.6,0.6L54.4,41.3z
		 M47.7,43.2c-1.1,1.7-2.4,3.1-4.1,4.3l2.5,5.8l-4-4.9c-1.8,0.9-3.7,1.5-5.8,1.6l-0.8,6.6L34.6,50c-2-0.1-4-0.6-5.7-1.5L25,53.6
		l2.3-6c-1.7-1.1-3.2-2.6-4.3-4.4l-5.9,2.4l5.1-3.9c-0.8-1.7-1.3-3.6-1.4-5.6l-5.6-0.8l5.6-0.8c0.2-2.1,0.7-4,1.7-5.8l-5.4-4.2
		l6.3,2.7c1.1-1.5,2.5-2.9,4-3.9L25,17.5l4.1,4.9c1.7-0.8,3.5-1.3,5.5-1.4l0.9-6.3l0.9,6.3c1.9,0.1,3.7,0.6,5.3,1.4l4.1-5.2
		l-2.5,6.1c1.6,1,2.9,2.3,4,3.9l6.2-2.8l-5.3,4.3c0.9,1.8,1.5,3.8,1.7,5.9l6.3,0.8l-6.3,1c-0.1,1.9-0.6,3.7-1.4,5.3l4.8,3.7
		L47.7,43.2z"></path>
</g>
</svg>