<svg xmlns="http://www.w3.org/2000/svg" xmlns:xlink="http://www.w3.org/1999/xlink" version="1.1" id="series-4-icon" class="series-icon" x="0" y="0" viewBox="0 0 228.5 202.7" enable-background="new 0 0 228.5 202.7" xml:space="preserve"><path d="M73.9 16.6l14.4-4.8 1.4 4.2 -9.5 3.2 0.9 2.7 8.6-2.9 1.3 3.9 -8.6 2.9 0.9 2.8 9.6-3.2 1.4 4.2 -14.5 4.9L73.9 16.6z"></path><path d="M93.9 10.5l8.8-1c2.9-0.3 4.9 0.2 6.3 1.3 1.2 0.9 2 2.3 2.2 4.2l0 0.1c0.3 2.9-1 4.9-3.2 6.2l5.2 6 -6 0.7 -4.4-5.2 -0.1 0 -2.2 0.3 0.7 5.7 -5.2 0.6L93.9 10.5zM103.5 18.5c1.8-0.2 2.7-1.2 2.5-2.5v0c-0.2-1.5-1.3-2.1-3.1-1.9l-3.4 0.4 0.5 4.5L103.5 18.5z"></path><path d="M115.4 8.8l5.2 0.2L120 27.8l-5.2-0.2L115.4 8.8z"></path><path d="M126.3 9.3l14.9 2.7 -0.8 4.4 -9.8-1.8 -0.5 2.8 8.9 1.6 -0.7 4 -8.9-1.6 -0.5 2.9 10 1.8 -0.8 4.4 -15-2.8L126.3 9.3z"></path><path d="M139.3 28l4-2.2c1.2 2.1 2.8 3.5 4.8 4.3 1.3 0.5 2.2 0.3 2.5-0.4l0-0.1c0.3-0.7-0.1-1.4-2.3-2.8 -3.4-2.3-5.8-4.5-4.4-8.1l0 0c1.3-3.3 4.8-4.6 9-2.9 3 1.2 5 2.9 6.3 5.2l-3.8 2.5c-1.2-1.8-2.7-3.1-4.2-3.7 -1.2-0.5-1.9-0.2-2.2 0.4l0 0.1c-0.3 0.8 0.1 1.4 2.4 2.9 3.7 2.5 5.7 4.8 4.4 8l0 0.1c-1.4 3.6-5.1 4.6-9.3 2.9C143.3 33 140.7 30.8 139.3 28z"></path><path d="M62.6 40.8l0.8-4.5c2.4 0.4 4.5 0 6.4-1.1 1.2-0.7 1.6-1.5 1.2-2.2l0-0.1c-0.4-0.7-1.1-0.7-3.7 0 -3.9 1.2-7.2 1.8-9.1-1.6l0 0c-1.7-3-0.6-6.6 3.3-8.8 2.8-1.6 5.4-2.1 8-1.7l-0.4 4.5c-2.1-0.2-4.1 0.2-5.5 1 -1.1 0.6-1.4 1.4-1 2l0 0c0.4 0.8 1.2 0.8 3.7 0 4.2-1.3 7.3-1.5 9 1.6l0 0c1.9 3.3 0.4 6.8-3.6 9.1C69 40.8 65.7 41.5 62.6 40.8z"></path><path d="M189.3 21c-17.6 0-31.9 14.3-31.9 31.9 0 17.6 14.3 31.9 31.9 31.9 17.6 0 31.9-14.3 31.9-31.9C221.2 35.3 206.9 21 189.3 21zM208.8 66h-5.4v8.3h-11.5V66h-20.7l-2-8.4 22.1-26.3h12v25.9h5.4V66z"></path><polygon points="191.9 57.2 191.9 44.9 181.7 57.2 "></polygon><path d="M101.5 81.8c-2.2 0-4 2.5-4 5.7 0 3.1 1.8 5.7 3.9 5.7 2.2 0 4-2.5 4-5.7C105.5 84.4 103.7 81.8 101.5 81.8z"></path><path d="M128.1 81.8c-2.2 0-4 2.5-4 5.7 0 3.1 1.8 5.7 3.9 5.7 2.2 0 4-2.5 4-5.7C132 84.4 130.3 81.8 128.1 81.8z"></path><path d="M166.6 122.8c-0.2-0.1-0.5-0.2-0.8-0.3 -0.1 0-0.2 0-0.3-0.1 -0.2 0-0.4-0.1-0.6-0.1 -0.1 0-0.2 0-0.3 0 -0.2 0-0.4 0-0.6 0 -0.1 0-0.2 0-0.3 0 -0.2 0-0.5 0-0.7 0 0 0-0.1 0-0.1 0 -0.1 0.4-0.2 0.7-0.3 1.1 -0.7 1.7-2.4 3.3-4.3 4.2 -1 0.4-1.9 0.7-2.9 0.7 -0.6 0-1.2-0.1-1.8-0.3 -0.1 0.2-0.3 0.4-0.4 0.5 -0.8 0.9-4.3 1.7-4.4 3.4 -0.1 2 0.1 5 2.1 6 0.6 0.3 1.2 0.5 1.8 0.7 0.6 0.1 1.1 0.2 1.7 0.2 0.5 0 1 0 1.4-0.1 0.1 0 0.3 0 0.4-0.1 0.4-0.1 0.7-0.1 1.1-0.2 0.1 0 0.3-0.1 0.4-0.1 0.5-0.1 0.9-0.3 1.4-0.4 1.6-0.6 3.2-1.2 4.7-2.2 1-0.7 1.6-1.8 2.1-2.9 0.6-1.3 1.3-2.5 1.8-3.8 0.3-0.7 0.9-1.8 0.8-2.6C168.7 125.1 167.7 123.4 166.6 122.8z"></path><path d="M159.6 118.9c-1.4-0.4-2.9-0.6-3.9 0.6 -1.9 2.2-3.7 4-2.5 5.8 0.3 0.5 0.9 0.8 1.5 1l0 0c0 0 0 0 0 0 0.3 0.1 0.6 0.1 0.9 0.1 0 0 0 0 0 0 0 0 0 0 0 0 0.3 0 0.6 0 0.8-0.1 0.1 0 0.2 0 0.2-0.1 0.3-0.1 0.6-0.2 1-0.3 1.3-0.6 2.8-1.9 3.4-3.3 0 0 0 0 0 0l0 0C161.6 121.2 161.1 119.4 159.6 118.9z"></path><path d="M134.2 123.8c2.6 3.5 8.8 4.8 13.4 6.7 0.7-1.3 2.2-2 3.4-2.6 0.4-0.2 0.9-0.5 1-0.6 0-0.1 0.1-0.2 0.2-0.3 -0.2-0.2-0.5-0.4-0.6-0.7 -1.3-1.8-0.7-3.6 0.3-5.2 -1.8-1.3-3.1-2.4-3.2-2.9 -0.2-0.8-1.3-2.2-2.9-3.3 0.3-0.9 0.4-1.8 0.2-2.8 -0.5-3.5-3.9-6-7.9-6.3 1.4-1.2 2.2-2.5 2.2-3.9 0-1.2-0.6-2.3-1.6-3.4 0.8-1.8 1.4-3.8 1.6-5.9 1.7 0.6 2.9 0.8 2.9 0.8 7.6 0.6 3.8-6.9 3.8-6.9 -2.2-3.5 0.1-6.5 0.1-6.5 3.9-3.7 0-4.9 0-4.9 -3.1-3.4 0.7-7.4 0.7-7.4 6.3-5.8 3-6.1 3-6.1 -5.8-2.3-14.2 4.9-19 9.7 -3.3-2.8-7.2-4.8-11.7-5.7 -0.1-9.5-1.9-17-4.2-17 -2.2 0-4.1 7.3-4.2 16.7 -5.3 0.6-10.1 2.7-13.9 5.9 -4.8-4.8-13.1-11.9-18.9-9.7 0 0-3.3 0.2 3 6.1 0 0 3.8 4 0.7 7.4 0 0-3.9 1.2 0 4.9 0 0 2.2 3.1 0 6.5 0 0-3.8 7.5 3.8 6.9 0 0 0.9-0.2 2.2-0.6 0.1-1.2 0.3-2.6 0.8-4 0.1-0.4 0.6-0.7 1.1-0.5 0.4 0.1 0.7 0.6 0.5 1.1 -0.9 2.7-0.7 5.4-0.6 6.3 1.1 0.9 4.6 4.1 7.8 11.9 0.2 0.4 0 0.9-0.5 1.1 -0.1 0-0.2 0.1-0.3 0.1 -0.3 0-0.6-0.2-0.8-0.5 -3-7.2-6.3-10.3-7.3-11.1 -0.1-0.1-0.2-0.1-0.2-0.2 0 0 0 0 0 0l-0.3-0.2 0 0c-7.6-5.2-17.2-1.7-17.2-1.7 -0.7-4.6-4.5-6.4-6.6-7.3 0.7-0.3 1.1-2 2.5-2.1 2.1-0.3 10-5.8 9.3-7.6C76 76 71.5 66.1 68.3 65 65.1 64 52.2 64.8 51 74.9c0 0.2-4.6 19.8 0 23.9 10.4 10.6 20.5 6 36.4 20.9 0.8 8 1.5 12.6 3.6 20 0.1 0.1 0.6 2 0.6 2s-0.5 1.2-0.9 1.9c0 0-13.6 3.2-12.3 12.1l-2.5 8.5c0 0-8.2 6.2-6.2 12.2l7.2-2.2 5 4.2 3.8-2.4 5 1.5 5-2.4c0 0 7.2-4.5 2.2-16.5l-1.9-4.6c0 0 6-1.5 9.7-4 0.8-0.2 1.9-0.4 3.2-0.6 2.6 3.9 5.2 8 5.2 8 0 7.8 1.9 15.1 1.9 15.1s-1.9 5.2 1.3 11.1l9.1-4.7 6.5 4.7 8.5-5.5 9.4 2.9c2.6-7.9-8-16.1-8-16.1l-5.8-9.5c-0.7-6.9-5.4-11.5-5.4-11.5 -1.4-0.6-2.8-1.7-4.2-2.8l2-7.2c0.1-0.4 0.2-0.7 0.4-1.1 1.1-4.3 1.1-8.3 1.1-8.4l0-0.6 0.5-0.2c5.4-2.4 4.7-10.9 4.7-10.9 0-0.5 0.3-0.9 0.8-0.9 0.5 0 0.9 0.3 0.9 0.8C137.9 112.8 138.5 120.1 134.2 123.8zM119.1 79.2c3.4-6.7 8.4-7.2 10.4-7.2 0.4 0 0.7 0.3 0.6 0.7 0 0.4-0.3 0.6-0.7 0.6 -2.2-0.1-6.2 0.6-9.1 6.4 -0.1 0.2-0.4 0.4-0.6 0.4 -0.1 0-0.2 0-0.3-0.1C119.1 79.9 119 79.5 119.1 79.2zM117.3 93.7c0.6 0 1 0.5 1 1 0 0.6-0.5 1-1 1 -0.6 0-1-0.5-1-1C116.3 94.2 116.8 93.7 117.3 93.7zM112 93.7c0.6 0 1 0.5 1 1 0 0.6-0.5 1-1 1 -0.6 0-1-0.5-1-1C111 94.2 111.5 93.7 112 93.7zM99.7 72c2.4 0 6.8 1 9.9 7.2 0.2 0.3 0 0.7-0.3 0.9 -0.1 0-0.2 0.1-0.3 0.1 -0.2 0-0.5-0.1-0.6-0.4 -2.8-5.5-6.6-6.4-8.7-6.5 -0.4 0-0.7-0.3-0.7-0.7C99 72.2 99.3 71.9 99.7 72zM101.5 78.2c3.6 0 6.4 4.2 6.4 9.3 0 5.1-2.9 9.3-6.5 9.3 -3.6 0-6.4-4.2-6.4-9.3C95.1 82.4 98 78.2 101.5 78.2zM92 123.2C92 123.2 92 123.2 92 123.2c-0.5 0-0.8-0.4-0.9-0.8 0-0.1-0.2-6-4.3-8.2 -0.4-0.2-0.6-0.7-0.3-1.1 0.2-0.4 0.7-0.6 1.1-0.3 4.9 2.8 5.1 9.4 5.1 9.7C92.8 122.8 92.5 123.2 92 123.2zM104.1 139.4H93.5l-0.8-3.2h11.4V139.4zM113.8 136.2v3.2 1h-7.3v-1 -3.2 -1h7.3V136.2zM125.6 139.4h-9.4v-3.2h10.3L125.6 139.4zM124.3 105.1l-2.9-5.1 -2 6.4 -4.5 0.1 0 0 -0.2 0 -0.2 0v0l-4.5-0.1 -2-6.4 -2.9 5.1c-6.5-0.8-8.2-3.7-8.2-3.7 5.2 0.1 6.9-0.7 6.9-0.7 6.9-3.1 14.7-3.1 21.6 0 0 0 1.8 0.8 6.9 0.7C132.4 101.4 130.8 104.3 124.3 105.1zM128.1 96.8c-3.6 0-6.4-4.2-6.4-9.3 0-5.1 2.9-9.3 6.5-9.3 3.6 0 6.4 4.2 6.4 9.3C134.5 92.7 131.6 96.8 128.1 96.8z"></path><path d="M192.8 91.9c-1.1 0.1-2.3 0.2-3.5 0.2 -2.2 0-4.3-0.2-6.4-0.6 2.5 7.3 3.8 15.1 3.8 23.2 0 25.3-13 47.5-32.7 60.5 0.5 2.1 0.6 4.4-0.2 6.7 -0.5 1.6-2.3 2.5-3.9 2l-7.8-2.4c-0.4 0.1-0.7 0.3-1.1 0.4l-6.5 4.2c-1.1 0.7-2.5 0.7-3.6-0.1l-1-0.7c-5.1 1.1-10.3 1.7-15.7 1.7 -10.7 0-20.8-2.3-29.9-6.5l-0.7 0.5c-1.2 0.8-2.7 0.7-3.7-0.2l-3.7-3.2 -5.6 1.7c-1.6 0.5-3.4-0.4-3.9-2 -0.9-2.7-0.4-5.3 0.6-7.6 -15.6-13.3-25.4-33-25.4-55 0-4.6 0.5-9.1 1.3-13.5l-2.8 2.1L24 116.1l8-18.6 2.9-6.7 -7.3 0.5L18 91.8l12.7-10.5 5.6-4.6 -6.7-2.9 -13-5.7 11.7-1.4L40 65.3l-9.5-6.7 -7.3-5.1 11.6 1.4 5.4 0.7 -0.4-5.5 -0.6-7.9 10.6 13.5 2.9 3.7 3.5-3 2.9-2.5 1.7 8.2c1.5-0.3 3-0.4 4.5-0.4 0 0 0 0 0 0 12.9-11.9 30.1-19.2 49-19.2 13 0 25.2 3.5 35.8 9.5 0.1-3.5 0.7-6.8 1.6-10 -11.2-5.8-23.9-9.1-37.4-9.1 -19.4 0-37.2 6.8-51.2 18.1L62 45.5l-8.7 7.4L33.6 27.9l1.7 22.6L6 46.8l22 15.4L0 65.6l27.9 12.3L4.5 97.2l23.5-1.5 -14.8 34.4 19.7-15.2c0.4 44.7 36.7 80.8 81.5 80.8 45 0 81.5-36.5 81.5-81.5C195.9 106.5 194.8 99 192.8 91.9z"></path></svg>