<svg xmlns="http://www.w3.org/2000/svg" xmlns:xlink="http://www.w3.org/1999/xlink" version="1.1" id="series-2" class="series-icon" x="0" y="0" viewBox="0 0 197.3 199.9" enable-background="new 0 0 197.3 199.9" xml:space="preserve"><path d="M36.4 40.3l0.8-4.4c2.3 0.4 4.5 0 6.3-1.1 1.2-0.7 1.6-1.5 1.2-2.2l0 0c-0.4-0.7-1.1-0.7-3.6 0 -3.9 1.2-7.1 1.7-9-1.6l0 0c-1.7-3-0.6-6.5 3.3-8.7 2.7-1.6 5.3-2.1 7.9-1.6l-0.4 4.4c-2.1-0.2-4 0.2-5.4 1 -1.1 0.6-1.4 1.4-1 2l0 0c0.4 0.7 1.2 0.7 3.7 0 4.2-1.3 7.2-1.4 8.9 1.6l0 0c1.9 3.3 0.4 6.7-3.5 9C42.7 40.3 39.4 40.9 36.4 40.3z"></path><polygon points="47.5 16.4 61.7 11.6 63.1 15.8 53.7 18.9 54.6 21.6 63.1 18.8 64.4 22.6 55.9 25.4 56.9 28.2 66.3 25.1 67.7 29.2 53.4 34 "></polygon><path d="M67.2 10.4l8.7-1c2.8-0.3 4.9 0.2 6.2 1.3 1.2 0.9 1.9 2.3 2.1 4.1l0 0.1c0.3 2.8-1 4.9-3.1 6.1l5.2 5.9 -5.9 0.7 -4.4-5.1 -0.1 0 -2.2 0.3 0.7 5.6 -5.1 0.6L67.2 10.4zM76.8 18.2c1.7-0.2 2.6-1.2 2.5-2.5l0-0.1c-0.2-1.5-1.3-2.1-3-1.9l-3.3 0.4 0.5 4.4L76.8 18.2z"></path><path d="M88.5 8.7l5.2 0.2L93 27.5l-5.2-0.2L88.5 8.7z"></path><polygon points="99.2 9.1 113.9 11.8 113.1 16.2 103.4 14.4 102.9 17.1 111.7 18.8 110.9 22.7 102.2 21.1 101.6 24 111.4 25.8 110.6 30.1 95.8 27.4 "></polygon><path d="M112.1 27.6l3.9-2.1c1.2 2 2.8 3.5 4.8 4.3 1.3 0.5 2.2 0.3 2.4-0.4l0 0c0.3-0.7-0.1-1.3-2.3-2.8 -3.3-2.3-5.8-4.5-4.4-8l0 0c1.3-3.2 4.7-4.5 8.9-2.9 2.9 1.2 4.9 2.9 6.2 5.1l-3.7 2.4c-1.1-1.7-2.6-3-4.2-3.6 -1.2-0.5-1.9-0.2-2.2 0.4l0 0c-0.3 0.8 0.1 1.4 2.3 2.9 3.6 2.4 5.6 4.7 4.3 7.9l0 0c-1.4 3.5-5 4.5-9.2 2.9C116 32.5 113.5 30.4 112.1 27.6z"></path><path d="M165 92.6c-1.8 0.3-3.7 0.4-5.7 0.4 -3.7 0-7.2-0.5-10.6-1.5 0 0 0 0 0 0l-9.9 6.1 25.3 2.5L144.5 112c1.2 2.5 2.2 4.2 2.7 5.4l16.2 9 -25.2 4 17.3 18.7 -25.2-4 10.7 23.1 -22.7-11.6 3 25.3 -18-18 -4.9 25 -11.6-22.7 -12.4 22.3 -4-25.2 -18.7 17.3 4-25.2 -23.1 10.7 11.6-22.7 -25.3 3 15.1-15.2c-0.5-0.7-1.2-1.8-1.9-3.8l-20.2-4 16.9-8.6c-0.2-0.8-0.3-1.6-0.5-2.5 -0.3-1.3-0.5-2.7-0.6-4.2l-15.5-8.6 25.2-4L20.3 76.9l25.2 4L34.8 57.8l22.7 11.6 -3-25.3 18 18 4.9-25L89 59.8l12.4-22.3 4 25.2 16.3-12.6c0.4-3 1.1-5.9 2.2-8.6 -11-5.6-23.4-8.8-36.6-8.8 -44.4 0-80.4 36-80.4 80.4 0 44.4 36 80.4 80.4 80.4 44.4 0 80.4-36 80.4-80.4C167.6 106 166.7 99.1 165 92.6z"></path><path d="M190.2 55c0 17.1-13.8 30.9-30.9 30.9 -17.1 0-30.9-13.8-30.9-30.9 0-17.1 13.9-30.9 30.9-30.9C176.4 24 190.2 37.9 190.2 55z"></path><path class="white-fill" fill="#FFFFFF" d="M143.2 66.2l15.3-11.7c3.8-3 5.2-4.9 5.2-7.4 0-2.6-1.8-4.1-4.5-4.1 -2.7 0-4.9 1.6-8.1 5.2l-7.6-6.4c4.4-5.7 8.7-8.8 16.6-8.8 8.9 0 15.1 5.3 15.1 13v0.1c0 6.5-3.4 9.9-9.4 14.3l-7 4.9h16.9v9.2h-32.3V66.2z"></path><path d="M135.1 96.6c-1.4-8.4-12.3-9.2-15-8.4 -2.7 0.8-6.3 9-6.7 10.5 -0.5 1.5 7.5 5.9 9.2 6.1 1.8 0.2 3.1-1.6 3.1-1.6 0.4-0.1 3.2-0.2 1.2 8 0 0-8.8-6.5-16 2.1 -0.7-2.1-1.6-4.2-2.7-6.3 -0.1-0.2-0.2-0.3-0.3-0.5 -0.3 1.8-1.3 3.4-2.9 4.1 -2.8 1.4-6.2 0-7.7-3 -1.5-3-0.4-6.6 2.4-7.9 2.8-1.4 6.2 0 7.7 3 0.2 0.3 0.3 0.7 0.4 1 2.6-5.2 3.6-9.4 3.6-12.7 0-2.9-0.8-5.2-1.6-6.8 -1.7-3.2-3.7-6.9-9.6-11.4 -1.7-1.3-2.9-2.1-3.9-2.7 -1-0.6-1.6-0.9-2.8-1 -0.5 0-1.3 0.2-1.9 0.8 -0.6 0.6-0.6 1.3-0.6 1.7 0.1 1.6 0.7 2.1 1.1 2.9 0.5 0.7 0.9 1.3 0.9 1.3l0.1 0.1 0.1 0.1c0.3 0.2 1.1 1.7 1.7 3.5 0.7 1.8 1.3 4.1 1.8 6.2 0 0.1 0 0.2 0 0.4 0.1 0.8-0.8 2.3-1.9 3.6 -4.3-3.6-9-5.9-14-6 -1.2 0-2.3 0.1-3.5 0.4l-2 0.5 0.4 2c0 0 0 0 0 0.2 0 0.2 0 0.4 0 0.8 0 1.9-0.5 6.1-5.8 10.7 -0.5-1.2-0.9-2.4-0.8-3.5 0-0.3 0-0.5 0-0.8 0.2-1.5 0.3-3.3 0.3-5 0-3.2-0.2-6.5-0.7-9.2 -0.2-1.3-0.5-2.5-0.9-3.5 -0.2-0.5-0.4-1-0.8-1.5 -0.4-0.5-1.1-1.1-2.2-1.1 -2.2 0.2-2.6 1.6-3.2 2.7l-0.2 0.4v0.4c0 0.3-0.4 3.5-3.7 11.5 -1.6 3.9-3 8.7-3 13.4 -0.1 5 1.7 10.1 6.3 13.4 -0.1 0.9-0.1 1.7-0.1 2.6 0 0.6 0 1.2 0 1.7 -6-8.4-14.8 0-14.8 0 -5.6-7.4-2.1-8.8-1.8-8.9 0 0 1.6 1.2 3 0.3 1.3-0.9 6.1-7.9 5.3-9.1 -0.9-1.2-6.3-7.3-8.7-7 -2.4 0.3-12.9 8-11.3 16.2 0 0.2 2.7 16.9 5.2 18.9 6.9 6.9 19.6 3.8 24.6 2.2 0.2 0.9 0.3 1.9 0.5 2.6 0.9 5.9 3.5 9.4 6.9 11.7 -0.1 0.8-0.2 1.7-0.2 2.5 0 1.7 0.2 3.4 1.1 4.9 2.1 3.2 6 4.1 9.5 4.2 2.8-0.1 6-0.5 7.3-3.8 0.4-1.4 0.6-3 0.8-4.5 1.8-0.2 3.7-0.5 5.5-0.9 0.8 2.1 2 4.4 4.5 5.6 1.3 0.6 2.8 0.9 4.2 0.9 2.1 0 4.1-0.6 5.7-1.4 1.6-0.9 3-2 3.4-4.2 0-0.2 0-0.4 0-0.5 0-1-0.2-2.3-0.6-3.8 -2.3 0.5-4.9 0.7-7.5 0.7 -3.9 0-7.9-0.5-12-1.6 -7.3-1.9-10.1-5.8-11.1-8.7 -0.4-1.2-0.6-2.5-0.7-3.7 -3.2-0.7-5.9-1.8-7.8-3 -3.7-2.5-5.1-6.9-5.1-6.9 19.2-4.9 39-5.2 39-5.2s1.5 4.8-1.2 8.4c-2.5 3.4-6.7 6.1-13.3 7.1 0.2 0.4 0.4 0.8 0.7 1.1 1.8 1.9 5.8 2.5 10.8 1.6 4.7-0.9 7.5-2.8 9.9-4.5 0 0 0.1-0.1 0.1-0.1 0.2-1.3 0.3-2.7 0.3-4.1 6.6-0.1 20.3-1.4 26.5-9.4C141.8 115.3 135.1 96.8 135.1 96.6zM75 115.5c-2.8 1.4-6.2 0-7.7-3 -1.5-3-0.4-6.6 2.4-7.9 2.8-1.3 6.2 0 7.7 3.1C78.8 110.6 77.8 114.2 75 115.5z"></path><path d="M103.6 102.7c-1.5 0-2.6 1.1-2.6 2.5 0 1.4 1.2 2.5 2.6 2.5 1.4 0 2.6-1.1 2.6-2.5C106.3 103.8 105.1 102.7 103.6 102.7z"></path><path d="M72.3 110.8c-1.5 0-2.6 1.1-2.6 2.5 0 1.4 1.2 2.5 2.6 2.5 1.5 0 2.6-1.1 2.6-2.5C75 111.9 73.8 110.8 72.3 110.8z"></path><path d="M119.1 130c-0.7 0-1.3 0.1-2 0.4 -1.3 0.5-2.5 1.3-3.8 2.3 -0.3 0.2-0.7 0.5-1 0.7 -2.2 1.5-5.1 3.2-9.4 4 -5.5 1-9.9 0.3-12.1-2 -0.5-0.5-0.9-1.2-1.1-1.9 -0.2-0.7-0.3-1.5-0.3-2.3 0.3-4.1 3.2-5 5.6-5 0.7 0 1.5 0.1 2.3 0.2 -0.5-2.2-2.9-2.9-7.2-2l-0.3 0.1 -0.3-0.2c-0.7-0.5-1.5-0.8-2.3-0.8 -1.6 0-3.4 1.2-4.9 3.1 -0.8 1.1-1.7 3.7-1.5 6.7 0.1 1 0.2 2 0.6 3 1.4 3.8 4.8 6.4 10.1 7.8 4 1 8 1.5 11.7 1.5 2.5 0 4.9-0.2 7.1-0.7 4.5-0.9 8.3-2.7 10.7-5.2 1.7-1.7 2.5-3.7 2.5-5.6C123.5 131.7 121.6 130 119.1 130z"></path></svg>