<svg xmlns="http://www.w3.org/2000/svg" xmlns:xlink="http://www.w3.org/1999/xlink" version="1.1" id="series-3-icon" class="series-icon" x="0" y="0" viewBox="0 0 205.1 199.9" enable-background="new 0 0 205.1 199.9" xml:space="preserve"><path d="M44 40.3l0.8-4.4c2.3 0.4 4.5 0 6.3-1 1.2-0.7 1.6-1.5 1.2-2.2l0 0c-0.4-0.7-1.1-0.7-3.6 0 -3.9 1.2-7.1 1.7-9-1.6l0 0c-1.7-3-0.6-6.5 3.3-8.7 2.7-1.6 5.3-2.1 7.9-1.6l-0.4 4.4c-2.1-0.2-4 0.2-5.4 1 -1.1 0.6-1.3 1.4-1 2l0 0c0.4 0.7 1.2 0.7 3.7 0 4.2-1.3 7.2-1.4 8.9 1.6l0 0c1.9 3.3 0.4 6.7-3.5 9C50.3 40.3 47 41 44 40.3z"></path><path d="M55.1 16.4l14.2-4.8 1.4 4.2 -9.3 3.1 0.9 2.7 8.5-2.8 1.3 3.9 -8.5 2.8 0.9 2.8 9.5-3.2 1.4 4.2L61 34 55.1 16.4z"></path><path d="M74.9 10.4l8.7-1c2.8-0.3 4.9 0.2 6.2 1.3 1.2 0.9 1.9 2.3 2.1 4.1l0 0.1c0.3 2.8-1 4.9-3.1 6.1l5.2 5.9 -5.9 0.7 -4.4-5.2 -0.1 0 -2.2 0.3 0.7 5.6 -5.1 0.6L74.9 10.4zM84.4 18.3c1.7-0.2 2.6-1.2 2.5-2.5l0-0.1c-0.2-1.4-1.3-2.1-3-1.9l-3.4 0.4 0.5 4.4L84.4 18.3z"></path><path d="M96.1 8.7l5.2 0.2 -0.6 18.6 -5.2-0.2L96.1 8.7z"></path><path d="M106.9 9.2l14.7 2.7 -0.8 4.3 -9.7-1.8 -0.5 2.8 8.8 1.6 -0.7 4 -8.8-1.6 -0.5 2.9 9.8 1.8 -0.8 4.3 -14.9-2.7L106.9 9.2z"></path><path d="M119.8 27.7l3.9-2.1c1.2 2 2.8 3.5 4.8 4.3 1.3 0.5 2.2 0.3 2.4-0.4l0 0c0.3-0.7-0.1-1.3-2.3-2.8 -3.3-2.3-5.8-4.5-4.4-8l0 0c1.3-3.2 4.7-4.5 8.9-2.9 2.9 1.2 4.9 2.9 6.2 5.1l-3.7 2.4c-1.1-1.7-2.6-3-4.2-3.6 -1.2-0.5-1.9-0.2-2.2 0.4l0 0.1c-0.3 0.8 0.1 1.4 2.3 2.9 3.6 2.4 5.6 4.7 4.3 7.9l0 0.1c-1.4 3.5-5 4.5-9.2 2.9C123.7 32.5 121.1 30.4 119.8 27.7z"></path><path d="M133.3 96.3c2.5-3.5 6.6-6.8 9.9-9.5 1.6-1.3 3-2.4 4-3.4 0.2-0.2 0.6-0.3 0.9-0.1 0.3 0.2 0.5 0.5 0.4 0.8 -0.4 2.5-0.8 5.5-0.2 8.1 0.6-0.7 1.1-1.5 1.6-2.6 1.2-2.8 2.6-5 4-7.3 0.4-0.6 0.8-1.3 1.2-1.9 -2 0.1-4.4 0.5-5.7 0.7C138.9 83.2 134.7 89.7 133.3 96.3z"></path><path d="M159.5 90.1c0.5 0.5 1.1 1.1 1.8 1.6 0.8-1.7 1-3.2 0.2-5.3 -0.1-0.3 0-0.5 0.1-0.8 0.2-0.2 0.4-0.3 0.7-0.3 5.7 0.6 8.7 4.4 11.2 8.5 -0.2-0.7-0.4-1.4-0.7-2.1 0-0.1-0.1-0.2-0.1-0.3 -4-8.6-14-10.7-15.9-11 0 0.1 0 0.1 0 0.2 0 0.1 0 0.2 0 0.2C156.2 84.7 157 87.5 159.5 90.1z"></path><path d="M167.1 24.1c-13.5 0-24.9 8.6-29.2 20.6 -12.4-7.8-27.1-12.3-42.8-12.3 -35.3 0-65.2 22.7-76 54.3 2.6-0.5 5.1-0.8 7.5-0.8 0.7 0 1.8 0.1 2.6 0.1 10.8-25.9 36.3-44.1 66-44.1 15.2 0 29.4 4.8 41 13 0 0.1 0 0.2 0 0.3 0 9.4 4.2 17.8 10.8 23.4 2-0.4 6.5-1.2 9.6-1.3 0 0 0 0 0 0 0.1 0 0.3 0 0.4 0 4.1 0.5 10.9 3 15.5 8.2C187 82.9 198 70.3 198 55 198 37.9 184.1 24.1 167.1 24.1zM184.9 61.7c0 8.1-6.5 13.2-15.4 13.2 -7.7 0-13.1-2.8-16.9-7.1l6.9-6.9c2.8 2.9 5.9 4.5 9.5 4.5 3.1 0 5.1-1.6 5.1-4v-0.1c0-2.6-2.3-4.1-6.5-4.1H163l-1.6-5.7 9.2-8.2h-15.2v-8.9h28.8v7.9l-9.5 8.1c5.7 1.2 10.3 4.4 10.3 11.2V61.7z"></path><path d="M16.4 104.6c1.7 1.4 2.8 1.9 4.2 2.4 0.7 0.3 1.6 0.6 2.6 1.1 2.5 1.3 3.8 3.1 5.2 5 0.2 0.3 0.4 0.6 0.6 0.9 0.7-3.3 0.5-9.3-0.3-11.7 -1.1-0.7-2.2-1.6-3.3-3.1 -1.8-2.5-3.6-4.3-5.7-6.3 0.7 3.2 0.2 6.1-1.5 9C17.7 102.7 17 103.6 16.4 104.6z"></path><path d="M12.6 96.8c0.3-0.1 0.5 0 0.8 0.1 0.2 0.2 0.3 0.4 0.3 0.7 -0.3 2.5 0.3 4.1 1.6 5.7 0.6-0.8 1.1-1.6 1.5-2.3 2-3.3 2.2-6.5 0.5-10.4 0-0.1 0-0.2-0.1-0.3 0 0 0-0.1 0-0.1C15 91.3 3.4 96.9 3 108.9 4.6 103.8 6.7 98.9 12.6 96.8z"></path><path d="M26.5 89c-2.3 0-4.9 0.3-7.7 0.9 0.6 0.6 1.2 1.2 1.8 1.7 2.1 2.1 4.1 4 6.1 6.7 0.8 1.1 1.6 1.8 2.5 2.4 0-3-1.2-6.1-2.2-8.7 -0.1-0.3 0-0.7 0.2-0.9 0.3-0.2 0.6-0.2 0.9-0.1 1.3 0.8 3 1.6 5 2.6 4.3 2 9.4 4.5 12.9 7.6C43.2 95 37.8 89.5 27.9 89c0 0 0 0 0 0C27.4 89 26.9 89 26.5 89z"></path><path d="M151.4 90.3c-0.7 1.6-1.4 2.6-2.3 3.5 -0.2 2.2 0.8 7.5 2.2 10.4 0.1-0.3 0.2-0.5 0.3-0.8 0.8-2 1.6-3.9 3.6-5.6 0.8-0.7 1.5-1.1 2.1-1.6 1.2-0.8 2.1-1.4 3.2-3 -0.8-0.7-1.6-1.3-2.2-1.9 -2.2-2.2-3.3-4.7-3.3-7.6C153.7 85.8 152.5 87.8 151.4 90.3z"></path><path d="M172.2 118.5c-0.1 0.3-0.3 0.5-0.5 0.8 -0.1 0.2-4.5 4-6 5.3 -2.4 15.1-9.5 28.5-19.8 38.9 0 1.3-0.8 2.5-2.1 2.9 -0.4 0.1-1 0.4-1.5 0.5 -12.6 11.1-29.1 17.9-47.1 17.9 -11.9 0-23.1-3-33-8.1 -3.1-0.8-17-4.5-17.3-4.6 -0.7-0.3-1.3-0.9-1.6-1.6 -1.6-3.4-0.8-7.4-0.5-8.7 -5.2-5.7-9.5-12.2-12.7-19.3 -2.4-0.9-8.1-3-11.1-4.1 10.7 31.9 40.7 55 76.3 55 44.5 0 80.5-36 80.5-80.5 0-0.7-0.1-1.5-0.1-2.2C174.6 113.1 173.6 115.8 172.2 118.5z"></path><path d="M30.8 139.5c1.5 0.4 3.1 0.8 4.7 1.1 0 0 19.9 2.2 33.9-7.7 1 1.2 2.1 2.4 3.2 3.5 0 0-17.4 6.2-22 21.8 0 0-4.5 1.5-5.3 5.6 0 0.7 0 3.4 0.8 5.2l9.2 3.1c8.2 2.1 20.3 3.5 29.2-2.7 0 0 1.8-6.3-3.3-11.1 0 0 0.2-8.9 11.3-11.7 0 0 14-1.3 18 6.3 0 0-6.8 3.1-5.7 10.5 0 0 18.5 6.9 37.9 0 0 0-1.4-17.8-12.6-23.3 0 0-1.1-5.1-4.8-8.3 13 2.5 25.9-2.2 25.9-2.2 6.3-2.8 11.4-6.6 14.6-9.3l3.6-3.2c3.8-7.5 5.1-13.5 5-18.2 0-0.1 0-0.3-0.1-0.4 0-0.1 0-0.2 0-0.2l-0.7-1.2c-2.6-4.5-5-8.9-10.2-10 0.5 2.2 0.1 3.9-0.8 5.7 1.7 1.5 3.3 3 3.9 4.5 2.6 7-0.5 14.7-7.1 17.7 -0.1 0-0.2 0.1-0.3 0.1 -0.3 0-0.6-0.2-0.7-0.5 -0.2-0.4 0-0.9 0.4-1 5.8-2.6 8.6-9.5 6.2-15.7 -0.4-1.2-1.8-2.5-3.3-3.7 -1.3 1.8-2.4 2.5-3.6 3.3 -0.6 0.4-1.2 0.8-2 1.5 -1.7 1.4-2.4 3.1-3.2 5 -0.3 0.7-0.6 1.5-1 2.3 -0.1 0.2-0.4 0.4-0.6 0.4 0 0 0 0-0.1 0 -0.2 0-0.5-0.1-0.6-0.3 -1.7-2.3-3-7.9-3.2-11.3 -0.2 0.2-0.4 0.3-0.7 0.5 -0.5 0.4-1 0.8-1.6 1.2 -2.9 2.4-2.8 5.2-2.7 8.4 0.1 2.5 0.1 5.4-1.4 8.2 -0.1 0.3-0.4 0.4-0.7 0.4 -0.1 0-0.3 0-0.4-0.1 -0.4-0.2-0.5-0.7-0.3-1.1 1.3-2.4 1.2-4.9 1.2-7.4 -0.1-3.3-0.2-6.8 3.3-9.6 0.6-0.5 1.1-0.9 1.6-1.3 0.4-0.3 0.8-0.6 1.1-0.9 -0.7-2.5-0.6-5.1-0.3-7.5 -0.7 0.6-1.6 1.3-2.5 2 -4.4 3.6-10.1 8.2-11.5 12.7 -0.1 1.5-0.1 2.9 0 4.2 0 0 0 0.1 0 0.1 0.3 4.6 1.3 8 1.3 8l-2 3.8 0.2 0.6c-2-3.3-3.8-5.1-5.2-6 -0.1-0.8-0.3-1.6-0.6-2.4 0 0 2.5-27.1-14.6-36.3l-1.9-15 -10.7 8.3 -10.8-1.2L77.2 51.3l-6.9 18.5c0 0-6.2 3.9-9.3 8.4l-12.8 0.6L53 91.9c0 0-4.9 13.8 4.4 20.4 0 0 0.2 0.6 0.7 1.7 -1.1 0.6-3.7 2.7-5.7 9.1l0-0.7 -3.1-3.5c0 0 0.4-6.6-1.7-13.5 -2.7-4.3-9.7-7.6-15.2-10.3 -1.2-0.6-2.3-1.1-3.2-1.6 0.9 2.5 1.8 5.3 1.6 8.1 0.4 0.2 0.9 0.4 1.4 0.6 0.6 0.3 1.3 0.6 2 0.9 4.3 2.1 5.1 5.7 5.8 9.2 0.6 2.6 1.1 5.2 3.1 7.5 0.3 0.3 0.3 0.8-0.1 1.1 -0.2 0.1-0.3 0.2-0.5 0.2 -0.2 0-0.4-0.1-0.6-0.3 -2.3-2.6-2.9-5.4-3.5-8.2 -0.7-3.4-1.4-6.4-5-8.1 -0.7-0.3-1.3-0.6-1.9-0.9 -0.3-0.1-0.6-0.3-0.9-0.4 0.7 3.6 0.7 9.9-0.5 12.7 -0.1 0.3-0.3 0.4-0.6 0.5 0 0-0.1 0-0.1 0 -0.2 0-0.5-0.1-0.6-0.3 -0.6-0.7-1.1-1.4-1.6-2.1 -1.3-1.8-2.5-3.4-4.6-4.5 -0.9-0.5-1.7-0.8-2.4-1.1 -1.4-0.5-2.8-1.1-4.6-2.6 -1.2 1.7-2.4 3.5-2.6 4.8 -0.9 7.1 3.7 13.7 10.6 15 0.4 0.1 0.7 0.5 0.6 0.9 -0.1 0.4-0.4 0.6-0.8 0.6 -0.1 0-0.1 0-0.1 0 -7.7-1.5-12.9-8.8-11.9-16.8 0.2-1.8 1.6-3.8 3-5.8 -1.4-1.7-2.3-3.4-2.3-5.9 -5.2 2.5-6.7 7.6-8.3 13.1l-0.4 1.4c0.9 5.2 3.9 11.4 10.1 18.7 0 0 1.2 0.7 3.1 1.8L30.8 139.5 30.8 139.5zM108.9 114.1c-1.2 2.4-3.1 4.4-5.3 5.9 0 0-8.5 4.4-27.7 0.2 0 0-8.6-1.6-11.5-4.6l4-1 3.5 2.9 4-2.1 5.6 3.7 4.2-2.3 6.7 2.4 4-3.2 5.9 2.3 2.9-7h4.8C109.7 112.4 109.4 113.3 108.9 114.1zM108.3 90c0 0-11.3 10-20.4 5.1 0 0 2.5-2.8 5.8-7.7 0 0.1 0 0.2-0.1 0.3 -0.2 2.8 1.9 5.2 4.7 5.4 2.8 0.2 5.2-1.9 5.4-4.7 0.2-2.8-1.9-5.2-4.7-5.4 -1-0.1-2 0.2-2.8 0.6 2-2.2 5.6-3.3 8.4-2.6C108.4 82.2 108.1 86.8 108.3 90zM87.1 82.5c4.1-4.1 10.1-6.1 18-5.9 0.4 0 0.8 0.4 0.8 0.8 0 0.4-0.4 0.8-0.8 0.8C97.7 78 92 79.8 88.3 83.6c-5 5.1-4.7 12.1-4.7 12.1 0 0.4-0.3 0.8-0.7 0.8 0 0 0 0 0 0 -0.4 0-0.8-0.3-0.8-0.7C81.9 95.5 81.6 88.1 87.1 82.5zM97.9 102.3c3-1 4.9-1.9 7-4.2 0.9-1 2-2.1 3.2-2.6 3.3-1.4 3.7 1.8 3.8 4.5l-3.9 4.5 -6.7-1.9 -2.8 5.7 -5.2-3.1 -2.8 5.9 -6-3.1 -4.3 5.3 -5.4-3.8 -3 3.3 -7.2-1.3c0.1-0.1 0.2-0.2 0.3-0.3 0 0 0.8-2.2 12.1-4.5C83.9 105.8 91.1 104.5 97.9 102.3zM54.7 90c-0.1-0.4 0.1-0.9 0.6-1 14-3.7 19.2 8 19.3 8.1 0.2 0.4 0 0.9-0.4 1 -0.1 0-0.2 0.1-0.3 0.1 -0.3 0-0.6-0.2-0.7-0.5 -0.2-0.4-4.8-10.5-17.4-7.2C55.2 90.7 54.8 90.4 54.7 90zM55.7 97.5c0.7-2.4 2.7-2.5 4.1-2.2 -0.9 0.7-1.5 1.8-1.5 3 -0.2 2.4 1.6 4.5 4 4.6 2.1 0.1 4-1.3 4.5-3.2 1.7 0.6 2.8 0.4 2.8 0.4 0.7 1.6-1.5 2.4-1.5 2.4 -3.5 0.7-8.1 4.4-8.1 4.4C53.2 105.8 55.7 97.5 55.7 97.5z"></path></svg>