<svg xmlns="http://www.w3.org/2000/svg" xmlns:xlink="http://www.w3.org/1999/xlink" version="1.1" id="minis-icon" class="series-icon" x="0" y="0" viewBox="0 0 160.4 187.2" enable-background="new 0 0 160.4 187.2" xml:space="preserve">
  <path d="M80.2 32.9C39.3 32.8 6.1 66.1 6.1 107c0 40.9 33.2 74.1 74.1 74.1 40.9 0 74.1-33.2 74.1-74.1C154.3 66.1 125.4 33.1 80.2 32.9zM80.2 172.8c-36.3 0-65.8-29.5-65.8-65.8 0-36.3 29.5-65.8 65.8-65.8 36.3 0 65.8 29.5 65.8 65.8C146 143.3 116.5 172.8 80.2 172.8z"></path>
  <path d="M41 14.4l5.1-1.5 6.2 5.5 2.1-8 5.1-1.5 5.2 17.4 -4.8 1.4 -3-10 -2.4 8.2 -0.1 0 -6.5-5.4 3 10 -4.7 1.4L41 14.4z"></path>
  <path d="M65.5 8.4l5-0.5 1.9 18.1 -5 0.5L65.5 8.4z"></path>
  <path d="M76.3 7.2L81 7.6l6.8 10.1 0.7-9.6 5 0.3 -1.3 18.2 -4.4-0.3 -7.1-10.5 -0.7 10 -5-0.3L76.3 7.2z"></path>
  <path d="M98.9 9.4l4.9 1.1 -4 17.8 -4.9-1.1L98.9 9.4z"></path>
  <path d="M102.3 27l3.7-2.3c1.2 1.9 2.9 3.3 4.9 4 1.3 0.4 2.1 0.2 2.4-0.5l0 0c0.2-0.7-0.2-1.3-2.4-2.6 -3.4-2.1-5.9-4.1-4.7-7.6l0 0c1.1-3.2 4.4-4.7 8.5-3.3 2.9 1 5 2.6 6.3 4.7l-3.5 2.6c-1.2-1.6-2.7-2.8-4.3-3.3 -1.2-0.4-1.9-0.1-2.1 0.5l0 0c-0.3 0.8 0.2 1.3 2.4 2.7 3.7 2.2 5.7 4.3 4.6 7.5l0 0c-1.2 3.5-4.7 4.7-8.9 3.3C106.3 31.5 103.8 29.6 102.3 27z"></path>
  <path d="M65.3 101.9c0.9-0.8 1.9-1.4 2.8-1.8 -2-1.1-4.8-2.9-4.4-5.5 0.5-4.1-15.1 7.6-2.9 19.5C60.2 109.2 61.7 105.2 65.3 101.9z"></path>
  <path d="M99.8 104.1c1.8 2.2 2.8 4.9 2.9 7.7 0.1 1.4-0.1 2.9-0.5 4.4 -0.1 0.4-0.2 0.7-0.3 1 14.4-8.7 2.3-24 2-20 -0.2 3-4.1 4.2-6.3 4.7C98.3 102.6 99 103.2 99.8 104.1z"></path>
  <path d="M72.4 149.2c0-1.5 0.8-2.6 0.8-2.6s2.7 2 5.2 2.7c0.3 0.1 0.6 0.2 0.8 0.2 0.2 0 0.3 0 0.5 0.1 0.2 0 0.5 0.1 0.7 0 0.2 0 0.3 0 0.5 0l0 0c2.7-0.2 4.9-0.8 6.4-2.6 0 0 1.1 1.2 0.6 3.9 -0.2 1.2-0.4 2.1-0.3 2.8l0 0c0 0.2 0.1 0.4 0.1 0.6 0 0 0 0 0 0 0.1 0.2 0.2 0.3 0.3 0.5 0 0 0 0 0.1 0.1 0.1 0.1 0.3 0.3 0.5 0.4 0 0 0.1 0.1 0.1 0.1 0.3 0.2 0.5 0.3 0.9 0.5 0.6 0.3 1.1 0.5 1.6 0.8 0.4 0.2 0.8 0.4 1.2 0.6 0.1 0 0.2 0.1 0.2 0.1 0.4 0.2 0.7 0.3 1 0.4 0 0 0.1 0 0.1 0 0.3 0.1 0.5 0.1 0.8 0.1 0 0 0.1 0 0.1 0 0.2 0 0.3 0 0.5-0.1 0.8-0.3 0.5-0.9 0.5-0.9s1.1 1.3 2.9 1.6c0.2 0 0.4 0 0.5 0 0.1 0 0.1 0 0.2 0 0.1 0 0.2 0 0.2 0 0.1 0 0.1 0 0.1-0.1 0.1 0 0.1-0.1 0.1-0.1 0 0 0.1-0.1 0.1-0.1 0 0 0.1-0.1 0.1-0.1 0 0 0-0.1 0.1-0.1 0 0 0-0.1 0-0.1 0 0 0-0.1 0-0.1 0 0 0-0.1 0-0.1 0 0 0 0 0-0.1 0 0 0-0.1 0-0.1 0 0 0 0 0 0 0 0 0-0.1 0-0.1s0 0 0.1 0.1c0 0 0 0 0 0 0.1 0 0.1 0.1 0.2 0.2 0 0 0.1 0 0.1 0.1 0.1 0.1 0.2 0.1 0.3 0.2 0 0 0.1 0.1 0.1 0.1 0.1 0.1 0.2 0.2 0.3 0.2 0.1 0 0.1 0.1 0.2 0.1 0.1 0.1 0.2 0.1 0.3 0.2 0.1 0 0.1 0.1 0.2 0.1 0.1 0.1 0.2 0.1 0.3 0.2 0.1 0 0.1 0.1 0.2 0.1 0.1 0 0.2 0.1 0.3 0.1 0.1 0 0.1 0 0.2 0 0.1 0 0.2 0 0.3 0 1.2-0.1 0.2-2.4-0.7-3.8 0 0-0.1-1.6-1.2-2.9 -0.6-0.7-1.7-1.9-2.7-3 0-0.1 0-0.2-0.1-0.4 -0.3-1.2-1.1-2.2-1.9-2.9 0 0 0-0.1 0-0.1 0.2-0.3 0.3-0.8 0.3-1.6 -0.1-1.1-0.7-2.1-1.3-2.8 0.3-0.3 0.4-0.8 0.4-1.7 0-0.3-0.1-0.6-0.2-0.9 0-0.1-0.1-0.2-0.1-0.4 -0.1-0.1-0.1-0.3-0.2-0.4 -0.1-0.2-0.2-0.3-0.3-0.5 0-0.1-0.1-0.1-0.1-0.2 -0.1-0.2-0.3-0.4-0.4-0.5 -0.1-0.1-0.2-0.2-0.3-0.4 0.1-0.3 0.1-0.6 0.1-1 0-0.1-0.1-0.2-0.1-0.3 -0.3-1.6-1.4-2.9-2.2-3.6 0.7-0.4 1.3-0.7 2-1.1 1.6-0.9 2-2.5 2.8-4.1 0.8-1.6 2.7-1.9 3.1-3.9 0.1-0.3 0.1-0.6 0.1-0.9 0 0 0 0 0 0 0-0.6-0.2-1.1-0.4-1.6 0 0 0 0 0 0 -0.1-0.2-0.2-0.5-0.2-0.7 0-0.1 0-0.1 0-0.2 -0.1-0.3-0.1-0.5-0.1-0.8 0-0.3 0.1-0.7 0.2-1 0-0.1 0.1-0.2 0.1-0.3 0.1-0.3 0.2-0.5 0.3-0.8 0 0 0 0 0 0 0.1-0.3 0.2-0.6 0.3-0.9 0.3-1.3 0.5-2.5 0.4-3.8 -0.1-2.4-1-4.7-2.5-6.6 -0.4-0.4-0.7-0.8-1.1-1.2 -0.1-0.1-0.1-0.1-0.2-0.2 -0.4-0.3-0.7-0.6-1-0.8 0 0 0 0 0 0 -1.5-1.1-2.8-1.4-2.8-1.4s-0.1-0.8-1.1-1.3c-0.4-0.2-0.8-0.3-1.2-0.4 -0.1 0-0.2 0-0.4 0 -0.2 0-0.5-0.1-0.7-0.1 -0.2 0-0.4 0-0.6 0 -0.1 0-0.2 0-0.3 0 -0.3 0-0.5 0.1-0.8 0.1 -0.7-0.3-1.5-0.6-2.2-0.8 0 0-0.3-0.8-0.8-1.7 0-0.1-0.1-0.1-0.1-0.2 -0.1-0.1-0.2-0.3-0.3-0.4 -0.1-0.1-0.1-0.2-0.2-0.3 -0.1-0.1-0.2-0.2-0.3-0.3 -0.1-0.1-0.1-0.2-0.2-0.3 -0.1-0.1-0.2-0.1-0.3-0.2 -0.1-0.1-0.2-0.2-0.3-0.2 -0.1 0-0.2 0-0.3-0.1 -0.1 0-0.2-0.1-0.3-0.1 -1.4 0-3.5 3.2-3.5 3.2s-0.9 0.1-2.2 0.5c-0.3-0.1-0.6-0.2-0.9-0.2 -0.1 0-0.2 0-0.3 0 -0.2 0-0.5-0.1-0.7-0.1 -0.1 0-0.2 0-0.3 0 -0.4 0-0.7 0-1.1 0.1 -1.5 0.4-1.7 1.3-1.6 1.8 -0.1 0-0.3 0-0.4 0 -0.1 0-0.2 0-0.3 0.1 -0.1 0-0.1 0-0.2 0 -0.2 0-0.3 0.1-0.5 0.1 0 0 0 0 0 0 -0.2 0-0.4 0.1-0.6 0.2 -0.3 0.1-0.6 0.2-0.9 0.3 -0.1 0-0.1 0-0.2 0.1 -0.2 0.1-0.5 0.2-0.7 0.3 -0.1 0-0.2 0.1-0.3 0.1 -0.2 0.1-0.4 0.3-0.7 0.4 -0.1 0.1-0.2 0.1-0.3 0.2 -0.3 0.2-0.6 0.4-0.8 0.7 -0.3 0.3-0.6 0.6-0.9 1 -0.1 0.1-0.2 0.2-0.3 0.3 -0.2 0.2-0.4 0.5-0.6 0.7 -0.1 0.1-0.2 0.3-0.3 0.5 -0.2 0.2-0.3 0.5-0.5 0.7 -0.1 0.2-0.2 0.4-0.3 0.5 -0.1 0.3-0.2 0.5-0.4 0.8 -0.1 0.2-0.1 0.4-0.2 0.6 -0.1 0.3-0.2 0.6-0.2 0.9 0 0.2-0.1 0.4-0.1 0.6 -0.1 0.4-0.1 0.8-0.1 1.2 0 0.2 0 0.4 0 0.6 0 0.6 0 1.3 0.1 1.9 0.1 0.7 0.2 1.5 0.4 2.3 0 0.1-0.1 0.3-0.2 0.4 -0.1 0.2-0.2 0.4-0.3 0.6 0 0 0 0 0 0 -0.1 0.2-0.2 0.4-0.3 0.6 0 0 0 0 0 0.1 -0.1 0.2-0.1 0.5-0.2 0.8 0 0 0 0 0 0 0 0.2 0 0.5 0 0.7 0 0 0 0 0 0.1 0 0.3 0.1 0.5 0.2 0.8 0 0 0 0 0 0 0 0.1 0.1 0.1 0.1 0.2 0.1 0.2 0.3 0.5 0.5 0.7 1.5 1.8 1.3 4.9 2.9 6.5 1.1 1.2 2.9 2.2 4.3 3.2 0 0-0.3 1.2-0.3 1.8 0 0.1 0 0.1 0 0.2 -0.4 0.6-0.8 1.4-0.9 2.2 0 0.1 0 0.2 0 0.2 0 0.4 0 0.7 0 0.9 0 0.2 0.1 0.4 0.2 0.5 0 0 0 0.1 0 0.1 0 0 0 0.1 0 0.1 -0.8 0.6-1.8 1.5-2.2 2.7 -0.2 0.6-0.2 1.1-0.2 1.4 -1 0.6-2.2 1.6-2.8 3.1 -0.2 0.7-0.2 1.2-0.1 1.5 -1 0.6-2.3 1.6-2.8 3.1 0 0 0 0.1 0 0.1 -1.8 2-3.9 4.3-4.2 4.7 -0.5 0.7-4.3 4.4-2.5 4.5 0.2 0 0.3 0 0.5 0 0.3 0 0.6 0 0.8-0.1 0 0 0.1 0 0.1 0 0.2 0 0.3-0.1 0.5-0.1 0 0 0 0 0.1 0 0.1 0 0.2-0.1 0.2-0.1 0 0 0 0 0 0 0 0 0.1 0 0.1 0s-1.1 2.2 0 2.2c1.1 0 3.3-0.4 4.2-0.7 0 0-0.8 1.7 0.8 1.9 0.1 0 0.3 0 0.5 0 0.1 0 0.3 0 0.4-0.1 0.2 0 0.4-0.1 0.6-0.1 0.2 0 0.3-0.1 0.5-0.1 0.3-0.1 0.6-0.2 0.9-0.3 0.1 0 0.2-0.1 0.3-0.1 0.4-0.2 0.8-0.4 1.2-0.6 0 0 0.1 0 0.1-0.1 1.9-1.1 3.9-2.6 5-4.7h0c0.1-0.1 0.1-0.2 0.2-0.3C73.3 150.2 72.4 150.7 72.4 149.2zM90.1 103.8c2.3-1.1 5.6 0.9 7.4 4.5 1.7 3.6 1.2 7.5-1.1 8.6 -2.3 1.1-5.6-1.1-8.4-4.4C88.2 109.1 87.8 104.9 90.1 103.8zM84.4 112.9c0.3-0.3 0.9-0.1 1.3 0.4 0.4 0.5 0.4 1.1 0.1 1.3 -0.3 0.3-0.9 0.1-1.3-0.4C84.1 113.8 84.1 113.2 84.4 112.9zM78.5 112.7c0.4-0.5 1-0.7 1.3-0.4 0.3 0.3 0.3 0.9-0.1 1.3 -0.4 0.5-1 0.7-1.3 0.4C78 113.7 78.1 113.1 78.5 112.7zM65.7 107.8c1.7-3.6 5-5.7 7.4-4.5 2.3 1.1 1.9 5.3 2.1 8.7 -2.8 3.3-6.1 5.5-8.4 4.4C64.5 115.2 64 111.4 65.7 107.8zM70 122.5c-1.4-0.3-2.8-1-4.3-2.2 0 0 2.5 0.9 7.3-1.7 1 1.4 2.3 2 3.1 1.6 1-0.6 1.6-3.6 1.6-3.6 1.1-0.1 2.3-0.1 3.7 0 1.5 0.1 2.8 0.3 3.9 0.7 -0.1 0.7-0.5 3.8 1.1 4.2 1.3 0.3 2.3-0.9 2.8-1.6 4.3 3 7.8 3.1 7.8 3.1 -1.4 1.2-3.1 1.5-5 1.5 -0.3-0.9-0.9-2.5-1.7-2.8 -0.9-0.4-2.3 0.5-3.1 2.2 -1.9-0.4-3.9-0.9-5.8-1 -2.4-0.1-4.5 0.1-6.4 0.2 -0.8-2.1-2.4-3.2-3.4-2.7C70.9 120.3 70.4 121.6 70 122.5z"></path>
  <path d="M86.2 150.6c0-0.1 0-0.3 0.1-0.4 -1.6 0.8-3.4 1.1-5.2 1.3 0.2 0.5 0.7 1 1.5 1.4 0.9 0.5 2 0.7 3.2 0.7 0-0.8 0.1-1.6 0.2-2.4L86.2 150.6z"></path>
  <path d="M74.3 149.7c0.3 1.3 0.1 2.3-1.3 5.2 1.6 0.1 3.4-0.1 4.6-0.7 1.5-0.8 1.8-1.8 1.6-2.7 -1.8-0.2-3.7-1.1-5-1.9C74.3 149.6 74.3 149.6 74.3 149.7z"></path>
  <path d="M72 110.9c-0.9 2.1-2.8 3.3-4.2 2.7 -1.4-0.6-1.8-2.8-0.9-4.9 0.9-2.1 2.8-3.3 4.2-2.7C72.5 106.6 72.9 108.8 72 110.9z"></path>
  <path d="M91.2 111.5c0.9 2.1 2.8 3.3 4.2 2.7 1.4-0.6 1.8-2.8 0.9-4.9 -0.9-2.1-2.8-3.3-4.2-2.7C90.7 107.2 90.3 109.4 91.2 111.5z"></path>
  <path d="M102.4 122.1c-0.1 0-0.2 0-0.3 0 0 0.4 0 0.8-0.1 1.3 -0.4 1.7-1.5 2.6-2.3 3.2 -0.5 0.4-0.8 0.7-1 1 -0.2 0.3-0.3 0.6-0.4 0.9 -0.6 1.3-1.3 2.9-3.1 3.9 0 0 0 0 0 0 0.4 0.6 0.7 1.3 1 2.1 0.3-0.2 0.6-0.3 1-0.3 0.2 0 0.5 0.1 0.9 0.2 1 0.3 2.8 1.3 4.6 1.3 1.2 0 2.4-0.5 3.3-2 3.1-5.3 9.1-3.3 10.6-5.5C118 126.2 110.6 122.1 102.4 122.1z"></path>
  <path d="M60.4 120.3c-0.1 0-0.2 0-0.3 0 -0.1 0-0.2 0-0.2 0 -0.4 0-0.8 0-1.1 0 -8.2 0-15.6 4.1-14.1 6.1 1.6 2.2 7.5 0.2 10.6 5.5 0.9 1.5 2.1 2 3.3 2 1.7 0 3.5-1 4.6-1.3 0.3-0.1 0.6-0.2 0.9-0.2 0.9 0 1.4 0.6 3.1 1.6 0.2-0.6 0.4-1.3 0.8-1.9 0-0.2 0-0.4 0.1-0.7 -1.2-0.8-2.5-1.7-3.5-2.7 -1.1-1.1-1.5-2.7-1.9-4 -0.3-1-0.6-2-1.1-2.6C61 121.6 60.6 120.9 60.4 120.3z"></path>
</svg>