<svg xmlns="http://www.w3.org/2000/svg" xmlns:xlink="http://www.w3.org/1999/xlink" version="1.1" id="drivers-icon" class="series-icon" x="0px" y="0px" viewBox="0 0 148.7 167.7" enable-background="new 0 0 148.7 167.7" xml:space="preserve"><g><ellipse fill-rule="evenodd" clip-rule="evenodd" cx="134.1" cy="107.2" rx="6.2" ry="5.6"></ellipse><path fill-rule="evenodd" clip-rule="evenodd" d="M118.4 98.6c-13.3-0.3-21.4-8.3-24.5-24.2H70.5c3.8 18.4 15.9 27.6 36.9 28 0.5 0 1.1 0 1.6 0 11.7 0 18.3-2.2 19.8-3.2L129 99c0.4-0.6 0.7-1.3 1-2 -2.3 0.8-5.8 1.6-10.6 1.6C119.2 98.6 118.8 98.6 118.4 98.6zM148.7 57.8c0-3.5-2.8-6.4-6.2-6.4h-0.2C132.9 21.6 105.4 0 72.9 0 32.7 0 0 33.2 0 74.1c0 19 7 36.3 18.6 49.4 -2 1-3.4 3.1-3.4 5.5 0 3.4 2.7 6.2 6 6.2 0.2 0 9.8 0.1 21.1 0.1 11.5 5.9 24.2 9.2 36.4 9.2 15.2 0 30.6-1.4 40.9-11.6 5.9-5.8 9.9-14.4 12-26.1 2.1-1 3.5-2.2 4.2-3.6 2.1-3.4 3.2-7.2 4.1-11.1 -0.1-0.3 1.8 0.1 1.9-0.2 0.8-0.9 1.3-1.9 1.4-3.1 0.1-5.9-0.3-19.9-0.4-24.7C146.1 64 148.7 61.2 148.7 57.8zM72 26c2.6 1 5.2 2.2 7.9 3.1 2.4 0.9 4.7 0.6 6.7-1.1 1.8-1.6 1.8-3.3-0.4-4.3 -2.4-1.1-4.9-1.8-7.5-2.4 -1.7-0.4-3.6-0.4-5.6-0.5 0.4-0.3 0.8-0.6 1.2-0.8 3.2-1.8 6.6-2.6 10.2-3.1 7.4-1 14.7-0.6 21.6 2.6 8.5 3.9 14.5 10.3 16.2 19.7 0.8 4.3 0.9 8.4 0.2 12.3h-3.6c1.7-5.2 1.2-10.9-1.1-15 -4-7.1-10.2-11.2-18.2-12.8 -1.5-0.3-3.1-0.2-4.6-0.3 0 0.2-0.1 0.3-0.1 0.5 0.5 0.4 1.1 0.8 1.6 1.3 1.1 1.2 2.4 2.2 3.2 3.6 1.6 2.8 1.1 6.4-3.1 7.4 -2.7 0.6-5.4 0.6-8 0 -3.1-0.6-6.2-1.5-9.5-2.3 -0.2 1.6 0.3 3.1 1.4 4.3 1.3 1.4 2.9 2.7 4.4 4 0.7 0.7 1.6 1.2 2.2 2 0.3 0.3 0.5 1.1 0.3 1.4 -0.2 0.4-0.8 0.7-1.3 0.7 -1 0-1.9-0.2-2.9-0.3 -3-0.2-6-0.7-8.9-0.6 -3.3 0.1-5.5 2.2-7 5.4 0.9-0.2 1.7-0.4 2.4-0.5 2.6-0.4 5.2-1 7.6 0.5 2.8 1.8 5.4 3.9 9.1 4.8 -3.5 1.8-6.3 3.9-8.5 6.9H66.7c1-0.7 1.7-1.7 1.8-3 0.2-1.8-0.6-2.9-2.3-3.3 -3.1-0.7-5.8 0.3-8.4 2.1 -0.6 0.4-1.2 1-1.7 1.5 -6.6 5.9-17 6.8-24.6 1.1 -2.1-1.6-4-3.3-6-5 0.1-0.1 0.1-0.3 0.2-0.4 1.6 0.1 3.2 0.3 4.8 0.4 4.8 0.3 9.5 0.2 14.1-1.2 3-0.9 5.6-2.4 6.9-5.5 1.3-3.1 0.3-5.2-2.9-6.1 -3.6-1-7.2-0.6-10.8-0.1 -0.6 0.1-1.2 0.2-2.3 0.3 1-1.1 1.6-2 2.4-2.7 3.6-3.4 8.1-5 12.9-5.4 4.6-0.4 9.2-0.2 13.6 1.3 1.6 0.5 3.1 1.4 4.7 2.1 0.2-2.9-1.1-5.1-3.5-6.7 -2.7-1.8-5.7-2.7-9-3 -0.4 0-0.8-0.1-1.2-0.1 -0.1-0.1-0.1-0.3-0.2-0.4 1.6-0.8 3.1-1.8 4.8-2.4C64.1 24.3 68.1 24.5 72 26zM6.1 70.2C6.8 41.5 28.8 12.8 56 5.7c0.4-0.1 1 0.1 2.2 0.2 -8.7 4.1-17.7 9-21.8 13.9 -23.4 28.7-25 72.2-3.5 102.6 0.1 0.1 0.2 0.3 0.3 0.4 -4.9 0-7.8 0-8.6 0.1C11.5 108 5.5 90.5 6.1 70.2zM21.2 131.2c-1.1 0-2-1-2-2.2 0-1.2 0.9-2.2 2-2.2h3.3l0.1 0c0.4 0 4-0.1 13-0.1 7.4 0 16.6 0 19.2 0.1l17.9 0c3.8 0 6.4-0.8 8-2.4 2.2-2.2 2.1-5.2 2.1-8.4 0-0.5 0-0.9 0-1.4 0-2.9 0-5.9 0.1-8.8 1.1 0.5 2.3 1 3.5 1.4 0 2.6 0 4.8 0 6.2 0 0.5 0 1 0 1.5 0 4.7 0.1 10.7-3 13.8 -1.6 1.6-3.9 2.4-7.1 2.4h-0.5l-0.1 0c-1 0-4.2 0.1-14.5 0.1C46.5 131.3 21.4 131.2 21.2 131.2zM116.1 129.3c-7.3 7.2-18.1 10.1-37.4 10.1 -8.6 0-16.8-1.5-24.3-4.2 3.1 0 6.2 0 9 0 10.4 0 13.8 0 15.1-0.1v0c4.2 0 7.6-1.2 9.9-3.6 4.3-4.3 4.2-11.4 4.2-16.6 0-0.5 0-1 0-1.5 0-1.2 0-3 0-5 4.9 1.3 10 1.8 14.8 1.9 7.1 0.1 13.7-0.5 18.8-1.7C124.1 117.9 120.8 124.6 116.1 129.3zM132.8 98.1c-0.1 0.3-0.3 0.7-0.5 1 -0.2 0.5-0.5 1-0.8 1.4l-0.1 0.2 -0.1 0.2c-0.1 0.1-0.1 0.2-0.2 0.3 0 0-0.1 0.1-0.1 0.1 -0.1 0.1-0.1 0.1-0.2 0.2 -0.1 0-0.1 0.1-0.2 0.1 -0.1 0-0.2 0.1-0.2 0.1 -0.4 0.2-0.9 0.5-1.5 0.7 0 0-0.1 0-0.1 0 -0.2 0.1-0.4 0.2-0.7 0.3 -0.1 0-0.1 0-0.2 0.1 -0.2 0.1-0.5 0.2-0.7 0.2 -3.7 1.2-9.7 2.2-18.1 2.2 -0.6 0-1.1 0-1.7 0 -5.5-0.1-10.5-0.8-14.9-2.1 -0.7-0.2-1.3-0.4-2-0.6 0 0-0.1 0-0.1 0 -0.7-0.2-1.3-0.5-1.9-0.7 -1.2-0.5-2.4-1-3.5-1.6 -0.6-0.3-1.1-0.6-1.7-1 -0.1-0.1-0.3-0.2-0.4-0.3 -0.4-0.3-0.8-0.5-1.2-0.8 -0.2-0.1-0.3-0.2-0.5-0.3 -0.4-0.3-0.8-0.6-1.2-0.9 -0.1-0.1-0.2-0.2-0.4-0.3 -1-0.8-1.9-1.7-2.8-2.6 -0.1-0.1-0.2-0.3-0.4-0.4 -0.3-0.3-0.6-0.7-0.9-1 -0.1-0.2-0.3-0.3-0.4-0.5 -0.3-0.4-0.6-0.7-0.9-1.1 -0.1-0.1-0.2-0.3-0.3-0.4 -0.4-0.5-0.7-1.1-1.1-1.6 0 0 0 0 0 0 -0.3-0.5-0.7-1.1-1-1.7 -0.1-0.2-0.2-0.3-0.3-0.5 -0.2-0.4-0.4-0.8-0.6-1.3 -0.1-0.2-0.2-0.4-0.3-0.6 -0.2-0.4-0.4-0.9-0.6-1.3 -0.1-0.2-0.2-0.4-0.2-0.6 -0.3-0.6-0.5-1.3-0.7-2 0 0 0 0 0 0 -0.2-0.7-0.4-1.3-0.6-2 -0.1-0.2-0.1-0.4-0.2-0.6 -0.1-0.5-0.3-1-0.4-1.5 -0.1-0.2-0.1-0.5-0.2-0.8 -0.1-0.5-0.2-1-0.3-1.6 0-0.2-0.1-0.5-0.1-0.7 -0.1-0.8-0.3-1.5-0.4-2.3 0-0.1 0-0.1 0-0.2h67.3c0.1 4.5 0.2 19.4 0.2 19.4l0.3 1.3C134.2 94.4 133.6 96.3 132.8 98.1zM142.5 60.1h-7.3l-0.1 0c-0.5 0-1 0-1.5 0h-0.2c-7.6 0-15.2-0.1-22.7 0l-0.1 0c-0.5 0-1.1 0-1.7 0 -0.8 0-1.7-0.1-2.7-0.1 -4.5 0-8.1 0.8-10.9 2.4h-7.8c3-5 8-7 12.6-7h42.3c1.2 0 2.2 1.1 2.2 2.4C144.7 59.1 143.7 60.1 142.5 60.1z"></path><g><path fill-rule="evenodd" clip-rule="evenodd" d="M122.3 164.2c0.5 2.1-0.9 3.6-3.1 3.2l-10.5-1.9c-2.2-0.4-3.5-2.5-3-4.6l3.2-13.2c0.5-2.1 2.4-2.8 4.2-1.6l2.9 2c1.8 1.3 3.7 4.1 4.1 6.2L122.3 164.2z"></path><path fill-rule="evenodd" clip-rule="evenodd" d="M101.3 164.7c-0.5 2.1-2.7 3.4-4.8 2.8l-68.7-18.7c-2.1-0.6-2.5-2.2-0.8-3.6l11.1-9.1c1.7-1.4 4.9-2.3 7.1-2l57.6 7.2c2.2 0.3 3.6 2.3 3 4.4L101.3 164.7z"></path></g></g></svg>