<svg version="1.1" id="tech-icon" class="element-svg" xmlns="http://www.w3.org/2000/svg" xmlns:xlink="http://www.w3.org/1999/xlink" x="0px" y="0px" viewBox="0 0 92.7 92.6" enable-background="new 0 0 92.7 92.6" xml:space="preserve">
	<g>
		<path d="M92.7,46.3c0-5.4-0.9-10.5-2.6-15.3c-1.4-2.1-2.9-4.1-2.9-6.6c-3-5.5-7-10.4-11.9-14.3
			c-0.7,0.1-1.5,0.2-2.4,0c-2.3-0.6-5.3-3-5.9-3.8c-0.1-0.5-0.1-1,0-1.5C63.7,3.2,60.3,2,56.7,1.2c0.1,0.4,0.1,0.8-0.5,0.9
			c-1.6,0.4-2.1-0.4-2.3-1.5C51.7,0.2,49.5,0,47.1,0c-1.3,0.8-2.6,1.6-4,1.8c-1.7,0.4-6.5,0.7-9-0.2C29.3,3,24.7,5.1,20.5,7.8
			c-0.4,0.9-1,1.7-2.1,2.6c-1.4,1.1-2.5,1.6-3.7,2c-3.8,3.5-7,7.7-9.4,12.4c-0.1,1.3,0.1,2.7-0.9,3.9c-0.4,0.5-0.8,0.8-1.3,0.9
			C1.1,34.9,0,40.5,0,46.3c0,1.5,0.1,3,0.2,4.5c0.5,0.2,0.9,0.7,0.8,2.1c-0.2,0-0.4,0-0.6,0c0.3,2.2,0.8,4.3,1.4,6.4
			c1.2,1,2.6,1.7,1.5,3.7c0.6,0.7,0.8,1.6,0.8,2.5c1.4,3.2,3.2,6.2,5.3,8.9c0.3,0.1,0.6,0.2,1,0.4c1.9,0.9,2.8,2.7,3.4,4.7
			c4.9,4.8,10.9,8.6,17.6,10.8c3.2-0.6,9.2,0.4,11.2,0.7c1.8,0.2,2.8,1.1,3.9,1.7c9.6-0.1,18.6-3.1,26-8.3c0-0.3,0.1-0.7,0.2-1
			c0.8-2.3,1.4-0.9,2.7-2.6c1.6-2.2,2.4-3.7,4.8-5.3c2.3-1.6,4-3,5.6-5.3c0.1-0.1,0.2-0.2,0.3-0.3c1.8-3,3.2-6.2,4.3-9.6
			c-0.3-0.6-0.6-1.2-0.7-2.1c-0.3-2.6,1.2-3.2,2.3-4.8C92.5,51.1,92.7,48.7,92.7,46.3z M46.3,88.7C23,88.7,4,69.7,4,46.3
			C4,23,23,4,46.3,4c23.4,0,42.4,19,42.4,42.4C88.7,69.7,69.7,88.7,46.3,88.7z M68.4,30.1l1.4-5.1l-7.7-6.1l-3.8,3
			c-2.3-1.1-4.8-1.9-7.4-2.3l-0.1,0l-1.1-5.5l-8.9,0.3l-1,5.6c-1.8,0.4-3.6,1.1-5.3,1.9l-0.1,2.7l-5-5.2l-6.7,5l1.2,6.3
			c-0.6,0.9-1.2,1.8-1.7,2.7l2.2,2.7l-7.9-0.3l-1.9,8.8l3.9,3.3c0,0.6,0,1.2,0.1,1.9c0.2,1.7,0.5,3.4,0.9,5l2.9-0.4l-6.1,4.2
			l3.7,7.5l4.5-1.3c1.6,2,3.4,3.7,5.4,5.2l-1.2,3.9l7.8,3.2l2.4-2.7c2.7,0.8,5.6,1.1,8.5,1l2.2,3.4l8.9-1.8l1.2-4.9
			c2.2-1.2,4.2-2.6,6-4.3l3.7,1.3l5.8-8.1l-2.3-4.3c0.7-2.1,1.2-4.3,1.5-6.5l4.1-1.1l-1.2-11.8l-5-0.9C71.1,34,69.9,31.9,68.4,30.1z
			 M65.5,54.1c-3.7,10.6-14.4,16.4-23.8,13.1c-9.5-3.3-11.2-14.4-7.5-25c3.7-10.6,13.6-15.7,20.9-13.3
			C64.6,32.1,69.2,43.5,65.5,54.1z M52.2,51.6c-1.8-1.4-4.5-0.7-7.1,2.5c-2.6,3.3-3.2,7.1-1.3,8.5c1.8,1.4,5.3-0.1,7.9-3.3
			C54.2,56.1,54,53.1,52.2,51.6z M52.1,34.4c-2.7-1.7-7.2-0.3-9.9,4.2c-2.7,4.4-3.5,8.6-0.7,10.3c2.7,1.7,8,0.3,10.7-4.2
			C54.8,40.3,54.8,36.1,52.1,34.4z M56.7,52.2c-1.7,2.7-1.1,4.8,0.2,5.7c1.4,0.9,3.1,0.1,4.8-2.6c1.7-2.7,1.9-5.6,0.6-6.5
			C60.9,48,58.4,49.5,56.7,52.2z"></path>
	</g>
</svg>